<?xml version="1.0" encoding="utf-8"?>
<!-- Generator: Adobe Illustrator 16.0.0, SVG Export Plug-In . SVG Version: 6.00 Build 0)  -->
<!DOCTYPE svg PUBLIC "-//W3C//DTD SVG 1.1//EN" "http://www.w3.org/Graphics/SVG/1.1/DTD/svg11.dtd">
<svg version="1.1" id="圖層_1" xmlns="http://www.w3.org/2000/svg" xmlns:xlink="http://www.w3.org/1999/xlink" x="0px" y="0px"
	 width="542.973px" height="74.996px" viewBox="0 0 542.973 74.996" enable-background="new 0 0 542.973 74.996"
	 xml:space="preserve">
<g>
	<rect x="47.486" y="28.581" fill="#999999" width="449.563" height="2"/>
</g>
<g id="圖層_1_1_">
	<g>
		<path d="M504.844,68.979l-0.328,1.03c-0.529,0.009-1.105,0.013-1.729,0.013c-2.09,0-3.468-0.039-4.134-0.113
			c-0.666-0.076-1.254-0.268-1.766-0.561c-0.51-0.293-0.954-0.729-1.333-1.314c-0.107,0.896-0.283,1.645-0.525,2.24l-0.893-0.64
			c0.422-1.112,0.604-2.682,0.553-4.704h0.982l-0.021,1.465c0,0.026,0.057,0.153,0.17,0.379c0.111,0.229,0.244,0.432,0.396,0.604
			v-3.094h-2.02v-0.974h2.02v-1.317h-1.74V61.02h1.74v-1.307h1.021v1.307h1.575v0.978h-1.575v1.313h1.793v0.978h-1.793v1.313h1.575
			v0.978h-1.575v1.817c0.676,0.418,1.611,0.627,2.813,0.627C501.834,69.025,503.434,69.01,504.844,68.979z M504.352,59.943
			c0.021,1.932-0.063,3.098-0.255,3.498c-0.188,0.397-0.604,0.604-1.251,0.604c-0.189,0-0.457-0.012-0.797-0.035l-0.328-0.994
			c0.172,0.018,0.365,0.021,0.58,0.021c0.436,0,0.689-0.021,0.775-0.07c0.086-0.047,0.151-0.229,0.202-0.545
			c0.049-0.314,0.071-0.822,0.071-1.521h-1.486c-0.074,1.453-0.707,2.604-1.896,3.457L499.26,63.6
			c1.004-0.688,1.537-1.588,1.602-2.701h-1.453v-0.955H504.352L504.352,59.943z M504.229,68.223h-4.521v-3.545h4.521V68.223z
			 M503.15,67.25v-1.588h-2.373v1.588H503.15z"/>
		<path d="M510.74,61.457c-1.039,1.852-2.063,3.271-3.082,4.26c0.646-0.094,1.229-0.227,1.74-0.398
			c-0.031-0.155-0.104-0.362-0.219-0.616l0.791-0.328c0.268,0.521,0.498,1.222,0.697,2.092l-0.861,0.322
			c-0.043-0.277-0.088-0.474-0.135-0.574c-1.32,0.354-2.396,0.574-3.221,0.668l-0.299-0.92c0.688-0.521,1.41-1.354,2.188-2.508
			c-0.531,0.108-1.16,0.226-1.891,0.334l-0.178-0.896c0.813-1.074,1.422-2.182,1.822-3.32l1.031,0.313
			c-0.462,1.063-0.979,1.979-1.548,2.748c0.438-0.062,0.909-0.146,1.425-0.271c0.219-0.354,0.454-0.791,0.709-1.315L510.74,61.457z
			 M507.639,67.378c-0.078,0.91-0.258,1.83-0.539,2.761l-0.938-0.394c0.305-0.979,0.479-1.86,0.527-2.644L507.639,67.378z
			 M508.922,69.553l-0.914,0.17c0.012-0.177,0.02-0.354,0.02-0.539c0-0.521-0.046-1.146-0.137-1.875l0.838-0.136
			C508.846,67.832,508.906,68.625,508.922,69.553z M510.24,68.617l-0.791,0.264c-0.09-0.625-0.213-1.201-0.369-1.729l0.807-0.145
			C510.035,67.521,510.156,68.057,510.24,68.617z M516.756,69.335l-0.684,0.867c-0.75-0.513-1.354-1.033-1.813-1.563
			c-0.645,0.616-1.336,1.146-2.086,1.575l-0.779-0.819c0.881-0.449,1.619-0.97,2.223-1.56c-0.561-0.938-0.943-2.028-1.166-3.274
			c-0.289,2.492-0.854,4.381-1.689,5.666l-0.854-0.646c1.146-1.854,1.684-4.724,1.604-8.595h-0.791v-1.008h5.318
			c-0.183,1.207-0.392,2.295-0.629,3.269h1.064c-0.172,1.887-0.68,3.418-1.521,4.594C515.461,68.421,516.061,68.921,516.756,69.335z
			 M514.816,60.986h-2.223c0,0.688-0.021,1.438-0.063,2.258h1.802C514.52,62.52,514.68,61.768,514.816,60.986z M515.309,64.273
			h-1.861c0.121,0.975,0.41,1.883,0.867,2.727C514.801,66.225,515.133,65.316,515.309,64.273z"/>
		<path d="M528.844,61.791l-0.422,0.949c-0.979-0.242-1.977-0.57-2.979-0.984v0.445h-3.92V61.73
			c-0.928,0.41-1.906,0.754-2.938,1.029l-0.527-0.865c2.363-0.607,4.104-1.394,5.229-2.338l1.175,0.282
			c-0.082,0.104-0.154,0.183-0.221,0.229C525.357,60.775,526.891,61.348,528.844,61.791z M527.744,65.787h-8.563v-3.102h8.563
			V65.787z M527.232,70.15h-1.057v-0.428h-5.373v0.428h-1.097v-3.838h7.521L527.232,70.15L527.232,70.15z M522.926,64.949v-1.406
			h-2.701v1.406H522.926z M522.398,64.355l-0.758,0.479c-0.288-0.242-0.619-0.479-0.994-0.709l0.742-0.504
			C521.637,63.759,521.973,64.003,522.398,64.355z M526.178,67.621v-0.492h-5.373v0.492H526.178z M526.178,68.891v-0.523h-5.373
			v0.523H526.178z M524.607,61.369c-0.646-0.359-1.037-0.582-1.18-0.668c-0.328,0.244-0.703,0.469-1.125,0.668H524.607z
			 M526.693,64.949v-1.406h-2.713v1.406H526.693z M526.236,64.104c-0.268,0.229-0.604,0.455-1.008,0.696l-0.744-0.504
			c0.469-0.297,0.797-0.515,0.982-0.649L526.236,64.104z"/>
		<path d="M539.584,68.257H534l0.396,0.347c-0.92,0.66-2.125,1.213-3.621,1.658l-0.594-0.854c1.186-0.338,2.146-0.721,2.885-1.148
			h-1.729v-5.244h8.242L539.584,68.257L539.584,68.257z M539.32,62.33h-7.717v-2.326h7.717V62.33z M538.529,64.514v-0.675h-6.107
			v0.675H538.529z M538.529,65.966v-0.687h-6.107v0.687H538.529z M538.529,67.443v-0.695h-6.107v0.695H538.529z M538.26,61.525
			v-0.688h-5.559v0.688H538.26z M540.756,69.408l-0.527,0.891c-1.059-0.43-2.227-0.754-3.504-0.973l0.492-0.893
			C538.564,68.652,539.74,68.977,540.756,69.408z"/>
	</g>
	<g>
		<path d="M400.327,68.957c-1.488,0.551-2.736,0.926-3.74,1.125l-0.146-1.008c0.633-0.117,1.133-0.24,1.5-0.369v-3.41h-1.344v-0.984
			h1.344v-0.892h-0.744v-0.517c-0.117,0.142-0.252,0.271-0.4,0.388l-0.492-0.938c0.725-0.724,1.309-1.646,1.752-2.783l0.908,0.223
			c0,0.082-0.025,0.186-0.082,0.299c0.563,0.574,0.979,1.035,1.248,1.387l-0.604,0.756c-0.354-0.465-0.703-0.869-1.043-1.213
			c-0.289,0.563-0.584,1.041-0.887,1.424h2.039v0.98h-0.709v0.895h1.166v0.98h-1.166v3.117c0.438-0.105,0.902-0.271,1.402-0.492
			L400.327,68.957L400.327,68.957z M397.698,68.201l-0.838,0.232c-0.021-0.65-0.164-1.472-0.424-2.441l0.779-0.266
			C397.474,66.596,397.634,67.419,397.698,68.201z M400.365,65.992c-0.043,0.451-0.172,1.041-0.389,1.764l-0.838-0.217
			c0.207-0.652,0.346-1.248,0.41-1.787L400.365,65.992z M406.278,68.535h-3.635l0.424,0.504c-0.543,0.473-1.301,0.873-2.27,1.201
			l-0.604-0.779c0.729-0.211,1.404-0.521,2.039-0.926h-1.453v-4.453h5.496L406.278,68.535L406.278,68.535z M403.46,63.291
			c-0.422,0.266-0.801,0.465-1.141,0.598l-0.354-0.621c0.129-0.086,0.189-0.219,0.189-0.396v-0.574h-0.407
			c-0.063,0.781-0.36,1.32-0.907,1.617l-0.627-0.463c0.418-0.272,0.67-0.658,0.756-1.154h-0.654V61.65h1.354V61.13h-0.555
			c-0.039,0.103-0.104,0.201-0.204,0.3l-0.606-0.252c0.271-0.543,0.434-0.98,0.477-1.318l0.688,0.146
			c-0.031,0.199-0.064,0.355-0.104,0.471h0.313v-0.799h0.926v0.799h0.553v0.654h-0.553v0.518h0.758v0.648h-0.46v0.553
			c0.154-0.053,0.313-0.133,0.457-0.24L403.46,63.291z M405.224,65.365v-0.457h-3.396v0.457H405.224z M405.224,66.542v-0.47h-3.396
			v0.47H405.224z M405.224,67.708v-0.444h-3.396v0.444H405.224z M407.063,62.82c0,0.143-0.029,0.309-0.094,0.502
			c-0.063,0.193-0.146,0.32-0.258,0.385c-0.11,0.063-0.305,0.094-0.574,0.094c-0.313,0-0.512-0.055-0.607-0.164
			c-0.099-0.109-0.146-0.285-0.146-0.527v-0.813h-0.375c-0.02,0.711-0.303,1.27-0.854,1.67l-0.586-0.531
			c0.438-0.311,0.664-0.688,0.68-1.139h-0.551v-0.648h1.078V61.13h-0.539c-0.021,0.052-0.078,0.149-0.178,0.3l-0.695-0.199
			c0.266-0.396,0.438-0.857,0.525-1.396l0.697,0.17c-0.016,0.156-0.052,0.313-0.111,0.47h0.301v-0.797h0.914v0.797h0.961v0.655
			h-0.961v0.517h1.26v0.649h-0.838v0.649c0,0.099,0.041,0.146,0.123,0.146c0.051,0,0.103-0.055,0.146-0.159
			c0.045-0.104,0.063-0.229,0.063-0.359L407.063,62.82z M407.134,69.531l-0.615,0.756c-0.654-0.332-1.441-0.621-2.359-0.867
			l0.602-0.77C405.681,68.9,406.474,69.193,407.134,69.531z"/>
		<path d="M418.894,61.046h-5.365c-0.453,1.199-0.925,2.181-1.412,2.94h5.865v6.218h-1.104v-0.757h-4.822v0.728h-1.105v-4.698
			c-0.893,0.922-1.561,1.545-2.004,1.869l-0.586-0.914c1.969-1.603,3.297-3.396,3.982-5.386h-3.818v-1.043h10.371L418.894,61.046
			L418.894,61.046z M416.865,68.398v-3.355h-4.813v3.355H416.865z"/>
		<path d="M431.11,61.791l-0.424,0.949c-0.979-0.242-1.973-0.57-2.977-0.984v0.445h-3.924V61.73
			c-0.926,0.41-1.902,0.754-2.938,1.029l-0.525-0.865c2.361-0.607,4.105-1.394,5.23-2.338l1.172,0.282
			c-0.082,0.104-0.152,0.183-0.217,0.229C427.62,60.775,429.156,61.35,431.11,61.791z M430.015,65.787h-8.564v-3.102h8.564V65.787z
			 M429.495,70.15h-1.055v-0.428h-5.373v0.428h-1.098v-3.838h7.521L429.495,70.15L429.495,70.15z M425.192,64.949v-1.406h-2.701
			v1.406H425.192z M424.661,64.355l-0.756,0.479c-0.289-0.242-0.621-0.479-0.996-0.709l0.744-0.504
			C423.903,63.762,424.239,64.005,424.661,64.355z M428.444,67.621v-0.492h-5.373v0.492H428.444z M428.444,68.893v-0.525h-5.373
			v0.525H428.444z M426.87,61.369c-0.646-0.359-1.033-0.582-1.178-0.668c-0.328,0.244-0.703,0.469-1.125,0.668H426.87z
			 M428.96,64.949v-1.406h-2.717v1.406H428.96z M428.503,64.104c-0.27,0.229-0.604,0.455-1.012,0.696l-0.743-0.504
			c0.472-0.297,0.8-0.515,0.983-0.649L428.503,64.104z"/>
		<path d="M441.851,68.26h-5.584l0.396,0.346c-0.918,0.66-2.125,1.213-3.617,1.658l-0.596-0.854
			c1.188-0.338,2.146-0.721,2.887-1.146h-1.729V63.02h8.242V68.26L441.851,68.26z M441.587,62.33h-7.721v-2.326h7.721V62.33z
			 M440.796,64.516v-0.675h-6.111v0.675H440.796z M440.796,65.969v-0.688h-6.111v0.688H440.796z M440.796,67.443v-0.695h-6.111
			v0.695H440.796z M440.526,61.525v-0.688h-5.557v0.688H440.526z M443.021,69.408l-0.526,0.891c-1.061-0.43-2.229-0.754-3.504-0.973
			l0.492-0.893C440.827,68.652,442.011,68.979,443.021,69.408z"/>
	</g>
	<g>
		<path d="M308.405,70.175H307.3v-0.907h-6.586v0.907h-1.104v-8.684h2.277c0.375-0.574,0.688-1.212,0.949-1.91l1.146,0.229
			c-0.199,0.547-0.479,1.104-0.84,1.682h5.258L308.405,70.175L308.405,70.175z M307.298,64.803v-2.291h-6.586v2.291H307.298z
			 M307.298,68.225V65.87h-6.586v2.354H307.298L307.298,68.225z"/>
		<path d="M321.308,63.132l-0.521,0.938c-0.574-0.242-1.178-0.539-1.799-0.893v0.676h-2.461v1.178h4.049v1.031h-4.049v2.795h4.336
			v1.02h-9.709v-1.02h4.281v-2.795h-3.973v-1.031h3.973v-1.18h-2.494v-0.646c-0.453,0.271-0.992,0.553-1.617,0.838l-0.674-0.914
			c2.439-1.072,4.141-2.246,5.098-3.516l1.084,0.311c-0.023,0.07-0.076,0.146-0.154,0.23
			C317.573,61.189,319.116,62.184,321.308,63.132z M314.599,68.307l-1.008,0.346c-0.281-0.521-0.729-1.143-1.352-1.865l1.021-0.426
			C313.856,67.061,314.302,67.708,314.599,68.307z M318.409,62.846c-1.027-0.634-1.85-1.252-2.445-1.855
			c-0.688,0.668-1.486,1.285-2.396,1.855H318.409z M319.767,66.734c-0.414,0.768-0.846,1.396-1.295,1.895l-1.043-0.457
			c0.461-0.48,0.896-1.084,1.309-1.813L319.767,66.734z"/>
		<path d="M333.378,61.791l-0.426,0.949c-0.979-0.242-1.975-0.57-2.979-0.984v0.445h-3.92V61.73
			c-0.926,0.41-1.904,0.754-2.939,1.029l-0.523-0.865c2.359-0.607,4.104-1.394,5.229-2.338l1.172,0.282
			c-0.082,0.104-0.15,0.183-0.217,0.229C329.892,60.775,331.425,61.35,333.378,61.791z M332.281,65.787h-8.563v-3.102h8.563V65.787z
			 M331.767,70.15h-1.055v-0.428h-5.373v0.428h-1.1v-3.838h7.521L331.767,70.15L331.767,70.15z M327.46,64.949v-1.406h-2.701v1.406
			H327.46z M326.933,64.355l-0.756,0.479c-0.289-0.242-0.621-0.479-0.996-0.709l0.744-0.504
			C326.171,63.762,326.507,64.005,326.933,64.355z M330.712,67.621v-0.492h-5.373v0.492H330.712z M330.712,68.893v-0.525h-5.373
			v0.525H330.712z M329.142,61.369c-0.646-0.359-1.035-0.582-1.178-0.668c-0.328,0.244-0.703,0.469-1.125,0.668H329.142z
			 M331.228,64.949v-1.406h-2.713v1.406H331.228z M330.771,64.104c-0.268,0.229-0.604,0.455-1.01,0.696l-0.744-0.504
			c0.471-0.297,0.799-0.515,0.984-0.649L330.771,64.104z"/>
		<path d="M344.115,68.26h-5.584l0.396,0.346c-0.918,0.66-2.125,1.213-3.621,1.658l-0.592-0.854
			c1.186-0.338,2.146-0.721,2.883-1.146h-1.729V63.02h8.244L344.115,68.26L344.115,68.26z M343.854,62.33h-7.717v-2.326h7.717V62.33
			z M343.063,64.516v-0.675h-6.109v0.675H343.063z M343.063,65.969v-0.688h-6.109v0.688H343.063z M343.063,67.443v-0.695h-6.109
			v0.695H343.063z M342.794,61.525v-0.688h-5.559v0.688H342.794z M345.286,69.408l-0.523,0.891c-1.063-0.43-2.229-0.754-3.504-0.973
			l0.492-0.893C343.099,68.652,344.278,68.979,345.286,69.408z"/>
	</g>
	<g>
		<path fill="#FF3000" d="M205.269,69.277c-1.238,0.471-2.537,0.781-3.896,0.938l-0.457-0.891c1.477-0.121,2.709-0.373,3.693-0.758
			L205.269,69.277z M211.486,64.046h-10.465v-0.851h10.465V64.046z M211.21,61.229h-2.271v1.438h-5.391v-1.438h-2.256v-0.845h2.256
			v-0.709h1.072v0.709h3.264v-0.709h1.055v0.709h2.271V61.229L211.21,61.229z M210.49,68.412h-8.484v-3.77h8.484V68.412z
			 M205.726,66.132v-0.646h-2.666v0.646H205.726z M205.726,67.563v-0.674h-2.666v0.674H205.726z M207.888,61.85v-0.621h-3.264v0.621
			H207.888z M209.423,66.132v-0.646h-2.666v0.646H209.423z M209.423,67.563v-0.674h-2.666v0.674H209.423z M211.404,69.359
			l-0.535,0.854c-1.207-0.379-2.424-0.631-3.643-0.756l0.492-0.832C209.097,68.796,210.326,69.041,211.404,69.359z"/>
		<path fill="#FF3000" d="M223.574,63.132l-0.521,0.938c-0.578-0.242-1.178-0.539-1.799-0.893v0.676h-2.461v1.178h4.049v1.031
			h-4.049v2.795h4.336v1.02h-9.709v-1.02h4.283v-2.795h-3.977v-1.031h3.977v-1.18h-2.496v-0.646
			c-0.453,0.271-0.992,0.553-1.617,0.838l-0.674-0.914c2.438-1.072,4.141-2.246,5.098-3.516l1.084,0.311
			c-0.027,0.07-0.08,0.146-0.158,0.23C219.841,61.189,221.386,62.184,223.574,63.132z M216.865,68.307l-1.012,0.346
			c-0.277-0.521-0.729-1.143-1.348-1.865l1.02-0.426C216.123,67.061,216.568,67.708,216.865,68.307z M220.679,62.846
			c-1.031-0.634-1.848-1.252-2.449-1.855c-0.688,0.668-1.482,1.285-2.396,1.855H220.679z M222.033,66.734
			c-0.414,0.768-0.85,1.396-1.299,1.895l-1.043-0.457c0.461-0.48,0.896-1.084,1.311-1.813L222.033,66.734z"/>
		<path fill="#FF3000" d="M235.644,61.791l-0.422,0.949c-0.979-0.242-1.973-0.57-2.977-0.984v0.445h-3.92V61.73
			c-0.93,0.41-1.906,0.754-2.941,1.029l-0.527-0.865c2.363-0.607,4.107-1.394,5.232-2.338l1.172,0.282
			c-0.082,0.104-0.154,0.183-0.217,0.229C232.158,60.775,233.691,61.35,235.644,61.791z M234.548,65.787h-8.566v-3.102h8.566V65.787
			z M234.033,70.15h-1.059v-0.428h-5.373v0.428h-1.096v-3.838h7.521L234.033,70.15L234.033,70.15z M229.726,64.949v-1.406h-2.701
			v1.406H229.726z M229.199,64.355l-0.76,0.479c-0.289-0.242-0.621-0.479-0.996-0.709l0.744-0.504
			C228.437,63.762,228.773,64.005,229.199,64.355z M232.978,67.621v-0.492h-5.373v0.492H232.978z M232.978,68.893v-0.525h-5.373
			v0.525H232.978z M231.408,61.369c-0.646-0.359-1.037-0.582-1.182-0.668c-0.328,0.244-0.703,0.469-1.125,0.668H231.408z
			 M233.494,64.949v-1.406h-2.717v1.406H233.494z M233.037,64.104c-0.27,0.229-0.604,0.455-1.012,0.696l-0.74-0.504
			c0.469-0.297,0.797-0.515,0.98-0.649L233.037,64.104z"/>
		<path fill="#FF3000" d="M246.384,68.26H240.8l0.396,0.346c-0.918,0.66-2.125,1.213-3.617,1.658l-0.596-0.854
			c1.188-0.338,2.146-0.721,2.887-1.146h-1.729V63.02h8.244L246.384,68.26L246.384,68.26z M246.121,62.33H238.4v-2.326h7.721V62.33
			L246.121,62.33z M245.33,64.516v-0.675h-6.111v0.675H245.33z M245.33,65.969v-0.688h-6.111v0.688H245.33z M245.33,67.443v-0.695
			h-6.111v0.695H245.33z M245.06,61.525v-0.688h-5.555v0.688H245.06z M247.556,69.408l-0.527,0.891
			c-1.059-0.43-2.227-0.754-3.504-0.973l0.492-0.893C245.365,68.652,246.544,68.979,247.556,69.408z"/>
	</g>
	<g>
		<path fill="#FF3000" d="M113.765,64.896h-10.477v-0.984h3.557v-2.145h-3.281v-0.949h9.938v0.949h-3.299v2.145h3.563
			L113.765,64.896L113.765,64.896z M106.159,63.396l-0.984,0.313c-0.234-0.441-0.51-0.883-0.826-1.313l0.955-0.367
			C105.718,62.589,106.003,63.044,106.159,63.396z M112.593,70.205h-1.084v-0.504h-5.965v0.504h-1.078v-4.719h8.127V70.205z
			 M107.501,60.373l-1.125,0.34c-0.479-0.355-0.854-0.611-1.131-0.77l1.166-0.375C106.774,59.805,107.138,60.07,107.501,60.373z
			 M111.509,67.104v-0.687h-5.965v0.687H111.509z M111.509,68.773v-0.771h-5.965v0.771H111.509z M109.159,63.912v-2.146h-1.264
			l-0.021,2.146H109.159z M111.796,59.957c-0.367,0.318-0.746,0.57-1.137,0.756l-1.248-0.363c0.414-0.207,0.834-0.467,1.26-0.777
			L111.796,59.957z M112.757,62.376c-0.375,0.621-0.691,1.078-0.949,1.371l-0.967-0.388c0.391-0.453,0.697-0.903,0.92-1.354
			L112.757,62.376z"/>
		<path fill="#FF3000" d="M125.776,68.957L125.501,70c-0.691,0.016-1.34,0.021-1.945,0.021c-2.262,0-3.749-0.078-4.462-0.232
			c-0.713-0.156-1.333-0.49-1.86-1.002c-0.387,0.563-0.775,1.059-1.178,1.486l-0.838-0.648c1.066-1.066,1.73-2.205,1.992-3.416
			h-1.705v-1.025c0.664-0.793,1.172-1.451,1.521-1.975h-1.752v-1.025h3.035v1.025c-0.379,0.59-0.854,1.248-1.424,1.975h1.453v1.025
			c-0.143,0.598-0.353,1.16-0.627,1.688c0.289,0.328,0.666,0.586,1.131,0.773c0.465,0.188,1.049,0.291,1.752,0.311
			c0.703,0.021,1.439,0.029,2.209,0.029C123.923,69.01,124.913,68.992,125.776,68.957z M118.183,61.164l-0.756,0.695
			c-0.629-0.637-1.25-1.146-1.863-1.533l0.709-0.744C117.069,60.107,117.706,60.637,118.183,61.164z M125.419,67.479
			c0,0.328-0.118,0.576-0.354,0.742c-0.232,0.166-0.706,0.231-1.409,0.2l-0.311-0.979c0.195,0.013,0.379,0.017,0.551,0.017
			c0.32,0,0.48-0.091,0.48-0.271V66.67h-1.646v1.719h-1.03V66.67h-1.646v1.74h-1.031v-6.152h2.355
			c-0.41-0.207-0.918-0.416-1.523-0.627l0.807-0.607c0.504,0.183,0.936,0.354,1.295,0.525c0.48-0.223,0.938-0.459,1.361-0.709
			h-4.459v-0.974h6.313v0.974c-0.797,0.51-1.525,0.938-2.188,1.295l0.158,0.123h2.279L125.419,67.479L125.419,67.479z
			 M121.698,64.046v-0.892h-1.646v0.892H121.698z M121.698,65.787V64.92h-1.646v0.867H121.698z M124.376,64.046v-0.892h-1.646v0.892
			H124.376z M124.376,65.787V64.92h-1.646v0.867H124.376z"/>
		<path fill="#FF3000" d="M137.911,61.791l-0.426,0.949c-0.979-0.242-1.973-0.57-2.977-0.984v0.445h-3.92V61.73
			c-0.926,0.41-1.906,0.754-2.941,1.029l-0.523-0.865c2.359-0.607,4.104-1.394,5.229-2.338l1.172,0.282
			c-0.082,0.104-0.15,0.183-0.217,0.229C134.425,60.775,135.958,61.35,137.911,61.791z M136.815,65.787h-8.563v-3.102h8.563V65.787z
			 M136.3,70.15h-1.055v-0.428h-5.373v0.428h-1.1v-3.838h7.523L136.3,70.15L136.3,70.15z M131.993,64.949v-1.406h-2.701v1.406
			H131.993z M131.466,64.355l-0.756,0.479c-0.289-0.242-0.621-0.479-0.996-0.709l0.744-0.504
			C130.704,63.762,131.04,64.005,131.466,64.355z M135.245,67.621v-0.492h-5.373v0.492H135.245z M135.245,68.893v-0.525h-5.373
			v0.525H135.245z M133.675,61.369c-0.646-0.359-1.037-0.582-1.178-0.668c-0.328,0.244-0.703,0.469-1.125,0.668H133.675z
			 M135.761,64.949v-1.406h-2.713v1.406H135.761z M135.304,64.104c-0.266,0.229-0.602,0.455-1.008,0.696l-0.744-0.504
			c0.469-0.297,0.797-0.515,0.984-0.649L135.304,64.104z"/>
		<path fill="#FF3000" d="M148.651,68.26h-5.584l0.398,0.346c-0.918,0.66-2.125,1.213-3.621,1.658l-0.592-0.854
			c1.184-0.338,2.145-0.721,2.883-1.146h-1.729V63.02h8.244L148.651,68.26L148.651,68.26z M148.388,62.33h-7.717v-2.326h7.717V62.33
			z M147.597,64.516v-0.675h-6.111v0.675H147.597z M147.597,65.969v-0.688h-6.111v0.688H147.597z M147.597,67.443v-0.695h-6.111
			v0.695H147.597z M147.327,61.525v-0.688h-5.559v0.688H147.327z M149.823,69.408l-0.523,0.891c-1.063-0.43-2.229-0.754-3.504-0.973
			l0.492-0.893C147.632,68.652,148.812,68.979,149.823,69.408z"/>
	</g>
	<g>
		<path fill="#FF3000" d="M16.055,69.408l-0.838,0.797c-2.285-1.992-3.742-4.17-4.371-6.533c-0.797,2.729-2.344,4.879-4.641,6.445
			l-0.779-0.84c1.035-0.688,1.929-1.518,2.681-2.494c0.752-0.98,1.325-2.057,1.724-3.227c0.395-1.175,0.592-1.938,0.592-2.297
			l-0.035-0.238H8.93v-1.064h2.461c0.105,2.305,0.563,4.174,1.365,5.609C13.559,67.001,14.66,68.283,16.055,69.408z"/>
		<path fill="#FF3000" d="M22.26,64.859h-3.287v5.313h-1.09V59.943h4.377V64.859z M21.205,61.873v-0.961h-2.232v0.961H21.205z
			 M21.205,63.854v-1.056h-2.232v1.056H21.205z M27.615,69.23c0,0.313-0.122,0.545-0.366,0.692
			c-0.244,0.152-0.919,0.229-2.024,0.234l-0.354-1.063c0.789,0.014,1.266,0.01,1.43-0.015c0.164-0.022,0.246-0.104,0.246-0.24
			v-3.979h-3.322v-4.916h4.396v9.287H27.615z M26.543,61.873v-0.961h-2.244v0.961H26.543z M26.543,63.854v-1.056h-2.244v1.056
			H26.543z"/>
		<path fill="#FF3000" d="M40.178,61.791l-0.422,0.949c-0.98-0.242-1.973-0.57-2.979-0.984v0.445h-3.92V61.73
			c-0.926,0.41-1.902,0.754-2.938,1.029l-0.527-0.865c2.363-0.607,4.107-1.394,5.232-2.338l1.172,0.282
			c-0.082,0.104-0.154,0.183-0.217,0.229C36.691,60.775,38.225,61.35,40.178,61.791z M39.082,65.787h-8.566v-3.102h8.566V65.787z
			 M38.566,70.15h-1.055v-0.428h-5.373v0.428h-1.096v-3.838h7.521L38.566,70.15L38.566,70.15z M34.26,64.949v-1.406h-2.701v1.406
			H34.26z M33.732,64.355l-0.756,0.479c-0.289-0.242-0.621-0.479-0.996-0.709l0.744-0.504
			C32.971,63.762,33.307,64.005,33.732,64.355z M37.512,67.621v-0.492h-5.373v0.492H37.512z M37.512,68.893v-0.525h-5.373v0.525
			H37.512z M35.941,61.369c-0.645-0.359-1.037-0.582-1.178-0.668c-0.328,0.244-0.703,0.469-1.125,0.668H35.941z M38.027,64.949
			v-1.406h-2.713v1.406H38.027z M37.57,64.104c-0.266,0.229-0.602,0.455-1.008,0.696l-0.744-0.504
			c0.473-0.297,0.801-0.515,0.984-0.649L37.57,64.104z"/>
		<path fill="#FF3000" d="M50.918,68.26h-5.584l0.396,0.346c-0.918,0.66-2.125,1.213-3.621,1.658l-0.592-0.854
			c1.188-0.338,2.146-0.721,2.883-1.146h-1.729V63.02h8.244L50.918,68.26L50.918,68.26z M50.654,62.33h-7.717v-2.326h7.717V62.33z
			 M49.863,64.516v-0.675h-6.107v0.675H49.863z M49.863,65.969v-0.688h-6.107v0.688H49.863z M49.863,67.443v-0.695h-6.107v0.695
			H49.863z M49.594,61.525v-0.688h-5.555v0.688H49.594z M52.09,69.408l-0.527,0.891c-1.059-0.43-2.227-0.754-3.504-0.973
			l0.492-0.893C49.898,68.652,51.078,68.979,52.09,69.408z"/>
	</g>
</g>
<g>
	<g>
		<g>
			<g>
				<g>
					<circle fill="#FF3000" cx="28.823" cy="29.248" r="23.427"/>
					<circle fill="#FFD654" cx="28.822" cy="29.248" r="19.229"/>
				</g>
				<g>
					<g>
						<path fill="#302E2D" d="M40.97,29.077c0,7.268-5.896,13.165-13.167,13.165s-13.165-5.897-13.165-13.165
							c0-7.274,5.896-13.166,13.165-13.166C35.072,15.912,40.97,21.803,40.97,29.077z"/>
					</g>
					<g>
						<path fill="#FFFFFF" d="M39.443,29.077c0,6.425-5.213,11.639-11.641,11.639c-6.429,0-11.641-5.213-11.641-11.639
							c0-6.432,5.212-11.641,11.641-11.641C34.23,17.437,39.443,22.646,39.443,29.077z"/>
					</g>
					<g>
						<path fill="#231815" d="M27.629,37.203c-0.583,0-1.107-0.137-1.447-0.288c-0.188-0.083-0.277-0.304-0.188-0.494
							c0.084-0.189,0.305-0.275,0.489-0.193l0,0c0.074,0.033,1.845,0.777,2.994-0.617c0.133-0.161,0.369-0.183,0.529-0.051
							c0.16,0.132,0.182,0.368,0.05,0.527C29.352,36.941,28.433,37.203,27.629,37.203z"/>
						<g>
							<path fill="none" stroke="#302E2D" stroke-linecap="round" stroke-linejoin="round" stroke-miterlimit="10" d="
								M26.047,29.875c0,0,1.854-2.239,3.826,0"/>
							<circle fill="#302E2D" cx="22.953" cy="29.75" r="3.548"/>
							<path fill="#FFFFFF" d="M24.163,27.791c0.888,0.887-2.326,4.102-3.213,3.215c-0.893-0.888-0.893-2.328,0-3.215
								C21.836,26.902,23.275,26.904,24.163,27.791z"/>
							<circle fill="#302E2D" cx="32.968" cy="29.75" r="3.548"/>
							<path fill="#FFFFFF" d="M34.428,27.603c0.888,0.887-2.326,4.102-3.213,3.213c-0.888-0.887-0.889-2.326,0-3.213
								C32.102,26.715,33.541,26.715,34.428,27.603z"/>
						</g>
						<g>
							<path fill="#231815" d="M32.025,24.875c-0.192,0.045-0.314,0.24-0.271,0.437c0.044,0.197,0.239,0.319,0.435,0.275
								l1.605-0.366c0.19-0.045,0.314-0.24,0.271-0.437c-0.039-0.169-0.188-0.283-0.354-0.283c-0.026,0-0.059,0.003-0.081,0.009
								L32.025,24.875z"/>
							<path fill="#231815" d="M24.291,24.875c0.193,0.045,0.315,0.24,0.271,0.437c-0.045,0.197-0.234,0.319-0.436,0.275
								l-1.604-0.366c-0.191-0.045-0.313-0.24-0.271-0.437c0.039-0.169,0.188-0.283,0.354-0.283c0.026,0,0.06,0.003,0.081,0.009
								L24.291,24.875z"/>
						</g>
					</g>
				</g>
			</g>
		</g>
	</g>
	<g>
		<circle fill="#302E2D" cx="16.113" cy="39.754" r="6.365"/>
		<circle fill="#FF3000" cx="16.179" cy="39.687" r="5.238"/>
		<g enable-background="new    ">
			<path fill="#FFFFFF" d="M14.036,37.508c0-0.142,0.063-0.244,0.189-0.309c0.133-0.063,0.343-0.097,0.631-0.097h1.104
				c0.288,0,0.502,0.004,0.644,0.013c0.146,0.013,0.236,0.03,0.271,0.052l0.032,0.038c0.03,0.026,0.082,0.105,0.142,0.238
				c0.06,0.133,0.137,0.333,0.232,0.6l0.028,0.096c0.063,0.164,0.148,0.414,0.268,0.754c0.103,0.301,0.185,0.537,0.245,0.707
				l0.151,0.457c0.063,0.172,0.092,0.271,0.1,0.277c0.031,0.1,0.065,0.188,0.103,0.264l0.315,0.863
				c0.047,0.111,0.073,0.18,0.09,0.205c0.022,0.049,0.047,0.074,0.063,0.078l0.109,0.059c0.043,0.016,0.075,0.059,0.097,0.129
				c0.021,0.068,0.025,0.17,0.025,0.313V42.3c0,0.134-0.039,0.229-0.116,0.298c-0.077,0.063-0.197,0.096-0.36,0.096h-0.058
				c-0.167,0-0.303-0.021-0.406-0.063c-0.099-0.043-0.178-0.111-0.234-0.207l-0.026-0.051c-0.056-0.102-0.112-0.221-0.167-0.354
				c-0.063-0.148-0.126-0.336-0.2-0.563l-0.019-0.063c-0.103-0.293-0.169-0.51-0.212-0.646c-0.077-0.229-0.148-0.451-0.216-0.655
				L16.72,39.65c-0.018-0.064-0.045-0.152-0.084-0.271c-0.039-0.106-0.066-0.194-0.083-0.264l-0.277-0.837
				c-0.056-0.12-0.114-0.112-0.187,0.021l-0.348,0.882c-0.026,0.063-0.063,0.153-0.104,0.274c-0.043,0.119-0.077,0.211-0.103,0.271
				l-0.188,0.472c-0.086,0.229-0.181,0.463-0.284,0.7c-0.085,0.207-0.189,0.451-0.318,0.733l-0.146,0.325
				c-0.116,0.27-0.245,0.459-0.386,0.58c-0.145,0.113-0.31,0.177-0.496,0.177h-0.058c-0.193,0-0.333-0.032-0.418-0.101
				c-0.088-0.063-0.131-0.16-0.131-0.307V42.26c0-0.15,0.014-0.256,0.031-0.313c0.021-0.063,0.063-0.092,0.116-0.092h0.154
				c0.017,0,0.041-0.021,0.067-0.063c0.03-0.047,0.064-0.123,0.104-0.229l0.386-0.928l0.116-0.275
				c0.039-0.094,0.07-0.172,0.096-0.229l0.284-0.721c0.018-0.06,0.045-0.132,0.083-0.224c0.043-0.104,0.073-0.186,0.09-0.229
				l0.296-0.754c0.034-0.129,0.002-0.203-0.097-0.226H14.5c-0.163,0-0.281-0.034-0.354-0.103c-0.076-0.064-0.115-0.168-0.115-0.31
				V37.51L14.036,37.508L14.036,37.508z"/>
		</g>
	</g>
</g>
<g>
	<g>
		<g>
			<g>
				<g>
					<circle fill="#FF3000" cx="223.805" cy="29.248" r="23.427"/>
					<circle fill="#FFD654" cx="223.804" cy="29.248" r="19.229"/>
				</g>
				<g>
					<g>
						<path fill="#302E2D" d="M236.807,26.744c0,7.268-5.896,13.166-13.167,13.166s-13.165-5.896-13.165-13.166
							c0-7.273,5.896-13.165,13.165-13.165C230.91,13.579,236.807,19.471,236.807,26.744z"/>
					</g>
					<g>
						<path fill="#FFFFFF" d="M235.281,26.744c0,6.425-5.213,11.64-11.642,11.64c-6.429,0-11.639-5.215-11.639-11.64
							c0-6.431,5.212-11.64,11.64-11.64C230.068,15.104,235.281,20.313,235.281,26.744z"/>
					</g>
					<g>
						<path fill="#231815" d="M223.468,34.87c-0.584,0-1.108-0.137-1.448-0.287c-0.188-0.083-0.271-0.304-0.188-0.494
							c0.083-0.19,0.304-0.276,0.488-0.194l0,0c0.075,0.034,1.846,0.778,2.994-0.617c0.132-0.161,0.369-0.183,0.53-0.05
							c0.159,0.133,0.181,0.369,0.049,0.528C225.189,34.609,224.271,34.87,223.468,34.87z"/>
						<g>
							<path fill="none" stroke="#302E2D" stroke-linecap="round" stroke-linejoin="round" stroke-miterlimit="10" d="
								M221.885,27.542c0,0,1.857-2.24,3.825,0"/>
							<circle fill="#302E2D" cx="218.791" cy="27.417" r="3.547"/>
							<path fill="#FFFFFF" d="M220,25.458c0.888,0.887-2.327,4.102-3.214,3.215c-0.893-0.889-0.893-2.328,0-3.215
								C217.673,24.57,219.113,24.571,220,25.458z"/>
							<circle fill="#302E2D" cx="228.806" cy="27.417" r="3.548"/>
							<path fill="#FFFFFF" d="M230.266,25.271c0.888,0.887-2.326,4.102-3.213,3.213c-0.888-0.887-0.89-2.326,0-3.213
								C227.939,24.383,229.379,24.383,230.266,25.271z"/>
						</g>
						<g>
							<path fill="#231815" d="M227.863,22.543c-0.193,0.045-0.314,0.24-0.271,0.437c0.044,0.197,0.239,0.319,0.436,0.275
								l1.605-0.366c0.195-0.045,0.317-0.241,0.271-0.437c-0.04-0.169-0.188-0.284-0.354-0.284c-0.026,0-0.053,0.003-0.082,0.01
								L227.863,22.543z"/>
							<path fill="#231815" d="M220.129,22.543c0.197,0.045,0.32,0.24,0.271,0.437c-0.045,0.197-0.233,0.319-0.435,0.275
								l-1.605-0.366c-0.191-0.045-0.314-0.241-0.271-0.437c0.039-0.169,0.188-0.284,0.354-0.284c0.027,0,0.06,0.003,0.082,0.01
								L220.129,22.543z"/>
						</g>
					</g>
				</g>
			</g>
		</g>
	</g>
	<g>
		<g>
			<polyline points="234.227,46.041 234.17,38.35 235.815,35.688 238.644,35.707 240.294,38.314 240.386,46.048 234.226,46.128 			
				"/>
			<g>
				<polygon fill="#E48220" points="239.7,45.134 234.995,45.145 236.245,42.876 238.442,42.873 				"/>
				<polygon fill="#AA511B" points="239.7,45.134 238.38,42.986 238.363,36.456 239.687,38.604 				"/>
				<polygon fill="#F5B803" points="234.987,45.189 236.263,43.029 236.245,36.477 234.972,38.637 				"/>
				<rect x="236.255" y="36.499" fill="#FAFBC3" width="2.133" height="6.53"/>
			</g>
		</g>
		<g>
			<polyline points="228.229,46.041 228.172,38.35 229.819,35.688 232.646,35.707 234.296,38.314 234.389,46.048 228.226,46.128 			
				"/>
			<g>
				<polygon fill="#E48220" points="233.703,45.134 229,45.145 230.247,42.876 232.445,42.873 				"/>
				<polygon fill="#AA511B" points="233.703,45.134 232.383,42.986 232.365,36.456 233.688,38.604 				"/>
				<polygon fill="#F5B803" points="228.99,45.189 230.266,43.029 230.247,36.477 228.974,38.637 				"/>
				<rect x="230.257" y="36.499" fill="#FAFBC3" width="2.132" height="6.53"/>
			</g>
		</g>
		<g>
			<polyline points="231.437,42.389 231.379,34.697 233.026,32.037 235.854,32.055 237.504,34.663 237.596,42.396 231.436,42.477 
							"/>
			<g>
				<polygon fill="#E48220" points="236.911,41.482 232.206,41.494 233.456,39.225 235.652,39.221 				"/>
				<polygon fill="#AA511B" points="236.911,41.482 235.59,39.333 235.573,32.805 236.897,34.953 				"/>
				<polygon fill="#F5B803" points="232.197,41.539 233.474,39.376 233.456,32.822 232.183,34.984 				"/>
				<rect x="233.466" y="32.848" fill="#FAFBC3" width="2.132" height="6.528"/>
			</g>
		</g>
	</g>
</g>
<g>
	<g>
		<g>
			<g>
				<g>
					<circle fill="#FF3000" cx="126.314" cy="29.248" r="23.427"/>
					<circle fill="#FFD654" cx="126.314" cy="29.248" r="19.228"/>
				</g>
				<g>
					<g>
						<path fill="#302E2D" d="M139.502,26.96c0,7.268-5.897,13.165-13.167,13.165c-7.271,0-13.165-5.896-13.165-13.165
							c0-7.273,5.893-13.165,13.165-13.165C133.605,13.795,139.502,19.687,139.502,26.96z"/>
					</g>
					<g>
						<path fill="#FFFFFF" d="M137.977,26.96c0,6.425-5.214,11.64-11.641,11.64c-6.429,0-11.646-5.213-11.646-11.64
							c0-6.431,5.211-11.64,11.646-11.64C132.763,15.32,137.977,20.529,137.977,26.96z"/>
					</g>
					<g>
						<path fill="#231815" d="M126.163,35.086c-0.584,0-1.107-0.137-1.447-0.287c-0.19-0.083-0.277-0.304-0.192-0.494
							c0.084-0.189,0.309-0.276,0.494-0.194l0,0c0.075,0.034,1.841,0.777,2.994-0.617c0.133-0.161,0.369-0.183,0.529-0.05
							c0.16,0.133,0.182,0.369,0.05,0.528C127.885,34.825,126.966,35.086,126.163,35.086z"/>
						<g>
							<path fill="none" stroke="#302E2D" stroke-linecap="round" stroke-linejoin="round" stroke-miterlimit="10" d="
								M124.58,27.759c0,0,1.854-2.24,3.821,0"/>
							<circle fill="#302E2D" cx="121.486" cy="27.633" r="3.547"/>
							<path fill="#FFFFFF" d="M122.695,25.674c0.893,0.887-2.321,4.103-3.213,3.215c-0.888-0.888-0.888-2.328,0-3.215
								C120.369,24.786,121.809,24.787,122.695,25.674z"/>
							<circle fill="#302E2D" cx="131.501" cy="27.633" r="3.548"/>
							<path fill="#FFFFFF" d="M132.961,25.487c0.888,0.887-2.326,4.101-3.213,3.213c-0.893-0.887-0.894-2.326,0-3.213
								C130.635,24.599,132.074,24.599,132.961,25.487z"/>
						</g>
						<g>
							<path fill="#231815" d="M130.558,22.759c-0.197,0.045-0.319,0.24-0.271,0.438c0.044,0.196,0.234,0.319,0.435,0.273
								l1.605-0.366c0.19-0.045,0.314-0.241,0.271-0.437c-0.039-0.169-0.188-0.284-0.354-0.284c-0.027,0-0.059,0.003-0.082,0.009
								L130.558,22.759z"/>
							<path fill="#231815" d="M122.824,22.759c0.193,0.045,0.315,0.24,0.271,0.438c-0.044,0.196-0.239,0.319-0.436,0.273
								l-1.605-0.366c-0.196-0.045-0.318-0.241-0.271-0.437c0.034-0.169,0.188-0.284,0.354-0.284c0.026,0,0.054,0.003,0.081,0.009
								L122.824,22.759z"/>
						</g>
					</g>
				</g>
			</g>
		</g>
	</g>
	<g>
		<circle fill="#302E2D" cx="115.47" cy="39.583" r="6.365"/>
		<circle fill="#FF3000" cx="115.537" cy="39.517" r="5.238"/>
		<g enable-background="new    ">
			<path fill="#FFFFFF" d="M112.699,39.384h-1.145l-0.479-1.348h1.196L112.699,39.384z M114.472,40.05l-0.813,2.343h-1.144
				l-0.758-2.343H114.472z M115.202,38.039l-0.479,1.346h-1.14l0.419-1.346H115.202z"/>
		</g>
		<g>
			<g enable-background="new    ">
				<path fill="#FFFFFF" d="M115.466,40.316v-2.029c0-0.424,0.027-0.751,0.081-0.982c0.054-0.231,0.143-0.444,0.266-0.64
					c0.192-0.302,0.426-0.532,0.702-0.691c0.276-0.159,0.581-0.238,0.915-0.238c0.347,0,0.662,0.085,0.945,0.254
					c0.283,0.17,0.52,0.417,0.712,0.741c0.104,0.182,0.182,0.393,0.229,0.632c0.053,0.239,0.073,0.535,0.073,0.886v2.097
					c0,0.375-0.021,0.686-0.075,0.93c-0.05,0.246-0.129,0.457-0.233,0.643c-0.188,0.309-0.419,0.541-0.706,0.707
					s-0.604,0.25-0.943,0.25c-0.331,0-0.636-0.08-0.915-0.234c-0.279-0.158-0.518-0.393-0.718-0.691
					c-0.116-0.176-0.2-0.391-0.252-0.646C115.492,41.042,115.466,40.714,115.466,40.316z M116.322,40.492v0.104
					c0,0.219,0.015,0.383,0.032,0.488c0.021,0.104,0.06,0.199,0.106,0.285c0.097,0.174,0.229,0.309,0.396,0.404
					c0.169,0.1,0.354,0.146,0.558,0.146c0.374,0,0.648-0.121,0.836-0.362c0.184-0.242,0.272-0.607,0.272-1.104V38.15
					c0-0.288-0.01-0.486-0.027-0.604c-0.021-0.115-0.061-0.216-0.107-0.304c-0.097-0.176-0.229-0.314-0.402-0.413
					c-0.171-0.099-0.355-0.148-0.563-0.148c-0.2,0-0.383,0.046-0.548,0.139c-0.165,0.093-0.298,0.224-0.398,0.394
					c-0.055,0.091-0.095,0.202-0.118,0.333c-0.021,0.131-0.036,0.328-0.036,0.594L116.322,40.492L116.322,40.492z"/>
			</g>
		</g>
	</g>
</g>
<g>
	<circle fill="#302E2D" cx="212.982" cy="40.033" r="6.364"/>
	<circle fill="#FF3000" cx="213.047" cy="39.967" r="5.238"/>
	<g enable-background="new    ">
		<path fill="#FFFFFF" d="M210.713,39.832h-1.142l-0.479-1.348h1.2L210.713,39.832z M212.487,40.498l-0.814,2.343h-1.14
			l-0.759-2.343H212.487z M213.216,38.486l-0.479,1.347h-1.14l0.419-1.347H213.216z"/>
	</g>
	<g>
		<g enable-background="new    ">
			<path fill="#FFFFFF" d="M214.316,37.265h-0.746v-1.231h1.819v7.149h-0.537h-0.537L214.316,37.265L214.316,37.265z"/>
		</g>
	</g>
</g>
<g>
	<g>
		<g>
			<circle fill="#999999" cx="516.277" cy="29.248" r="23.427"/>
			<circle fill="#EEEEEE" cx="516.277" cy="29.248" r="19.228"/>
		</g>
		<path fill="#999999" d="M523.919,19.088l15.446,14.274c0,0-4.026,14.441-16.959,18.474l-14.944-12.092
			C507.462,39.744,503.768,18.92,523.919,19.088z"/>
		<g>
			<g>
				<circle fill="#302E2D" cx="516.544" cy="29.578" r="13.166"/>
			</g>
			<g>
				<circle fill="#FFFFFF" cx="516.544" cy="29.578" r="11.642"/>
			</g>
			<g>
				<path fill="#231815" d="M516.366,37.704c-0.582,0-1.104-0.138-1.443-0.288c-0.188-0.082-0.272-0.305-0.188-0.495
					c0.084-0.188,0.307-0.274,0.491-0.192l0,0c0.073,0.032,1.843,0.776,2.993-0.617c0.135-0.16,0.369-0.185,0.526-0.051
					c0.159,0.132,0.185,0.369,0.054,0.528C518.093,37.44,517.175,37.704,516.366,37.704z"/>
				<g>
					<path fill="none" stroke="#302E2D" stroke-linecap="round" stroke-linejoin="round" stroke-miterlimit="10" d="M514.785,30.376
						c0,0,1.855-2.24,3.827,0"/>
					<circle fill="#302E2D" cx="511.694" cy="30.251" r="3.547"/>
					<path fill="#FFFFFF" d="M512.904,28.292c0.888,0.887-2.327,4.102-3.214,3.214c-0.89-0.889-0.89-2.327,0-3.214
						C510.574,27.404,512.017,27.404,512.904,28.292z"/>
					<circle fill="#302E2D" cx="521.709" cy="30.251" r="3.547"/>
					<path fill="#FFFFFF" d="M523.171,28.104c0.888,0.888-2.328,4.102-3.218,3.214c-0.889-0.887-0.889-2.326,0-3.214
						C520.843,27.216,522.281,27.216,523.171,28.104z"/>
				</g>
				<g>
					<path fill="#231815" d="M520.766,25.377c-0.194,0.044-0.316,0.241-0.271,0.437s0.237,0.319,0.438,0.274l1.604-0.365
						c0.195-0.046,0.317-0.241,0.271-0.437c-0.039-0.17-0.188-0.284-0.354-0.284c-0.022,0-0.054,0.004-0.081,0.01L520.766,25.377z"
						/>
					<path fill="#231815" d="M513.031,25.377c0.194,0.044,0.317,0.241,0.272,0.437c-0.046,0.196-0.237,0.319-0.438,0.274
						l-1.604-0.365c-0.194-0.046-0.316-0.241-0.272-0.437c0.039-0.17,0.188-0.284,0.354-0.284c0.024,0,0.057,0.004,0.081,0.01
						L513.031,25.377z"/>
				</g>
			</g>
		</g>
		<g>
			<circle fill="#302E2D" cx="504.117" cy="40.398" r="6.365"/>
			<circle fill="#999999" cx="504.186" cy="40.332" r="5.238"/>
			<g enable-background="new    ">
				<path fill="#FFFFFF" d="M501.982,39.811h-1.016l-0.428-1.424h1.066L501.982,39.811z M503.558,40.514l-0.727,2.479h-1.014
					l-0.676-2.479H503.558z M504.204,38.387l-0.426,1.424h-1.015l0.372-1.424H504.204z"/>
				<path fill="#FFFFFF" d="M505.643,39.811h-1.014l-0.428-1.424h1.065L505.643,39.811z M507.219,40.514l-0.727,2.479h-1.014
					l-0.676-2.479H507.219z M507.865,38.387l-0.426,1.424h-1.015l0.372-1.424H507.865z"/>
			</g>
		</g>
	</g>
	<g>
		<g>
			<polyline points="534.509,34.54 531.469,42.414 528.714,44.464 525.837,43.309 525.198,39.98 528.224,32.048 534.544,34.449 			
				"/>
			<g>
				<g>
					<rect x="524.447" y="42.664" transform="matrix(0.931 0.3651 -0.3651 0.931 52.6936 -189.175)" width="4.382" height="4.204"/>
					
						<rect x="525.676" y="44.033" transform="matrix(0.931 0.3649 -0.3649 0.931 52.7191 -189.1292)" fill="#EEEEEE" width="2.141" height="1.767"/>
				</g>
				<polygon fill="#999999" points="528.757,33.336 529.055,35.989 526.44,42.662 526.143,40.009 				"/>
				<polygon fill="#EEEEEE" points="533.388,35.099 531.216,36.792 528.591,43.488 530.765,41.794 				"/>
				
					<rect x="527.66" y="36.11" transform="matrix(0.9307 0.3658 -0.3658 0.9307 51.182 -190.7187)" fill="#EEEEEE" width="2.341" height="7.164"/>
			</g>
		</g>
		<g>
			<g>
				<path d="M536.087,34.69l-6.271,3.324c-0.197,0.104-0.516-0.077-0.586-0.289l-2.327-6.661l0.096-0.38l2.164-1.479
					c0.033-0.081,0.146-0.056,0.271-0.005l6.297,2.484c0.129,0.052,0.227,0.107,0.192,0.189l0.342,2.496L536.087,34.69z"/>
			</g>
			<g>
				<path fill="#EEEEEE" d="M535.354,34.172l-4.888,2.206c-0.153,0.069-0.412-0.073-0.479-0.229l-2.076-4.915l0.063-0.274
					l1.681-1.001c0.021-0.059,0.108-0.037,0.214,0.004l5.104,2.013c0.104,0.041,0.185,0.086,0.16,0.144l0.354,1.826L535.354,34.172z
					"/>
			</g>
			
				<rect x="529.75" y="29.686" transform="matrix(-0.9942 -0.1075 0.1075 -0.9942 1053.3743 123.893)" width="0.554" height="7.723"/>
			
				<rect x="531.985" y="30.571" transform="matrix(0.8019 0.5975 -0.5975 0.8019 126.0135 -311.1835)" width="0.554" height="7.722"/>
			<rect x="531.286" y="28.345" transform="matrix(0.3676 -0.93 0.93 0.3676 305.8227 515.031)" width="0.619" height="8.62"/>
		</g>
	</g>
	<g>
		<polygon fill="#FFFFFF" stroke="#231815" stroke-miterlimit="10" points="516.797,15.537 518.246,18.255 521.492,16.595 
			519.146,20.808 514.448,20.808 512.1,16.595 515.346,18.255 		"/>
		<circle fill="#FFFFFF" stroke="#231815" stroke-miterlimit="10" cx="516.76" cy="14.484" r="1.315"/>
		<circle fill="#FFFFFF" stroke="#231815" stroke-miterlimit="10" cx="521.758" cy="16.063" r="1.315"/>
		<circle fill="#FFFFFF" stroke="#231815" stroke-miterlimit="10" cx="511.759" cy="16.063" r="1.316"/>
	</g>
</g>
<g>
	<g>
		<g>
			<g>
				<g>
					<circle fill="#999999" cx="321.295" cy="29.248" r="23.427"/>
					<circle fill="#EEEEEE" cx="321.294" cy="29.248" r="19.228"/>
				</g>
				<path fill="#999999" d="M328.602,15.561l15.45,14.274c0,0-4.028,14.442-16.962,18.474l-14.945-12.092
					C312.145,36.217,308.448,15.393,328.602,15.561z"/>
				<g>
					<g>
						<path fill="#302E2D" d="M334.012,26.442c0,7.267-5.896,13.166-13.167,13.166c-7.271,0-13.164-5.896-13.164-13.166
							c0-7.273,5.896-13.166,13.164-13.166C328.115,13.276,334.012,19.169,334.012,26.442z"/>
					</g>
					<g>
						<path fill="#FFFFFF" d="M332.486,26.442c0,6.425-5.213,11.64-11.644,11.64c-6.432,0-11.643-5.214-11.643-11.64
							c0-6.431,5.211-11.64,11.643-11.64C327.273,14.802,332.486,20.012,332.486,26.442z"/>
					</g>
					<g>
						<path fill="#231815" d="M320.672,34.568c-0.583,0-1.105-0.138-1.446-0.287c-0.188-0.085-0.274-0.305-0.19-0.495
							c0.083-0.189,0.308-0.273,0.494-0.191l0,0c0.073,0.031,1.841,0.775,2.992-0.619c0.134-0.159,0.368-0.182,0.528-0.05
							c0.16,0.132,0.184,0.368,0.051,0.528C322.396,34.306,321.476,34.568,320.672,34.568z"/>
						<g>
							<path fill="none" stroke="#302E2D" stroke-linecap="round" stroke-linejoin="round" stroke-miterlimit="10" d="
								M319.091,27.24c0,0,1.854-2.239,3.825,0"/>
							<circle fill="#302E2D" cx="315.994" cy="27.115" r="3.547"/>
							<path fill="#FFFFFF" d="M317.202,25.156c0.892,0.888-2.322,4.102-3.212,3.215c-0.891-0.888-0.891-2.327,0-3.215
								C314.88,24.268,316.318,24.269,317.202,25.156z"/>
							<circle fill="#302E2D" cx="326.012" cy="27.115" r="3.547"/>
							<path fill="#FFFFFF" d="M327.471,24.968c0.891,0.887-2.326,4.102-3.213,3.214c-0.891-0.888-0.892-2.327,0-3.214
								C325.145,24.081,326.584,24.081,327.471,24.968z"/>
						</g>
						<g>
							<path fill="#231815" d="M325.068,22.241c-0.198,0.046-0.315,0.241-0.272,0.438c0.046,0.196,0.237,0.319,0.438,0.275
								l1.604-0.366c0.191-0.045,0.315-0.241,0.271-0.437c-0.039-0.17-0.188-0.284-0.354-0.284c-0.028,0-0.058,0.003-0.082,0.009
								L325.068,22.241z"/>
							<path fill="#231815" d="M317.335,22.241c0.194,0.046,0.315,0.241,0.271,0.438c-0.047,0.196-0.238,0.319-0.438,0.275
								l-1.604-0.366c-0.195-0.045-0.316-0.241-0.271-0.437c0.039-0.17,0.188-0.284,0.354-0.284c0.025,0,0.056,0.003,0.082,0.009
								L317.335,22.241z"/>
						</g>
					</g>
				</g>
			</g>
		</g>
	</g>
	<g>
		<circle fill="#302E2D" cx="310.448" cy="39.583" r="6.365"/>
		<circle fill="#999999" cx="310.518" cy="39.516" r="5.238"/>
		<g enable-background="new    ">
			<path fill="#FFFFFF" d="M308.182,39.384h-1.141l-0.479-1.347h1.198L308.182,39.384z M309.953,40.05l-0.813,2.343H308
				l-0.761-2.343H309.953z M310.685,38.038l-0.479,1.347h-1.141l0.419-1.347H310.685z"/>
		</g>
		<g>
			<g enable-background="new    ">
				<path fill="#FFFFFF" d="M313.997,41.916v0.816h-3.821c-0.005-0.205,0.021-0.401,0.083-0.59c0.1-0.313,0.253-0.619,0.468-0.92
					c0.216-0.307,0.523-0.652,0.931-1.052c0.629-0.612,1.054-1.104,1.272-1.465c0.222-0.358,0.331-0.701,0.331-1.022
					c0-0.336-0.103-0.62-0.304-0.852c-0.199-0.231-0.463-0.347-0.785-0.347c-0.344,0-0.615,0.123-0.82,0.368
					s-0.31,0.585-0.313,1.019l-0.729-0.09c0.052-0.651,0.237-1.147,0.563-1.489c0.326-0.341,0.767-0.512,1.313-0.512
					c0.557,0,0.994,0.184,1.317,0.552c0.321,0.368,0.483,0.824,0.483,1.368c0,0.277-0.05,0.549-0.145,0.813
					c-0.097,0.271-0.252,0.549-0.474,0.848c-0.219,0.296-0.584,0.699-1.094,1.218c-0.429,0.429-0.7,0.719-0.821,0.871
					c-0.12,0.149-0.221,0.306-0.3,0.46h2.839v0.004L313.997,41.916L313.997,41.916z"/>
			</g>
		</g>
	</g>
	<g>
		<g>
			<polyline points="331.745,46.416 331.688,38.725 333.334,36.064 336.162,36.082 337.813,38.689 337.904,46.423 331.744,46.503 
							"/>
			<g>
				<polygon fill="#8C8C8C" points="337.221,45.509 332.517,45.52 333.766,43.251 335.96,43.248 				"/>
				<polygon fill="#4C4C4C" points="337.221,45.509 335.898,43.361 335.882,36.832 337.205,38.979 				"/>
				<polygon fill="#C4C4C4" points="332.507,45.566 333.781,43.404 333.766,36.85 332.49,39.012 				"/>
				<rect x="333.774" y="36.874" fill="#FFFFFF" width="2.135" height="6.53"/>
			</g>
		</g>
		<g>
			<polyline points="325.698,46.416 325.641,38.725 327.29,36.064 330.116,36.082 331.766,38.689 331.858,46.423 325.698,46.503 			
				"/>
			<g>
				<polygon fill="#8C8C8C" points="331.175,45.509 326.47,45.52 327.72,43.251 329.915,43.248 				"/>
				<polygon fill="#4C4C4C" points="331.175,45.509 329.853,43.361 329.837,36.832 331.158,38.979 				"/>
				<polygon fill="#C4C4C4" points="326.46,45.566 327.736,43.404 327.72,36.85 326.444,39.012 				"/>
				<rect x="327.728" y="36.874" fill="#FFFFFF" width="2.134" height="6.53"/>
			</g>
		</g>
		<g>
			<polyline points="328.946,42.889 328.888,35.197 330.536,32.537 333.363,32.557 335.014,35.164 335.105,42.896 328.945,42.977 
							"/>
			<g>
				<polygon fill="#8C8C8C" points="334.422,41.984 329.718,41.994 330.967,39.725 333.162,39.721 				"/>
				<polygon fill="#4C4C4C" points="334.422,41.984 333.1,39.833 333.084,33.305 334.406,35.453 				"/>
				<polygon fill="#C4C4C4" points="329.707,42.041 330.982,39.878 330.967,33.322 329.691,35.484 				"/>
				<rect x="330.975" y="33.348" fill="#FFFFFF" width="2.135" height="6.528"/>
			</g>
		</g>
	</g>
</g>
<g>
	<g>
		<g>
			<g>
				<g>
					<g>
						<circle fill="#999999" cx="418.784" cy="29.248" r="23.427"/>
						<circle fill="#EEEEEE" cx="418.783" cy="29.248" r="19.229"/>
					</g>
					<path fill="#999999" d="M426.093,15.562l15.451,14.274c0,0-4.031,14.441-16.965,18.473l-14.943-12.09
						C409.636,36.218,405.94,15.394,426.093,15.562z"/>
					<g>
						<g>
							<path fill="#302E2D" d="M432.358,27.179c0,7.27-5.896,13.165-13.165,13.165c-7.271,0-13.166-5.896-13.166-13.165
								c0-7.271,5.896-13.165,13.166-13.165C426.463,14.014,432.358,19.906,432.358,27.179z"/>
						</g>
						<g>
							<path fill="#FFFFFF" d="M430.83,27.179c0,6.425-5.213,11.64-11.64,11.64c-6.433,0-11.644-5.212-11.644-11.64
								c0-6.431,5.211-11.64,11.644-11.64C425.617,15.54,430.83,20.748,430.83,27.179z"/>
						</g>
						<g>
							<path fill="#231815" d="M419.019,35.306c-0.583,0-1.104-0.137-1.444-0.287c-0.188-0.084-0.272-0.304-0.188-0.494
								c0.083-0.189,0.307-0.275,0.493-0.192l0,0c0.072,0.033,1.841,0.777,2.99-0.619c0.137-0.159,0.369-0.181,0.529-0.05
								c0.159,0.133,0.183,0.369,0.051,0.528C420.74,35.043,419.822,35.306,419.019,35.306z"/>
							<g>
								<path fill="none" stroke="#302E2D" stroke-linecap="round" stroke-linejoin="round" stroke-miterlimit="10" d="
									M417.438,27.978c0,0,1.856-2.24,3.825,0"/>
								<circle fill="#302E2D" cx="414.344" cy="27.852" r="3.547"/>
								<path fill="#FFFFFF" d="M415.552,25.893c0.89,0.888-2.325,4.103-3.212,3.215c-0.891-0.889-0.891-2.327,0-3.215
									C413.227,25.005,414.662,25.006,415.552,25.893z"/>
								<circle fill="#302E2D" cx="424.359" cy="27.852" r="3.547"/>
								<path fill="#FFFFFF" d="M425.818,25.706c0.888,0.887-2.326,4.102-3.213,3.213c-0.89-0.887-0.892-2.326,0-3.213
									C423.49,24.818,424.932,24.818,425.818,25.706z"/>
							</g>
							<g>
								<path fill="#231815" d="M423.412,22.979c-0.195,0.045-0.315,0.24-0.271,0.438c0.045,0.196,0.239,0.318,0.438,0.274
									l1.604-0.365c0.191-0.046,0.315-0.241,0.271-0.437c-0.037-0.169-0.188-0.284-0.354-0.284c-0.024,0-0.054,0.003-0.081,0.01
									L423.412,22.979z"/>
								<path fill="#231815" d="M415.682,22.979c0.197,0.045,0.319,0.24,0.271,0.438c-0.045,0.196-0.236,0.318-0.438,0.274
									l-1.604-0.365c-0.192-0.046-0.314-0.241-0.271-0.437c0.039-0.169,0.188-0.284,0.354-0.284c0.027,0,0.059,0.003,0.082,0.01
									L415.682,22.979z"/>
							</g>
						</g>
					</g>
				</g>
			</g>
		</g>
	</g>
	<g>
		<g>
			<path fill="#231815" d="M437.675,38.316l-7.188,8.41c-0.228,0.266-0.788,0.184-1.016-0.082l-7.189-8.328l-0.079-0.609
				l2.295-3.381c0-0.139,0.179-0.164,0.393-0.164h10.557c0.215,0,0.389,0.025,0.389,0.164l1.928,3.423L437.675,38.316z"/>
		</g>
		<g>
			<path fill="#EEEEEE" d="M436.314,38.408l-5.827,6.852c-0.186,0.217-0.643,0.15-0.822-0.063l-5.825-6.785l-0.063-0.497
				l1.859-2.758c0-0.111,0.143-0.132,0.313-0.132h8.557c0.173,0,0.313,0.021,0.313,0.132l1.563,2.792L436.314,38.408z"/>
		</g>
		
			<rect x="427.815" y="34.13" transform="matrix(-0.9643 0.2647 -0.2647 -0.9643 851.8461 -34.5022)" fill="#231815" width="0.867" height="12.043"/>
		
			<rect x="431.492" y="34.12" transform="matrix(0.9647 0.2632 -0.2632 0.9647 25.7961 -112.2726)" fill="#231815" width="0.864" height="12.042"/>
		<rect x="423.198" y="37.452" fill="#231815" width="13.443" height="0.965"/>
	</g>
	<g>
		<circle fill="#302E2D" cx="407.643" cy="40.524" r="6.365"/>
		<circle fill="#999999" cx="407.709" cy="40.459" r="5.238"/>
		<g enable-background="new    ">
			<path fill="#FFFFFF" d="M405.375,40.326h-1.142l-0.479-1.348h1.198L405.375,40.326z M407.149,40.992l-0.813,2.342h-1.142
				l-0.761-2.342H407.149z M407.878,38.979l-0.479,1.351h-1.143l0.419-1.351H407.878z"/>
		</g>
		<g>
			<g enable-background="new    ">
				<path fill="#FFFFFF" d="M407.803,37.763h2.58c0.299,0,0.521,0.055,0.676,0.164c0.15,0.109,0.229,0.271,0.229,0.483
					c0,0.115-0.023,0.229-0.074,0.337c-0.053,0.108-0.123,0.205-0.22,0.289l-1.251,1.178c0.623,0.009,1.104,0.173,1.441,0.49
					s0.508,0.769,0.508,1.349c0,0.563-0.184,1.016-0.547,1.365c-0.362,0.35-0.84,0.523-1.426,0.523h-2.066v-0.819h1.813
					c0.439,0,0.775-0.097,1.01-0.289c0.231-0.192,0.352-0.47,0.352-0.828c0-0.334-0.107-0.599-0.328-0.792
					c-0.219-0.193-0.52-0.291-0.896-0.291h-1.097v-0.564l1.935-1.813h-2.633v-0.781L407.803,37.763L407.803,37.763z"/>
			</g>
		</g>
	</g>
</g>
</svg>
