<svg id="圖層_1" data-name="圖層 1" xmlns="http://www.w3.org/2000/svg" viewBox="0 0 40 40"><defs><style>.cls-1{fill:#d8d8d8;}.cls-2{fill:#aaa;}.cls-3{fill:#4d4d4d;}</style></defs><title>feed-good-gray</title><circle class="cls-1" cx="20" cy="20" r="20"/><ellipse class="cls-2" cx="36" cy="25" rx="2.5" ry="1"/><ellipse class="cls-2" cx="4" cy="25" rx="2.5" ry="1"/><circle class="cls-3" cx="10.5" cy="17.33" r="3.5"/><circle class="cls-3" cx="29.5" cy="17.33" r="3.5"/><path class="cls-3" d="M30.66,24.49a.83.83,0,0,1,.82.9,11.52,11.52,0,0,1-23,0,.83.83,0,0,1,.82-.9h0a.81.81,0,0,1,.82.74c.38,5.09,4.65,8.13,9.84,8.13s9.46-3,9.84-8.13a.81.81,0,0,1,.82-.74Z"/></svg>