<svg id="圖層_1" data-name="圖層 1" xmlns="http://www.w3.org/2000/svg" viewBox="0 0 40 40"><defs><style>.cls-1{fill:#d8d8d8;}.cls-2{fill:#aaa;}.cls-3{fill:#4d4d4d;}.cls-4{fill:#484848;}.cls-5{fill:#8a8a8a;}</style></defs><title>feed-terrible-gray</title><circle class="cls-1" cx="20" cy="20" r="20"/><ellipse class="cls-2" cx="36" cy="25" rx="2.5" ry="1"/><ellipse class="cls-2" cx="4" cy="25" rx="2.5" ry="1"/><path class="cls-3" d="M11.32,21.32c-3.09,0-5.16-1.77-5.16-4.42a4.22,4.22,0,0,1,4.22-4.22,3.48,3.48,0,0,1,3.49,3.48,2.9,2.9,0,0,1-2.9,2.9,2.43,2.43,0,0,1-2.44-2.43,2.08,2.08,0,0,1,2.08-2.08.7.7,0,0,1,0,1.4.68.68,0,0,0-.68.68,1,1,0,0,0,1,1,1.5,1.5,0,0,0,1.5-1.5,2.09,2.09,0,0,0-2.09-2.08A2.83,2.83,0,0,0,7.56,16.9c0,2.23,1.94,3,3.76,3,2.26,0,3.51-1.49,3.51-4.2a.7.7,0,0,1,1.4,0C16.23,19.17,14.35,21.32,11.32,21.32Z"/><path class="cls-3" d="M29.62,21.32a3.48,3.48,0,0,1-3.49-3.48,2.9,2.9,0,0,1,2.9-2.9,2.43,2.43,0,0,1,2.44,2.43,2.08,2.08,0,0,1-2.08,2.08.7.7,0,0,1,0-1.4.68.68,0,0,0,.68-.68,1,1,0,0,0-1-1,1.5,1.5,0,0,0-1.5,1.5,2.09,2.09,0,0,0,2.09,2.08,2.83,2.83,0,0,0,2.82-2.82c0-2.23-1.94-3-3.76-3-2.26,0-3.51,1.49-3.51,4.2a.7.7,0,0,1-1.4,0c0-3.46,1.88-5.6,4.91-5.6s5.16,1.77,5.16,4.42A4.22,4.22,0,0,1,29.62,21.32Z"/><path class="cls-4" d="M9.5,31.09c0-6.08,4.92-9,11-9s11,2.92,11,9-4.92,1-11,1S9.5,37.16,9.5,31.09Z"/><path class="cls-5" d="M20.5,32.09a16.69,16.69,0,0,1,5,.91,5,5,0,0,0-10,0A16.69,16.69,0,0,1,20.5,32.09Z"/></svg>