<svg id="圖層_1" data-name="圖層 1" xmlns="http://www.w3.org/2000/svg" viewBox="0 0 40 40"><defs><style>.cls-1{fill:#fbd971;}.cls-2{fill:#802d40;}.cls-3{fill:#e9625e;}.cls-4{fill:#ff9e00;}.cls-5{fill:#73431a;}</style></defs><title>feed-great</title><circle class="cls-1" cx="20" cy="20" r="20"/><path class="cls-2" d="M29.16,25.5a2.85,2.85,0,0,1,2.6,4.07C29.82,33.35,25.29,36,20,36s-9.82-2.65-11.76-6.43a2.85,2.85,0,0,1,2.6-4.07Z"/><path class="cls-3" d="M29.18,31.92C27.4,29.59,24,28,20,28s-7.4,1.59-9.18,3.92A12.93,12.93,0,0,0,20,35.5,12.93,12.93,0,0,0,29.18,31.92Z"/><ellipse class="cls-4" cx="36" cy="25" rx="2.5" ry="1"/><ellipse class="cls-4" cx="4" cy="25" rx="2.5" ry="1"/><path class="cls-5" d="M15,19.83a1,1,0,0,1-1-1,3,3,0,0,0-6,0,1,1,0,0,1-2,0,5,5,0,0,1,10,0A1,1,0,0,1,15,19.83Z"/><path class="cls-5" d="M33,19.83a1,1,0,0,1-1-1,3,3,0,0,0-6,0,1,1,0,0,1-2,0,5,5,0,0,1,10,0A1,1,0,0,1,33,19.83Z"/></svg>