<?xml version="1.0" encoding="utf-8"?>
<!-- Generator: Adobe Illustrator 16.0.0, SVG Export Plug-In . SVG Version: 6.00 Build 0)  -->
<svg version="1.2" baseProfile="tiny" id="圖層_1"
	 xmlns="http://www.w3.org/2000/svg" xmlns:xlink="http://www.w3.org/1999/xlink" x="0px" y="0px" width="351.051px"
	 height="387.766px" viewBox="0 28.766 351.051 387.766" xml:space="preserve">
<g>
	<path fill="#A10200" d="M151.953,165.087c0,8.078-6.549,14.626-14.626,14.626H23.974c-8.077,0-14.625-6.548-14.625-14.626V51.734
		c0-8.078,6.548-14.626,14.625-14.626h113.354c8.077,0,14.626,6.548,14.626,14.626L151.953,165.087L151.953,165.087z"/>
	<g>
		<path fill="#A10200" d="M94.49,71.654L82.469,97.42c-0.434,0.911-1.052,1.606-1.854,2.083c-0.802,0.478-1.723,0.716-2.763,0.716
			c-1.063,0-1.988-0.229-2.778-0.683c-0.792-0.456-1.402-1.162-1.837-2.116l-6.483-14.182h7.183l3.362,7.395
			c0.108,0.259,0.293,0.39,0.555,0.39c0.302,0,0.488-0.131,0.553-0.39l8.904-18.979H94.49z"/>
	</g>
</g>
<g>
	<path fill="#A10200" d="M344.693,165.087c0,8.078-6.549,14.626-14.626,14.626H216.715c-8.076,0-14.627-6.548-14.627-14.626V51.734
		c0-8.078,6.551-14.626,14.627-14.626h113.354c8.077,0,14.626,6.548,14.626,14.626L344.693,165.087L344.693,165.087z"/>
</g>
<g>
	<path fill="#A10200" d="M42.049,192.602v5.388h6.842v-8.384h1.966v8.384h4.338v1.967h-4.338v10.262h-1.966v-10.261H41.96
		c-0.357,4.405-2.281,7.757-5.678,10.06l-1.543-1.497c3.085-1.699,4.851-4.583,5.231-8.563h-4.987v-1.968h5.075v-4.875l-4.471,0.872
		l-0.67-1.922c4.65-0.648,8.228-1.542,10.709-2.683l0.804,1.811c-1.207,0.47-2.548,0.917-4.069,1.297L42.049,192.602z"/>
	<path fill="#A10200" d="M59.914,209.011v0.983h-1.99v-17.236c0-0.447,0.224-0.671,0.67-0.671h5.792
		c0.469-1.028,0.783-1.878,0.983-2.548l1.789,0.648l-0.648,1.9h8.519c0.447,0,0.693,0.224,0.693,0.671v17.236h-1.991v-0.983H59.914z
		 M73.731,194.278c0-0.201-0.09-0.291-0.291-0.291H60.204c-0.224,0-0.313,0.112-0.292,0.291v5.321h13.818V194.278z M59.914,207.11
		h13.817V201.5H59.914V207.11z"/>
	<path fill="#A10200" d="M98.456,196.96c-3.466-1.43-6.528-3.264-9.188-5.455c-1.788,1.788-4.942,3.622-9.412,5.5l-1.05-1.812
		c5.097-1.721,8.451-3.645,9.972-5.791l1.833,0.38l-0.268,0.38c2.617,2.192,5.7,3.868,9.234,5.009L98.456,196.96z M88.283,207.714
		v-5.521h-8.697v-1.901h8.697v-2.638h-5.121v-1.9h12.164v1.9h-5.165v2.638h8.652v1.901h-8.652v5.521h8.831v1.9H79.408v-1.9H88.283z
		 M83.522,207.513c-0.85-1.766-1.654-3.129-2.371-4.092l1.633-1.006c0.827,1.073,1.632,2.458,2.436,4.18L83.522,207.513z
		 M92.957,206.351c0.939-1.251,1.833-2.593,2.571-3.935l1.543,1.095c-0.961,1.587-1.879,2.951-2.661,4.001L92.957,206.351z"/>
	<path fill="#A10200" d="M121.258,194.814c-1.653-0.335-3.621-0.872-5.857-1.609v1.163h-7.602v-1.185
		c-1.699,0.559-3.666,1.095-5.946,1.564l-0.648-1.811c4.942-0.648,8.362-1.833,10.15-3.487l1.587,0.671l-0.157,0.157
		c2.84,1.431,5.903,2.348,9.167,2.727L121.258,194.814z M120.119,200.762c0,0.157-0.09,0.247-0.247,0.247h-16.679
		c-0.157,0-0.246-0.09-0.246-0.247v-5.254c0-0.157,0.089-0.224,0.246-0.224h16.679c0.157,0,0.247,0.067,0.247,0.224V200.762z
		 M106.191,209.235v0.806h-1.812v-7.624c-0.022-0.179,0.067-0.291,0.291-0.291h13.907c0.246,0,0.38,0.112,0.38,0.358v7.556h-1.811
		v-0.805H106.191L106.191,209.235z M107.866,197.028c0.425,0.626,0.85,1.408,1.23,2.348h1.61v-2.459h-5.97
		c-0.067,0-0.089,0.022-0.067,0.068v2.302l0.067,0.089h2.437l-0.85-1.521L107.866,197.028z M106.191,204.92h10.955v-1.005
		c0-0.157-0.089-0.247-0.269-0.247h-10.441c-0.179,0-0.269,0.09-0.246,0.247L106.191,204.92L106.191,204.92z M117.144,206.463
		H106.19v1.207h10.955V206.463z M114.282,192.735l-2.772-1.364c-0.491,0.313-1.34,0.805-2.571,1.364H114.282z M116.988,198.035
		l-0.827,1.341h2.146l0.089-0.089v-2.302l-0.089-0.068h-5.857v2.459h1.52c0.693-0.894,1.23-1.677,1.543-2.303L116.988,198.035z"/>
	<path fill="#A10200" d="M123.76,208.429c2.259-0.223,4.584-0.715,6.999-1.385l0.358,1.856c-2.526,0.625-4.896,1.117-7.132,1.407
		L123.76,208.429z M142.652,206.641c0,0.179-0.089,0.269-0.268,0.269h-16.835c-0.157,0-0.246-0.09-0.246-0.269v-10.53
		c0-0.179,0.089-0.268,0.246-0.268h16.835c0.179,0,0.268,0.089,0.268,0.268V206.641z M141.959,194.546
		c0,0.179-0.09,0.268-0.269,0.268h-15.807c-0.156,0-0.245-0.089-0.245-0.268v-4.181c0-0.157,0.089-0.246,0.245-0.246h15.807
		c0.179,0,0.269,0.089,0.269,0.246V194.546z M140.751,203.668h-13.548v1.409c-0.022,0.066,0,0.089,0.067,0.111h13.392l0.089-0.111
		V203.668z M127.203,199.063h13.548v-1.408c0-0.067-0.021-0.089-0.089-0.089H127.27c-0.067,0-0.091,0.022-0.067,0.089V199.063z
		 M127.203,202.125h13.548v-1.498h-13.548V202.125z M140.058,191.841c0-0.067-0.021-0.089-0.089-0.089h-12.364
		c-0.065,0-0.089,0.022-0.065,0.089v1.229c-0.022,0.067,0,0.089,0.065,0.112h12.364l0.089-0.112V191.841z M143.748,210.307
		c-2.325-0.67-4.584-1.117-6.773-1.318l0.425-1.856c2.973,0.425,5.254,0.917,6.863,1.386L143.748,210.307z"/>
</g>
<g>
	<path fill="#A10200" d="M228.109,198.57c2.033-1.789,3.556-3.912,4.515-6.327l1.835,0.783c-1.386,3.063-2.973,5.322-4.695,6.774
		L228.109,198.57z M246.039,198.079c0.023,0.247,0.044,0.716,0.044,1.409c0,0.804-0.02,1.877-0.065,3.263
		c-0.09,2.729-0.424,4.517-0.894,5.321c-0.806,1.297-1.991,1.901-3.823,1.901c-1.162,0-2.571-0.247-4.181-0.739l0.135-2.168
		c1.677,0.56,3.017,0.85,4.002,0.85c1.878,0,2.482-1.117,2.659-3.844c0.092-1.431,0.112-2.526,0.112-3.264
		c0-0.693-0.021-1.096-0.089-1.208l-0.201-0.066h-5.411c-0.358,1.654-0.85,3.151-1.497,4.405c-1.343,2.28-3.78,4.405-7.288,6.259
		l-1.387-1.609c1.229-0.514,2.393-1.185,3.511-1.989c2.592-1.722,4.18-4.092,4.672-7.065h-4.247v-1.99h13.301l0.247,0.045
		c-0.984-1.296-2.035-3.197-3.13-5.679c-0.045-0.134-0.135-0.2-0.313-0.2h-6.527v-1.9h7.423c0.245,0,0.401,0.134,0.536,0.38
		c1.543,3.621,3.397,6.348,5.522,8.16l-1.79,1.163L246.039,198.079z"/>
	<path fill="#A10200" d="M260.055,190.768v-1.341h1.967v1.341h8.966v1.722h-19.942v-1.722H260.055z M264.214,205.635
		c0.179,0.47,0.269,0.963,0.269,1.409c0,0.626-0.179,1.498-0.871,2.191c-0.986,0.761-2.236,1.141-3.779,1.141
		c-1.432,0-3.109-0.335-5.03-1.027l-0.067-2.036c2.058,0.761,3.511,1.117,4.986,1.117c2.303,0,2.816-1.028,2.816-1.542
		c0-0.357-0.223-0.782-0.603-1.252h-10.888v-1.81h8.406l-0.537-0.291l1.027-1.632l0.985,0.625c2.167-0.625,3.778-1.163,4.761-1.654
		h-12.878v-1.723h15.07l0.962,1.475c-1.319,1.163-3.398,2.213-6.193,3.153l0.044,0.044h8.206v1.811H264.214L264.214,205.635z
		 M268.975,197.967c0,0.156-0.089,0.246-0.269,0.246H253.26c-0.156,0-0.247-0.09-0.247-0.246v-4.114
		c0-0.156,0.091-0.246,0.247-0.246h15.447c0.18,0,0.269,0.089,0.269,0.246V197.967L268.975,197.967z M267.075,195.329
		c0-0.044-0.021-0.066-0.089-0.066h-12.008c-0.064,0-0.089,0.022-0.064,0.066v1.14c-0.023,0.067,0,0.089,0.064,0.112h12.008
		l0.089-0.112V195.329z"/>
	<path fill="#A10200" d="M275.883,198.326c-1.163-1.164-2.169-1.99-3.019-2.527l1.207-1.475c0.938,0.581,1.968,1.453,3.087,2.571
		L275.883,198.326z M275.369,206.149v-4.382c0-0.179-0.091-0.268-0.247-0.268h-2.034v-1.901h3.712c0.313,0,0.47,0.156,0.47,0.469
		v5.5c0.089,0.425,0.333,0.85,0.737,1.297c0.401,0.491,1.14,0.916,2.19,1.273c0.536,0.112,1.654,0.179,3.332,0.179
		c2.303,0,5.678-0.112,10.127-0.335l-0.425,2.146l-10.999,0.044c-2.818-0.111-4.718-0.916-5.68-2.415
		c-0.225,0.739-1.432,2.08-2.615,2.571l-1.008-1.676c1.028-0.492,1.722-0.984,2.059-1.453L275.369,206.149z M276.24,193.607
		c-1.184-1.118-2.169-1.923-3.018-2.415l1.162-1.52c0.939,0.581,1.991,1.408,3.106,2.481L276.24,193.607z M281.07,203.243
		c-0.136,0.85-0.693,2.079-1.655,3.6l-1.586-0.738c1.251-1.766,1.944-3.555,2.056-5.343h-1.766v-1.654h3.018v-1.14h-2.571
		c-0.157,0-0.224-0.089-0.224-0.246v-6.596c0-0.156,0.066-0.224,0.224-0.224h2.594l0.379-1.408l1.699,0.469l-0.224,0.939h3.019
		c0.155,0,0.223,0.067,0.223,0.224v6.596c0,0.157-0.067,0.246-0.223,0.246h-3.175v1.14h3.846v1.654h-5.165l-0.11,0.917h4.604
		c0.403,0.089,0.604,0.134,0.604,0.895l-0.09,2.526c-0.066,1.251-0.581,2.348-2.548,2.348c-0.694,0-1.543-0.113-2.527-0.336v-1.922
		c0.85,0.358,1.565,0.514,2.146,0.514c1.363,0,1.363-0.581,1.363-1.766c0-0.514-0.021-0.693-0.268-0.693H281.07z M280.064,193.697
		h4.472v-1.251l-0.09-0.068h-4.315c-0.066,0-0.09,0.023-0.066,0.068V193.697L280.064,193.697z M284.535,195.172h-4.472v1.229
		l0.066,0.089h4.315l0.09-0.089V195.172L284.535,195.172z M286.569,206.731c1.253-0.961,2.349-2.37,3.219-4.181
		c-0.581-1.586-0.982-3.397-1.228-5.41l-0.582,1.431l-1.744-0.402c1.275-2.772,1.854-5.612,1.789-8.496h1.721l-0.089,1.922h4.114
		v1.655h-0.783c0,1.699,0,4.83-1.565,9.479c0.403,1.005,1.207,2.504,2.37,4.404l-1.632,0.604c-0.626-1.073-1.162-2.124-1.61-3.13
		c-0.268,0.738-1.117,1.834-2.526,3.198L286.569,206.731z M289.633,193.25c0.11,2.325,0.335,4.315,0.692,5.924l0.268,1.163
		c0.582-2.192,0.851-4.517,0.851-7.087H289.633z"/>
	<path fill="#A10200" d="M295.488,193.093h7.288v1.811h-7.288V193.093z M297.746,209.011v0.604h-1.811v-7.534
		c0-0.358,0.201-0.559,0.56-0.559h5.478c0.38,0,0.581,0.201,0.581,0.559v6.305c0,0.425-0.201,0.625-0.603,0.625H297.746
		L297.746,209.011z M296.205,195.977h6.034v1.811h-6.034V195.977z M296.205,198.861h6.034v1.811h-6.034V198.861z M296.294,190.298
		h5.767v1.812h-5.767V190.298z M300.742,203.534c0-0.202-0.111-0.291-0.313-0.291h-2.391c-0.202,0-0.292,0.089-0.292,0.291v3.756
		h2.616c0.247,0,0.38-0.135,0.38-0.38V203.534z M308.635,196.2v-1.072h-4.136v-1.722h4.136v-1.073h-4.741v-1.722h4.741v-1.095h1.899
		v1.095h5.075v1.722h-5.075v1.073h4.383v1.722h-4.383v1.072h5.501v1.722h-12.678V196.2H308.635z M306.174,206.262v3.778h-1.899
		v-10.686c0-0.313,0.156-0.447,0.471-0.447h10.149c0.291,0,0.446,0.134,0.446,0.447v8.741c0,1.565-1.185,2.235-2.816,2.235
		c-0.627,0-1.364-0.089-2.191-0.268l-0.09-2.124c0.917,0.269,1.61,0.38,2.104,0.38c1.095,0,1.095-0.917,1.095-0.984v-1.073
		L306.174,206.262L306.174,206.262z M306.174,201.813h7.269v-1.051c0-0.089-0.045-0.134-0.157-0.134h-6.975
		c-0.09,0-0.137,0.045-0.137,0.134V201.813z M306.174,204.607h7.269v-1.14h-7.269V204.607z"/>
	<path fill="#A10200" d="M321.622,208.475v0.874H319.9v-8.608l-0.446,0.917l-1.879-0.559c1.476-2.884,2.325-5.835,2.504-8.809
		h-2.058v-1.811h6.842v1.811h-2.996c-0.156,1.877-0.379,3.488-0.737,4.851h3.331c0.38,0,0.581,0.179,0.581,0.559v10.195
		c0,0.402-0.201,0.581-0.604,0.581H321.622z M323.32,199.151c0-0.179-0.11-0.269-0.313-0.269h-1.096
		c-0.201,0-0.291,0.09-0.291,0.269v7.602h1.341c0.247,0,0.357-0.112,0.357-0.335L323.32,199.151L323.32,199.151z M327.769,202.953
		c0.022,0.402,0.022,0.783,0.022,1.163c0,2.146-0.313,4.113-0.938,5.858c-0.628-0.38-1.186-0.604-1.678-0.672
		c0.536-1.386,0.805-2.883,0.805-4.493c0-0.581-0.044-1.185-0.112-1.811L327.769,202.953z M326.362,201.768
		c-0.179,0-0.292-0.111-0.292-0.334v-10.799c0-0.246,0.135-0.38,0.381-0.38h11.425v1.722h-4.762v1.43h4.337v1.722h-4.337v1.498
		h4.404v1.722h-4.404v1.676h4.874c0.268,0,0.379,0.157,0.379,0.448c-0.021,3.621-0.178,6.08-0.446,7.376
		c-0.403,2.303-2.213,2.303-3.174,2.303c-0.627,0-1.364-0.044-2.192-0.156l-0.067-1.923c1.678,0.358,2.103,0.426,2.461,0.426
		c0.289,0,0.491-0.067,0.625-0.179c0.381-0.38,0.626-0.85,0.717-1.431c0.201-0.961,0.201-2.974,0.201-5.03
		c0-0.045-0.09-0.09-0.224-0.09L326.362,201.768L326.362,201.768z M331.302,193.406v-1.43h-3.221c-0.133,0-0.201,0.066-0.201,0.2
		v1.23H331.302z M331.302,196.625v-1.498h-3.422v1.498H331.302z M327.882,200.023h3.422v-1.676h-3.422V200.023z M328.597,208.655
		c0.045-1.99-0.09-3.868-0.403-5.612l1.744-0.089c0.246,2.928,0.358,4.851,0.358,5.702H328.597z M331.46,207.626
		c-0.201-1.498-0.538-3.107-1.028-4.785l1.677-0.313c0.536,1.99,0.872,3.644,1.051,4.896L331.46,207.626z M332.823,202.64
		l1.587-0.38c0.38,1.163,0.738,2.437,0.985,3.823l-1.611,0.246L332.823,202.64z"/>
</g>
<g>
	<path fill="#A10200" d="M341.384,356.006c0,8.078-6.548,14.627-14.626,14.627H213.405c-8.078,0-14.626-6.549-14.626-14.627V242.653
		c0-8.076,6.548-14.625,14.626-14.625h113.353c8.078,0,14.626,6.549,14.626,14.625V356.006z"/>
	<g>
		<g>
			<path fill="#FFFFFF" d="M260.722,272.043c-0.774,0-1.4,0.336-1.4,0.744v2.241c0,0.409,0.626,0.745,1.4,0.745h21.159
				c0.774,0,1.402-0.336,1.402-0.745v-2.241c0-0.408-0.628-0.744-1.402-0.744H260.722z"/>
			<path fill="#FFFFFF" d="M259.038,267.637l24.751-0.119l6.123-9.532c0.942-1.468-9.428,2.865-11.261,2.865l-6.879-7.55
				l-4.378,7.55l-12.481-5.994c-1.831,0-4.404,1.739-3.331,3.129L259.038,267.637z"/>
			<path fill="#FFFFFF" d="M312.229,329.932c0.076-6.155-0.193-13.79-1.535-20.286c-2.771-13.407-13.789-29.114-31.846-29.114
				H264.33c-18.057,0-37.137,25.131-35.934,45.291c0.054,0.975,0.414,5.745,0.466,6.571c0.015-0.049,0.041-0.099,0.058-0.147
				c0.111,1.15,0.432,2.275,0.932,3.369c2.89,6.32,11.962,11.521,24.018,14.062c5.123,1.079,10.779,1.682,16.73,1.682
				c5.956,0,11.613-0.603,16.741-1.682c13.637-2.878,23.458-9.155,24.822-16.606c0.109-0.589,0.176-1.186,0.176-1.783
				C312.339,330.827,312.291,330.379,312.229,329.932z"/>
		</g>
	</g>
</g>
<g>
	<path fill="#A10200" d="M237.034,399.023c0.603-2.036,1.096-4.249,1.43-6.597l1.834,0.447c-0.671,3.354-1.185,5.61-1.497,6.685
		L237.034,399.023z M241.259,391.153l-3.71,0.491c-0.067-0.516-0.224-1.097-0.447-1.767l1.899-0.246l1.835-2.079
		c-1.253-1.141-2.504-2.057-3.734-2.749l0.85-1.609l0.983,0.603c0.672-1.097,1.298-2.304,1.922-3.622l1.565,0.916
		c-0.469,0.961-1.184,2.191-2.167,3.733l1.609,1.297c1.027-1.587,1.788-3.107,2.28-4.628l1.723,0.581
		c-0.537,1.879-2.058,4.293-4.494,7.199l3.554-0.513l-0.716-1.879l1.811-0.537c0.896,2.437,1.498,4.182,1.722,5.164l-1.832,0.403
		l-0.358-1.341l-2.393,0.313v9.949h-1.9L241.259,391.153L241.259,391.153z M245.708,392.426l1.162,5.029l-1.743,0.426l-1.162-4.918
		L245.708,392.426z M251.385,398.217v-14.69h-4.314v-1.9h10.509v1.9h-4.292v14.69h4.627v1.899h-11.447v-1.899H251.385z"/>
	<path fill="#A10200" d="M269.561,394.483c-0.849-1.229-1.878-2.571-3.085-4.023v10.374h-1.901V390.75
		c-0.915,1.899-2.057,3.667-3.353,5.252l-1.813-0.87c2.058-2.236,3.623-4.673,4.718-7.312h-4.316v-1.9h4.763v-3.04l-4.226,0.29
		l-0.313-1.878c4.249-0.178,7.668-0.604,10.217-1.163l0.381,1.855c-1.028,0.268-3.979,0.694-4.158,0.694v3.241h4.449v1.899h-4.449
		v0.111c1.587,1.722,3.13,3.512,4.538,5.366L269.561,394.483z M277.252,380.443h1.899v17.931c0,0.402-0.065,2.371-2.929,2.371
		c-0.939,0-2.146-0.181-3.599-0.583v-1.967c1.408,0.402,2.526,0.603,3.309,0.603c1.185,0,1.319-0.424,1.319-0.915V380.443z
		 M272.625,381.315h1.9v14.622h-1.9V381.315z"/>
	<path fill="#A10200" d="M284.56,399.782v0.938h-1.899v-19.138c0-0.424,0.223-0.647,0.648-0.647h17.773
		c0.47,0,0.67,0.224,0.67,0.647v19.138h-1.899v-0.938H284.56z M284.56,397.882h15.293v-14.778c0-0.18-0.09-0.269-0.269-0.269
		h-14.778c-0.201,0-0.267,0.113-0.246,0.269V397.882z M297.663,395.221c0,0.178-0.09,0.27-0.292,0.27h-10.083
		c-0.178,0-0.268-0.092-0.268-0.27v-9.569c0-0.18,0.09-0.269,0.268-0.269h10.083c0.202,0,0.292,0.089,0.292,0.269V395.221z
		 M295.65,387.286h-6.641c-0.066,0-0.09,0.021-0.09,0.089v6.103c0,0.068,0.023,0.111,0.09,0.111h6.641
		c0.067,0,0.111-0.043,0.111-0.111v-6.103L295.65,387.286z"/>
	<path fill="#A10200" d="M310.918,384.02c-0.894-0.581-1.722-1.185-2.481-1.832c-0.402,0.67-1.364,1.631-2.815,2.838l-1.654-1.096
		c1.855-1.23,3.086-2.414,3.6-3.511h1.72l-0.11,0.336c0.939,0.625,1.922,1.228,2.95,1.744L310.918,384.02z M309.778,399.447
		c-2.146,0.648-3.846,1.162-5.053,1.43l-0.648-1.81l1.027-0.202v-12.81c0-0.313,0.179-0.493,0.492-0.493h1.767v-1.966h1.721v1.966
		h1.499c0.334,0,0.514,0.18,0.514,0.493v8.45c0,0.381-0.179,0.559-0.537,0.559h-3.732v3.311l2.302-0.716l-0.446-1.119l1.633-0.537
		c0.647,1.612,1.185,3.064,1.52,4.362l-1.653,0.424L309.778,399.447z M306.827,389.409h2.548v-1.7c0-0.291-0.156-0.423-0.424-0.423
		h-1.723c-0.27,0-0.402,0.132-0.402,0.423L306.827,389.409L306.827,389.409z M309.376,391.129h-2.548v2.214h2.257
		c0.201,0,0.293-0.089,0.293-0.291v-1.923H309.376z M317.67,386.703v-1.027h-4.673c-0.156,0-0.224-0.091-0.224-0.247v-3.892
		c0-0.156,0.067-0.223,0.224-0.223h4.673v-1.027h1.723v1.027h4.561c0.155,0,0.245,0.066,0.245,0.223v3.892
		c0,0.156-0.09,0.247-0.245,0.247h-4.561v1.027h5.589v1.543h-13.034v-1.543H317.67z M312.147,399.156
		c1.989-0.225,3.555-0.559,4.717-0.961l0.424,1.789c-1.296,0.446-2.905,0.781-4.827,0.983L312.147,399.156z M324.198,397.792
		c0,0.156-0.09,0.246-0.245,0.246h-10.956c-0.156,0-0.224-0.09-0.224-0.246v-8.25c0-0.156,0.067-0.223,0.224-0.223h10.956
		c0.155,0,0.245,0.066,0.245,0.223V397.792z M317.67,384.2v-1.411h-3.085c-0.067,0-0.091,0.023-0.067,0.068v1.251l0.067,0.092
		H317.67L317.67,384.2z M314.517,391.623h7.96v-0.693l-0.091-0.067h-7.802c-0.067,0-0.091,0.022-0.067,0.067V391.623z
		 M314.517,394.081h7.96v-0.982h-7.96V394.081z M322.477,395.534h-7.96v0.85l0.067,0.09h7.802l0.091-0.09V395.534z M319.392,382.791
		v1.409h2.996l0.09-0.091v-1.251l-0.09-0.066L319.392,382.791L319.392,382.791z M324.511,401.079
		c-1.945-0.625-3.511-1.006-4.717-1.117l0.224-1.788c1.407,0.157,3.107,0.56,5.054,1.185L324.511,401.079z"/>
</g>
<g>
	<path fill="#A10200" d="M151.954,356.006c0,8.078-6.548,14.627-14.626,14.627H23.974c-8.078,0-14.626-6.549-14.626-14.627V242.653
		c0-8.076,6.548-14.625,14.626-14.625h113.354c8.078,0,14.626,6.549,14.626,14.625V356.006z"/>
</g>
<g>
	<path fill="#A10200" d="M51.52,398.312c1.745-1.162,3.018-2.279,3.846-3.354l-3.219-2.191c-0.224-0.224-0.335-0.491-0.335-0.804
		c0-0.179,0.044-0.381,0.135-0.604c0.582-1.454,1.229-3.8,1.901-6.997h-2.124v-1.901h2.503l0.516-3.22l1.877,0.313l-0.425,2.906
		h3.667c0.313-0.045,0.47,0.202,0.47,0.381c-0.044,5.186-0.873,9.055-2.415,11.513l2.616,1.789l-0.873,1.722l-2.728-1.856
		c-1.229,1.522-2.548,2.84-4.001,3.867L51.52,398.312z M56.394,393.349c1.385-2.616,2.147-5.61,2.235-8.987h-2.772
		c-0.47,2.348-1.141,4.718-1.922,7.109v0.136l0.29,0.245L56.394,393.349z M68.981,381.746h-7.668v-1.9h9.681l1.052,1.498
		l-4.271,4.114c-0.446,0.49-0.514,0.67-0.514,0.849c0,0.225,0.111,0.447,0.334,0.647l0.805,1.366h3.8v1.898H69.16
		c0.379,1.186,0.581,2.438,0.581,3.712c0,3.285-1.475,5.366-3.935,5.366c-1.118,0-2.416-0.426-3.868-1.275l0.402-2.102
		c0.359,0.224,1.923,1.274,3.286,1.274c0.292,0,0.561-0.045,0.761-0.156c0.424-0.202,1.363-1.072,1.363-3.063
		c0-1.028-0.224-2.28-0.693-3.756h-6.148v-1.898h5.254c-0.313-0.56-0.649-1.143-1.051-1.679c-0.111-0.156-0.313-0.402-0.313-0.671
		c0-0.134,0.089-0.313,0.313-0.491L68.981,381.746z"/>
	<path fill="#A10200" d="M77.496,398.067c2.706-0.626,5.209-1.611,7.49-2.907c-1.833-1.923-3.153-4.358-3.868-7.221h-0.334
		c-1.208,3.935-2.885,7.489-4.963,10.687l-1.879-0.917c3.175-4.337,5.144-9.055,5.858-14.175h-5.454v-1.99h5.657l0.133-2.459
		l1.991,0.112l-0.179,2.347h12.341v1.99H81.723l-0.469,2.504h9.927l1.43,0.963c-0.782,4-2.37,5.856-4.672,8.183
		c2.012,1.34,4.271,2.324,6.729,2.928l-1.252,1.79c-2.772-0.851-5.142-2.036-7.042-3.534c-2.192,1.498-4.852,2.706-7.959,3.599
		L77.496,398.067z M83.063,387.939c0.693,2.615,1.856,4.628,3.443,6.082v0.021c0.984-0.828,3.309-2.817,3.779-5.725v-0.089
		c0-0.178-0.135-0.291-0.403-0.291h-6.819V387.939z"/>
	<path fill="#A10200" d="M96.14,398.358c0.493-2.729,0.717-4.92,0.648-6.573l1.655,0.111c0.065,1.855-0.135,4.091-0.648,6.661
		L96.14,398.358z M99.115,390.42l-2.349,0.381c-0.111-0.492-0.267-1.053-0.49-1.655l1.118-0.179c0.558-0.67,1.14-1.498,1.788-2.525
		c-0.985-0.963-1.967-1.745-2.997-2.35l0.873-1.496l0.425,0.292c0.537-1.141,1.028-2.393,1.499-3.712l1.564,0.716
		c-0.336,1.006-0.917,2.324-1.767,3.98l1.23,1.071c0.581-1.252,0.984-2.481,1.207-3.645l1.722,0.381
		c-0.334,1.854-1.497,4.18-3.421,6.907l2.169-0.402l-0.492-1.631l1.587-0.381c0.582,2.057,0.984,3.555,1.141,4.493l-1.587,0.293
		l-0.223-1.053l-1.274,0.224v9.703h-1.722L99.115,390.42L99.115,390.42z M103.005,391.963l0.582,4.807l-1.543,0.179l-0.559-4.673
		L103.005,391.963z M103.116,398.828c2.101-1.924,2.548-5.411,2.548-5.724h-1.967v-1.724h2.124v-3.441h-1.945v-1.722h1.945v-2.906
		h-2.304v-1.723h2.304v-2.058h1.744v2.058h1.99v1.723h-1.99v2.906h1.833v1.722h-1.856v3.441h2.102v1.724h-2.258
		c-0.402,3.04-1.274,5.297-2.616,6.771L103.116,398.828z M112.081,381.478c-0.157,0-0.246,0.09-0.246,0.246v17.996h-1.722v-19.651
		c0-0.2,0.111-0.313,0.313-0.313h5.231l1.163,0.896l-2.125,7.153v0.536c1.744,2.595,2.326,4.205,2.326,6.216
		c0,1.789-0.715,3.422-2.66,3.422c-0.537,0-1.095-0.179-2.057-0.604l0.246-1.878c0.849,0.536,1.341,0.716,1.745,0.716
		c0.916,0,1.117-0.582,1.117-1.968c0-1.52-0.828-3.309-2.437-5.767c-0.135-0.137-0.202-0.27-0.178-0.404l1.877-6.326l0.045-0.269
		L112.081,381.478L112.081,381.478z"/>
	<path fill="#A10200" d="M133.476,399.52c-5.545-0.156-8.294-1.184-10.284-4.562c-0.76,1.767-1.745,3.442-2.997,4.896l-1.587-1.115
		c3.018-3.623,3.577-6.014,4.024-9.725l1.9,0.2c-0.134,1.208-0.334,2.325-0.581,3.354c1.051,2.303,2.481,3.778,4.315,4.448v-9.592
		h-6.06v-1.898h13.549v1.898h-5.589v3.689h7.602v1.901h-7.602v4.381c0.827,0.089,1.699,0.135,2.593,0.135h6.55l-0.515,1.99h-5.32
		V399.52z M128.133,381.165v-1.878h1.99v1.878h7.511l1.723,0.873c-0.112,1.318-0.515,2.929-1.163,4.807l-1.79-0.648
		c0.425-1.454,0.672-2.416,0.716-2.84v-0.066c0-0.156-0.09-0.225-0.269-0.225H121.27c-0.112,0-0.179,0.046-0.179,0.157v3.197h-1.9
		v-4.896c0-0.246,0.136-0.358,0.38-0.358L128.133,381.165L128.133,381.165z"/>
</g>
<g>
	<path fill="#FFFFFF" d="M134.854,320.442l-0.234-37.291h-12.107l-24.218-11.893H78.145l-12.513-2.16l-20.82,12.646l-12.676-0.261
		l0.499,38.824l5.956,0.515c-0.079,1.68-0.206,4.826,0.072,5.889c0.394,1.498,3.494,3.957,4.892,3.964
		c1.398,0.019,5.826-2.798,5.826-2.798s0.53,3.877,0.46,5.127c-0.074,1.26,1.932,4.179,3.723,4.197
		c1.799,0.021,5.369-0.468,5.369-0.468s1.074,3.405,2.322,4.421c1.24,1.031,4.653,1.777,5.591,1.402
		c0.657-0.26,3.95-1.76,5.846-2.637c2.341,1.67,3.939,2.789,4.188,2.928c0.661,0.371,3.911,1.67,6.739,1.67l0,0
		c1.891,0,3.274-0.57,4.136-1.693c0.391-0.526,0.657-1.148,0.77-1.856c1.491,0.955,3.474,1.871,5.534,1.871
		c1.498,0,2.851-0.468,4.023-1.4c0.652-0.303,2.454-1.264,3.176-3.136c0.029-0.098,0.063-0.189,0.104-0.278
		c1.84,1.034,4.624,1.634,7.541,0.44c0.698-0.344,3.075-1.545,3.865-2.883c0.274-0.48,0.408-1.094,0.494-1.719l0.762,0.523
		l0.44,0.207c0.124,0.029,3.78,0.874,5.55,0.477c2.064-0.471,3.759-2.338,4.403-3.477c0.411-0.723,0.552-2.619,0.444-5.598
		L134.854,320.442z M121.984,330.225c-0.337,0.611-1.459,1.859-2.586,2.119c-0.118,0.027-0.351,0.064-0.709,0.064
		c-1.188,0-2.717-0.332-3.286-0.472l-2.738-1.888l-11.361-16.922l-2.314,1.554l11.409,17.014l0.045-0.036
		c0.112,1.049,0.091,2.204-0.093,2.506c-0.211,0.367-1.478,1.215-2.582,1.746c-0.741,0.305-1.494,0.459-2.215,0.459
		c-2.218,0-3.855-1.418-4.478-2.054l-11.414-16.999l-2.317,1.555l11.124,16.597l-0.045,0.032c0.354,0.686,0.426,1.268,0.234,1.779
		c-0.344,0.891-1.429,1.493-1.814,1.646l-0.393,0.234c-0.715,0.592-1.487,0.881-2.392,0.881c-3.018,0-6.166-3.1-6.203-3.129
		l-1.066-1.074l-9.94-14.795l-2.312,1.56l11.211,16.712c0.118,0.827,0.045,1.458-0.224,1.818c-0.369,0.482-1.238,0.591-1.904,0.591
		l0,0c-2.194,0-4.972-1.085-5.378-1.318c-1.006-0.603-18.292-13.1-29.666-21.353l-0.329-0.225l-12.858-1.088l-0.425-33.402
		l10.605,0.216l20.619-12.529l6.682,1.159l-17.903,14.62c0,0,1.162,6.993,11.64,3.963l10.721-4.427l12.803-0.23l6.517,3.725
		l24.414,31.43l0.992,3.292C122.135,327.475,122.119,329.792,121.984,330.225z"/>
</g>
<g>
	<g>
		<path fill="#FCFCFC" d="M311.277,54.942h-70.403c-5.9,0-10.729,4.54-10.729,10.084V83.04c0,5.552,4.827,10.091,10.729,10.091
			h10.625l14.577,12.988l-0.271-12.988h45.472c5.903,0,10.729-4.539,10.729-10.091V65.027
			C322.008,59.482,317.181,54.942,311.277,54.942z"/>
	</g>
	<g>
		<path fill="#A10200" d="M240.279,82.461V66.635h-0.049l-3.106,1.713l-0.636-2.079l4.158-2.226h2.396v18.418H240.279z"/>
		<path fill="#A10200" d="M260.138,82.461h-11.203v-1.736l1.933-2.03c3.89-3.987,6.042-6.53,6.042-9.295
			c0-1.786-0.856-3.351-3.18-3.351c-1.42,0-2.691,0.758-3.547,1.443l-0.856-2.031c1.125-0.93,2.911-1.712,4.966-1.712
			c3.791,0,5.454,2.568,5.454,5.356c0,3.376-2.3,6.189-5.503,9.418l-1.518,1.541v0.049h7.412V82.461z"/>
		<path fill="#A10200" d="M269.699,72.531c2.079,0.392,3.865,2.079,3.865,4.672c0,3.009-2.3,5.528-6.482,5.528
			c-1.908,0-3.62-0.563-4.5-1.15l0.733-2.177c0.66,0.44,2.128,1.052,3.645,1.052c2.617,0,3.693-1.712,3.693-3.352
			c0-2.372-2.006-3.473-4.183-3.473h-1.248v-2.03h1.199c1.59,0,3.669-0.954,3.669-2.983c0-1.443-0.93-2.594-2.886-2.594
			c-1.297,0-2.568,0.611-3.278,1.102l-0.71-2.031c0.93-0.684,2.716-1.345,4.623-1.345c3.449,0,5.137,2.079,5.137,4.427
			c0,1.884-1.174,3.523-3.277,4.306V72.531z"/>
		<path fill="#A10200" d="M286.207,82.461h-2.666v-4.867h-7.705v-1.835l7.217-11.716h3.154v11.398h2.3v2.152h-2.3V82.461z
			 M278.502,75.442h5.039v-5.528c0-1.052,0.049-2.152,0.123-3.204h-0.098c-0.563,1.174-1.027,2.079-1.541,3.057l-3.523,5.627V75.442
			z"/>
		<path fill="#A10200" d="M300.734,64.043v2.348h-6.458l-0.611,4.379c0.366-0.025,0.709-0.074,1.223-0.074
			c3.351,0,6.237,1.957,6.237,5.725c0,3.546-2.715,6.311-6.727,6.311c-1.81,0-3.449-0.49-4.305-1.027l0.636-2.152
			c0.733,0.415,2.079,0.929,3.571,0.929c2.079,0,3.938-1.419,3.938-3.815c0-2.373-1.613-3.865-4.892-3.865
			c-0.929,0-1.614,0.049-2.226,0.147l1.149-8.903H300.734z"/>
		<path fill="#A10200" d="M306.578,72.311c0.855-1.076,2.225-1.908,4.011-1.908c2.96,0,5.112,2.226,5.112,5.846
			c0,3.424-2.178,6.482-5.822,6.482c-3.913,0-6.213-3.205-6.213-7.779c0-3.596,1.199-6.457,2.961-8.316
			c1.907-2.005,4.793-2.861,7.387-2.861l0.023,2.25c-5.234,0-7.117,3.572-7.509,6.287H306.578z M312.863,76.42
			c0-2.397-1.223-3.987-3.154-3.987c-1.64,0-3.229,1.54-3.229,3.204c0.049,2.887,1.247,4.965,3.399,4.965
			C311.738,80.602,312.863,78.841,312.863,76.42z"/>
	</g>
</g>
<g>
	<g>
		<path fill="#FFFFFF" d="M307.951,122.184l-13.543-13.546c-0.448-0.448-0.978-0.67-1.589-0.67c-0.28,0-0.575,0.058-0.88,0.176
			c-0.918,0.4-1.377,1.093-1.377,2.081v6.773h-5.646c-2.491,0-4.802,0.129-6.93,0.388c-2.127,0.258-4.004,0.616-5.627,1.076
			c-1.622,0.458-3.087,1.028-4.391,1.709c-1.305,0.682-2.414,1.406-3.334,2.17c-0.918,0.764-1.723,1.633-2.416,2.61
			c-0.693,0.976-1.246,1.933-1.658,2.875c-0.411,0.94-0.739,1.975-0.987,3.104c-0.248,1.127-0.413,2.187-0.493,3.174
			c-0.084,0.987-0.124,2.057-0.124,3.209c0,1.318,0.206,2.751,0.617,4.304c0.413,1.553,0.864,2.893,1.358,4.022
			c0.493,1.127,1.075,2.298,1.745,3.508c0.673,1.211,1.135,2.017,1.395,2.416c0.258,0.399,0.507,0.764,0.741,1.094
			c0.233,0.306,0.54,0.458,0.916,0.458c0.095,0,0.235-0.023,0.423-0.069c0.541-0.26,0.775-0.659,0.706-1.201
			c-1.059-7.902-0.188-13.463,2.61-16.685c2.703-3.08,7.854-4.62,15.447-4.62h5.646v6.772c0,0.989,0.459,1.683,1.376,2.082
			c0.305,0.118,0.599,0.177,0.881,0.177c0.634,0,1.165-0.224,1.587-0.67l13.545-13.545c0.448-0.448,0.671-0.976,0.671-1.587
			C308.622,123.158,308.399,122.628,307.951,122.184z"/>
		<path fill="#FFFFFF" d="M298.853,141.83c-0.448-0.189-0.862-0.094-1.235,0.282c-0.611,0.564-1.247,1-1.906,1.304
			c-0.423,0.236-0.636,0.577-0.636,1.022v7.549c0,1.551-0.551,2.88-1.655,3.987c-1.105,1.104-2.435,1.657-3.987,1.657h-29.348
			c-1.55,0-2.879-0.553-3.985-1.657c-1.104-1.107-1.656-2.435-1.656-3.987V122.64c0-1.552,0.553-2.88,1.656-3.986
			c1.104-1.105,2.435-1.657,3.985-1.657h3.953c0.141,0,0.329-0.048,0.563-0.142c1.317-0.8,2.882-1.505,4.691-2.117
			c0.611-0.117,0.919-0.493,0.919-1.128c0-0.306-0.112-0.569-0.337-0.793c-0.224-0.223-0.485-0.335-0.793-0.335h-8.995
			c-2.8,0-5.191,0.994-7.179,2.981c-1.987,1.987-2.979,4.379-2.979,7.177v29.346c0,2.8,0.992,5.193,2.979,7.179
			c1.986,1.987,4.379,2.981,7.179,2.981h29.35c2.796,0,5.188-0.995,7.176-2.981c1.989-1.986,2.982-4.379,2.982-7.179v-9.134
			C299.594,142.382,299.345,142.041,298.853,141.83z"/>
	</g>
</g>
<g>
	<path fill="#FFFFFF" d="M74.584,107.409c12.375,0,22.409-12.186,22.409-27.218c0-15.032-3.294-27.218-22.409-27.218
		S52.176,65.159,52.176,80.19C52.176,95.223,62.208,107.409,74.584,107.409z"/>
	<path fill="#FFFFFF" d="M32.259,148.969C32.255,148.051,32.251,148.709,32.259,148.969L32.259,148.969z"/>
	<path fill="#FFFFFF" d="M116.908,149.684C116.921,149.434,116.913,147.944,116.908,149.684L116.908,149.684z"/>
	<path fill="#FFFFFF" d="M116.861,147.868c-0.415-26.185-3.835-33.646-30.006-38.37c0,0-3.683,4.694-12.271,4.694
		c-8.587,0-12.271-4.694-12.271-4.694c-25.886,4.673-29.513,12.022-29.991,37.522c-0.039,2.08-0.057,2.191-0.063,1.949
		c0.001,0.451,0.003,1.291,0.003,2.75c0,0,6.231,12.561,42.322,12.561c36.091,0,42.322-12.561,42.322-12.561
		c0-0.939,0.001-1.592,0.002-2.035C116.901,149.834,116.887,149.545,116.861,147.868z"/>
</g>
<g>
	<circle fill="#A10200" stroke="#FFFFFF" stroke-width="6" stroke-miterlimit="10" cx="114.506" cy="137.879" r="26"/>
	<path fill="#FFFFFF" d="M129.372,136.918l-13.043-13.041c-0.494-0.496-1.101-0.742-1.822-0.742c-0.735,0-1.336,0.246-1.804,0.742
		L99.66,136.918c-0.507,0.508-0.76,1.115-0.76,1.822c0,0.695,0.254,1.295,0.76,1.805l1.503,1.502
		c0.481,0.508,1.083,0.762,1.804,0.762s1.322-0.254,1.803-0.762l5.891-5.869v14.104c0,0.693,0.25,1.258,0.751,1.693
		c0.501,0.434,1.104,0.65,1.813,0.65h2.563c0.708,0,1.313-0.217,1.813-0.65c0.5-0.436,0.752-1,0.752-1.693v-14.104l5.89,5.869
		c0.48,0.508,1.082,0.762,1.804,0.762c0.707,0,1.315-0.254,1.822-0.762l1.503-1.502c0.493-0.521,0.741-1.121,0.741-1.805
		C130.113,138.047,129.865,137.44,129.372,136.918z"/>
</g>
<g>
	<path fill="#A10200" d="M14.088,194.609l5.452-3.988h1.792v18.553h-4.544v-12.723h-2.7V194.609z"/>
	<path fill="#A10200" d="M27.92,202.813h4.468v4.14H27.92V202.813z"/>
</g>
<g>
	<path fill="#A10200" d="M202.714,194.104v-3.482h13.354c0.823,0.033,1.514,0.185,2.069,0.454c0.336,0.152,0.631,0.446,0.884,0.884
		c0.234,0.421,0.361,0.934,0.379,1.54v1.868c-0.135,1.127-0.927,2.079-2.373,2.853c-3.669,2.137-7.338,4.283-11.006,6.437v1.035
		h13.252v3.483H201.35v-3.609c0.051-0.741,0.252-1.431,0.605-2.07c0.336-0.623,0.917-1.22,1.742-1.792
		c0.354-0.218,0.697-0.42,1.034-0.605c3.434-1.918,6.866-3.853,10.3-5.806v-1.187H202.714z"/>
	<path fill="#A10200" d="M220.586,202.813h4.468v4.14h-4.468V202.813z"/>
</g>
<g>
	<path fill="#A10200" d="M23.815,383.286v-3.482h13.101c0.723,0.018,1.414,0.143,2.07,0.379c1.127,0.488,1.724,1.305,1.792,2.448
		v3.659c-0.017,0.388-0.084,0.732-0.202,1.036c-0.168,0.421-0.429,0.757-0.782,1.009c-0.353,0.27-0.799,0.505-1.338,0.707
		l0.48,0.253c0.622,0.319,1.102,0.697,1.438,1.136c0.235,0.42,0.37,0.892,0.404,1.414v3.71c-0.017,0.303-0.101,0.647-0.252,1.034
		c-0.135,0.354-0.404,0.683-0.808,0.985c-0.539,0.371-1.229,0.614-2.07,0.732l-0.808,0.05H23.815v-3.482h12.773v-4.368H26.062
		v-2.902h10.526v-4.317H23.815z"/>
	<path fill="#A10200" d="M42.52,391.995h4.468v4.141H42.52V391.995z"/>
</g>
<g>
	<path fill="#A10200" d="M207.941,389.748l12.697-9.944h4.518v11.535h2.271v2.727h-2.271v4.291h-4.19v-4.291h-13.024V389.748z
		 M220.966,383.462c-3.264,2.625-6.486,5.26-9.668,7.901h9.668V383.462z"/>
	<path fill="#A10200" d="M227.883,391.995h4.469v4.141h-4.469V391.995z"/>
</g>
</svg>
