<?xml version="1.0" encoding="utf-8"?>
<!-- Generator: Adobe Illustrator 16.0.0, SVG Export Plug-In . SVG Version: 6.00 Build 0)  -->
<svg version="1.2" baseProfile="tiny" id="圖層_1"
	 xmlns="http://www.w3.org/2000/svg" xmlns:xlink="http://www.w3.org/1999/xlink" x="0px" y="0px" width="747.051px"
	 height="196.49px" viewBox="0 0 747.051 196.49" xml:space="preserve">
<g>
	<path fill="#A10200" d="M151.953,135.087c0,8.078-6.55,14.626-14.626,14.626H23.974c-8.077,0-14.625-6.548-14.625-14.626V21.734
		c0-8.078,6.548-14.626,14.625-14.626h113.354c8.076,0,14.626,6.548,14.626,14.626L151.953,135.087L151.953,135.087z"/>
</g>
<g>
	<path fill="#A10200" d="M344.693,135.087c0,8.078-6.549,14.626-14.626,14.626H216.715c-8.076,0-14.627-6.548-14.627-14.626V21.734
		c0-8.078,6.551-14.626,14.627-14.626h113.354c8.077,0,14.626,6.548,14.626,14.626L344.693,135.087L344.693,135.087z"/>
</g>
<g>
	<path fill="#A10200" d="M537.434,135.086c0,8.078-6.548,14.626-14.626,14.626H409.454c-8.076,0-14.626-6.549-14.626-14.626V21.733
		c0-8.078,6.55-14.625,14.626-14.625h113.354c8.078,0,14.626,6.548,14.626,14.625L537.434,135.086L537.434,135.086z"/>
</g>
<g>
	<circle fill="#686868" cx="175.233" cy="88.398" r="17.5"/>
	<g>
		<path fill="#FFFFFF" d="M169.233,97.831v-4.109l9.232-5.286l-9.232-5.363v-4.106l12.998,7.57v3.856L169.233,97.831z"/>
	</g>
</g>
<g>
	<circle fill="#686868" cx="369.233" cy="88.398" r="17.5"/>
	<g>
		<path fill="#FFFFFF" d="M363.233,97.831v-4.109l9.233-5.286l-9.233-5.363v-4.106l12.998,7.57v3.856L363.233,97.831z"/>
	</g>
</g>
<g>
	<path fill="#A10200" d="M734.434,135.086c0,8.078-6.548,14.626-14.626,14.626H606.454c-8.076,0-14.626-6.549-14.626-14.626V21.733
		c0-8.078,6.55-14.625,14.626-14.625h113.354c8.078,0,14.626,6.548,14.626,14.625L734.434,135.086L734.434,135.086z"/>
	<g>
		<g>
			<path fill="#FFFFFF" d="M653.771,51.125c-0.774,0-1.4,0.334-1.4,0.744v2.242c0,0.409,0.626,0.745,1.4,0.745h21.16
				c0.772,0,1.4-0.336,1.4-0.745v-2.242c0-0.41-0.628-0.744-1.4-0.744H653.771z"/>
			<path fill="#FFFFFF" d="M652.089,46.717l24.751-0.118l6.123-9.532c0.94-1.468-9.43,2.865-11.263,2.865l-6.879-7.551l-4.378,7.551
				l-12.479-5.994c-1.831,0-4.404,1.74-3.331,3.129L652.089,46.717z"/>
			<path fill="#FFFFFF" d="M705.279,109.012c0.076-6.155-0.191-13.79-1.535-20.286c-2.771-13.407-13.789-29.114-31.846-29.114
				H657.38c-18.059,0-37.139,25.131-35.936,45.291c0.056,0.974,0.414,5.745,0.466,6.571c0.017-0.051,0.041-0.1,0.06-0.148
				c0.109,1.151,0.431,2.275,0.931,3.369c2.892,6.321,11.962,11.52,24.02,14.062c5.122,1.079,10.777,1.684,16.729,1.684
				c5.956,0,11.614-0.604,16.742-1.684c13.636-2.878,23.458-9.154,24.822-16.605c0.107-0.589,0.176-1.188,0.176-1.785
				C705.389,109.907,705.342,109.459,705.279,109.012z"/>
		</g>
	</g>
</g>
<g>
	<circle fill="#686868" cx="562.233" cy="88.398" r="17.5"/>
	<g>
		<path fill="#FFFFFF" d="M556.233,97.831v-4.109l9.233-5.286l-9.233-5.363v-4.106l12.998,7.57v3.856L556.233,97.831z"/>
	</g>
</g>
<g>
	<path fill="#FFFFFF" d="M519.336,99.522L519.1,62.23h-12.107l-24.218-11.894h-20.147l-12.515-2.158l-20.817,12.646l-12.678-0.26
		l0.499,38.824l5.956,0.515c-0.079,1.679-0.206,4.825,0.073,5.888c0.393,1.499,3.494,3.957,4.891,3.964
		c1.399,0.02,5.826-2.797,5.826-2.797s0.531,3.877,0.46,5.127c-0.074,1.261,1.934,4.18,3.725,4.198
		c1.799,0.021,5.367-0.468,5.367-0.468s1.074,3.405,2.322,4.421c1.241,1.031,4.654,1.778,5.591,1.402
		c0.657-0.262,3.95-1.761,5.848-2.639c2.341,1.67,3.938,2.789,4.188,2.93c0.661,0.369,3.911,1.669,6.74,1.669l0,0
		c1.89,0,3.272-0.57,4.135-1.694c0.392-0.526,0.658-1.148,0.771-1.857c1.489,0.956,3.473,1.872,5.532,1.872
		c1.498,0,2.853-0.467,4.023-1.399c0.653-0.304,2.455-1.265,3.176-3.137c0.03-0.096,0.063-0.188,0.105-0.277
		c1.84,1.035,4.624,1.634,7.541,0.439c0.696-0.342,3.074-1.544,3.863-2.882c0.274-0.479,0.408-1.094,0.494-1.718l0.764,0.523
		l0.438,0.208c0.124,0.028,3.78,0.872,5.55,0.476c2.064-0.471,3.761-2.338,4.403-3.476c0.411-0.725,0.552-2.62,0.445-5.599
		L519.336,99.522z M506.466,109.305c-0.337,0.609-1.459,1.858-2.586,2.118c-0.119,0.027-0.353,0.064-0.709,0.064
		c-1.188,0-2.719-0.333-3.286-0.471l-2.739-1.889l-11.361-16.922l-2.313,1.555l11.409,17.013l0.045-0.037
		c0.11,1.049,0.09,2.206-0.095,2.506c-0.211,0.369-1.478,1.215-2.581,1.748c-0.74,0.305-1.493,0.458-2.216,0.458
		c-2.218,0-3.854-1.418-4.477-2.052l-11.414-17l-2.318,1.553l11.124,16.597l-0.045,0.032c0.354,0.688,0.426,1.271,0.235,1.781
		c-0.344,0.891-1.429,1.493-1.815,1.646l-0.392,0.235c-0.715,0.592-1.488,0.881-2.394,0.881c-3.018,0-6.166-3.1-6.201-3.129
		l-1.067-1.076l-9.94-14.793l-2.311,1.56l11.21,16.712c0.119,0.828,0.045,1.458-0.223,1.818c-0.369,0.482-1.238,0.591-1.904,0.591
		l0,0c-2.195,0-4.972-1.084-5.378-1.317c-1.006-0.604-18.292-13.1-29.666-21.354l-0.33-0.223l-12.858-1.089l-0.425-33.402
		l10.606,0.217l20.619-12.528l6.682,1.159l-17.904,14.62c0,0,1.162,6.993,11.642,3.963l10.721-4.428l12.802-0.229l6.519,3.723
		l24.414,31.432l0.99,3.292C506.615,106.556,506.599,108.872,506.466,109.305z"/>
</g>
<g>
	<g>
		<path fill="#FCFCFC" d="M311.277,24.942h-70.402c-5.9,0-10.729,4.54-10.729,10.084V53.04c0,5.552,4.827,10.091,10.729,10.091
			h10.625l14.577,12.988l-0.271-12.988h45.472c5.903,0,10.729-4.539,10.729-10.091V35.027
			C322.008,29.482,317.181,24.942,311.277,24.942z"/>
	</g>
</g>
<g>
	<g>
		<path fill="#FFFFFF" d="M307.95,92.184l-13.542-13.546c-0.448-0.448-0.979-0.67-1.59-0.67c-0.279,0-0.574,0.058-0.88,0.176
			c-0.918,0.398-1.377,1.093-1.377,2.081v6.771h-5.646c-2.491,0-4.803,0.129-6.931,0.39c-2.127,0.258-4.004,0.614-5.627,1.074
			c-1.622,0.458-3.087,1.028-4.391,1.709c-1.305,0.684-2.414,1.406-3.334,2.17c-0.918,0.766-1.723,1.635-2.416,2.61
			c-0.693,0.977-1.246,1.935-1.658,2.875c-0.411,0.94-0.739,1.977-0.987,3.104c-0.247,1.127-0.412,2.187-0.492,3.174
			c-0.084,0.985-0.124,2.057-0.124,3.209c0,1.316,0.206,2.751,0.616,4.304c0.413,1.553,0.864,2.895,1.358,4.022
			c0.493,1.127,1.075,2.298,1.745,3.508c0.673,1.211,1.135,2.017,1.395,2.416c0.259,0.397,0.508,0.764,0.741,1.094
			c0.233,0.306,0.54,0.458,0.916,0.458c0.095,0,0.235-0.021,0.423-0.069c0.541-0.26,0.775-0.657,0.706-1.199
			c-1.059-7.902-0.188-13.465,2.61-16.687c2.703-3.08,7.854-4.62,15.447-4.62h5.646v6.772c0,0.988,0.459,1.683,1.376,2.082
			c0.305,0.118,0.6,0.177,0.881,0.177c0.635,0,1.165-0.224,1.587-0.67l13.545-13.545c0.448-0.448,0.671-0.978,0.671-1.587
			C308.621,93.158,308.399,92.628,307.95,92.184z"/>
		<path fill="#FFFFFF" d="M298.853,111.83c-0.448-0.188-0.861-0.094-1.234,0.282c-0.611,0.564-1.247,1-1.906,1.304
			c-0.423,0.236-0.636,0.577-0.636,1.022v7.549c0,1.551-0.552,2.88-1.655,3.987c-1.105,1.104-2.436,1.655-3.987,1.655h-29.348
			c-1.55,0-2.879-0.553-3.985-1.655c-1.104-1.107-1.656-2.437-1.656-3.987V92.641c0-1.554,0.554-2.88,1.656-3.986
			c1.104-1.105,2.436-1.657,3.985-1.657h3.953c0.141,0,0.329-0.048,0.563-0.142c1.317-0.8,2.882-1.505,4.691-2.117
			c0.61-0.117,0.919-0.493,0.919-1.128c0-0.306-0.112-0.569-0.337-0.793c-0.225-0.223-0.485-0.335-0.793-0.335h-8.995
			c-2.8,0-5.191,0.994-7.179,2.979c-1.987,1.987-2.979,4.381-2.979,7.179v29.346c0,2.8,0.992,5.193,2.979,7.179
			c1.985,1.987,4.379,2.981,7.179,2.981h29.35c2.796,0,5.188-0.995,7.176-2.981c1.989-1.984,2.982-4.379,2.982-7.179v-9.134
			C299.594,112.382,299.345,112.041,298.853,111.83z"/>
	</g>
</g>
<g>
	<path fill="#FFFFFF" d="M77.585,81.408c12.375,0,22.409-12.186,22.409-27.218c0-15.032-3.294-27.218-22.409-27.218
		S55.176,39.158,55.176,54.19C55.176,69.222,65.209,81.408,77.585,81.408z"/>
	<path fill="#FFFFFF" d="M35.26,122.969C35.255,122.052,35.252,122.71,35.26,122.969L35.26,122.969z"/>
	<path fill="#FFFFFF" d="M119.909,123.684C119.921,123.433,119.913,121.943,119.909,123.684L119.909,123.684z"/>
	<path fill="#FFFFFF" d="M119.861,121.868c-0.415-26.185-3.834-33.647-30.006-38.371c0,0-3.683,4.695-12.271,4.695
		c-8.587,0-12.271-4.695-12.271-4.695C39.427,88.17,35.801,95.52,35.323,121.019c-0.039,2.081-0.057,2.191-0.063,1.949
		c0.001,0.452,0.003,1.291,0.003,2.751c0,0,6.231,12.561,42.322,12.561c36.091,0,42.322-12.561,42.322-12.561
		c0-0.939,0-1.592,0.002-2.035C119.902,123.834,119.888,123.545,119.861,121.868z"/>
</g>
<g>
	<circle fill="#A10200" stroke="#FFFFFF" stroke-width="6" stroke-miterlimit="10" cx="117.507" cy="111.88" r="26"/>
	<path fill="#FFFFFF" d="M132.372,110.918l-13.043-13.041c-0.494-0.495-1.101-0.742-1.822-0.742c-0.735,0-1.336,0.247-1.804,0.742
		l-13.042,13.041c-0.507,0.508-0.761,1.116-0.761,1.823c0,0.695,0.254,1.295,0.761,1.805l1.502,1.501
		c0.481,0.508,1.083,0.762,1.803,0.762c0.722,0,1.323-0.254,1.804-0.762l5.89-5.869v14.104c0,0.694,0.25,1.259,0.751,1.693
		c0.5,0.435,1.105,0.651,1.813,0.651h2.564c0.708,0,1.313-0.217,1.813-0.651c0.5-0.435,0.752-0.999,0.752-1.693v-14.104l5.89,5.869
		c0.48,0.508,1.082,0.762,1.803,0.762c0.708,0,1.316-0.254,1.823-0.762l1.503-1.501c0.493-0.522,0.741-1.122,0.741-1.805
		C133.113,112.047,132.865,111.439,132.372,110.918z"/>
</g>
<g>
	<path fill="#A10200" d="M240.239,54.07V38.244h-0.049l-3.106,1.712l-0.636-2.079l4.158-2.226h2.397V54.07H240.239z"/>
	<path fill="#A10200" d="M260.097,54.07h-11.203v-1.737l1.933-2.03c3.889-3.987,6.042-6.531,6.042-9.295
		c0-1.786-0.856-3.351-3.18-3.351c-1.419,0-2.691,0.758-3.547,1.443l-0.856-2.03c1.125-0.93,2.911-1.712,4.965-1.712
		c3.791,0,5.455,2.568,5.455,5.357c0,3.375-2.299,6.188-5.503,9.417l-1.517,1.541v0.049h7.411V54.07z"/>
	<path fill="#A10200" d="M269.658,44.139c2.079,0.391,3.865,2.079,3.865,4.672c0,3.008-2.299,5.528-6.482,5.528
		c-1.908,0-3.62-0.563-4.5-1.149l0.734-2.177c0.66,0.44,2.128,1.052,3.645,1.052c2.617,0,3.693-1.712,3.693-3.351
		c0-2.373-2.006-3.473-4.183-3.473h-1.248v-2.03h1.199c1.59,0,3.669-0.954,3.669-2.984c0-1.443-0.93-2.593-2.886-2.593
		c-1.296,0-2.568,0.611-3.278,1.101l-0.709-2.03c0.93-0.685,2.715-1.345,4.623-1.345c3.449,0,5.137,2.079,5.137,4.427
		c0,1.883-1.174,3.522-3.278,4.305V44.139z"/>
	<path fill="#A10200" d="M286.167,54.07h-2.666v-4.868h-7.705v-1.834l7.216-11.716h3.155V47.05h2.299v2.152h-2.299V54.07z
		 M278.462,47.05h5.039v-5.528c0-1.052,0.049-2.152,0.122-3.204h-0.098c-0.563,1.174-1.027,2.079-1.541,3.057l-3.522,5.626V47.05z"
		/>
	<path fill="#A10200" d="M300.693,35.652V38h-6.458l-0.611,4.378c0.367-0.024,0.709-0.073,1.223-0.073
		c3.351,0,6.237,1.957,6.237,5.724c0,3.546-2.715,6.311-6.726,6.311c-1.81,0-3.449-0.489-4.305-1.027l0.636-2.152
		c0.734,0.416,2.079,0.929,3.571,0.929c2.079,0,3.938-1.418,3.938-3.815c0-2.373-1.614-3.865-4.892-3.865
		c-0.929,0-1.614,0.049-2.226,0.147l1.149-8.904H300.693z"/>
	<path fill="#A10200" d="M306.537,43.919c0.856-1.076,2.226-1.908,4.011-1.908c2.959,0,5.112,2.226,5.112,5.846
		c0,3.424-2.177,6.482-5.822,6.482c-3.914,0-6.213-3.204-6.213-7.778c0-3.596,1.199-6.458,2.96-8.316
		c1.908-2.005,4.794-2.862,7.387-2.862l0.024,2.25c-5.234,0-7.118,3.571-7.509,6.286H306.537z M312.823,48.029
		c0-2.397-1.223-3.987-3.155-3.987c-1.639,0-3.229,1.541-3.229,3.204c0.049,2.886,1.248,4.965,3.4,4.965
		C311.698,52.211,312.823,50.45,312.823,48.029z"/>
</g>
<g>
	<g>
		<path fill="#A10200" d="M40.682,165.983v5.784h7.345v-9.001h2.112v9.001h4.656v2.111h-4.656v11.019h-2.112v-11.019h-7.439
			c-0.385,4.729-2.448,8.329-6.098,10.802l-1.655-1.607c3.313-1.824,5.208-4.921,5.616-9.193h-5.354v-2.11h5.448v-5.232
			l-4.801,0.936l-0.72-2.063c4.992-0.695,8.833-1.655,11.497-2.88l0.864,1.943c-1.296,0.505-2.736,0.984-4.368,1.393L40.682,165.983
			z"/>
		<path fill="#A10200" d="M59.554,183.601v1.057h-2.137v-18.506c0-0.479,0.239-0.721,0.72-0.721h6.217
			c0.504-1.104,0.84-2.017,1.056-2.735l1.92,0.695l-0.695,2.04h9.145c0.48,0,0.744,0.24,0.744,0.721v18.506h-2.136v-1.057H59.554z
			 M74.387,167.784c0-0.217-0.096-0.313-0.313-0.313H59.865c-0.239,0-0.336,0.12-0.312,0.313v5.712h14.833V167.784z M59.554,181.56
			h14.833v-6.023H59.554V181.56z"/>
		<path fill="#A10200" d="M100.931,170.664c-3.721-1.536-7.009-3.504-9.865-5.856c-1.92,1.92-5.304,3.89-10.104,5.904l-1.128-1.944
			c5.473-1.848,9.072-3.911,10.704-6.216l1.969,0.407l-0.288,0.408c2.808,2.353,6.121,4.151,9.913,5.377L100.931,170.664z
			 M90.01,182.209v-5.929h-9.337v-2.04h9.337v-2.832h-5.497v-2.04H97.57v2.04h-5.544v2.832h9.289v2.04h-9.289v5.929h9.48v2.04
			H80.481v-2.04H90.01z M84.897,181.993c-0.912-1.896-1.776-3.36-2.544-4.394l1.752-1.08c0.888,1.152,1.752,2.642,2.616,4.488
			L84.897,181.993z M95.026,180.745c1.008-1.345,1.968-2.784,2.76-4.226l1.656,1.177c-1.032,1.704-2.016,3.169-2.855,4.297
			L95.026,180.745z"/>
		<path fill="#A10200" d="M125.41,168.359c-1.775-0.359-3.889-0.937-6.289-1.729v1.248h-8.16v-1.271
			c-1.824,0.601-3.938,1.177-6.386,1.681l-0.695-1.944c5.304-0.695,8.977-1.968,10.896-3.744l1.704,0.721l-0.168,0.168
			c3.048,1.536,6.336,2.521,9.841,2.929L125.41,168.359z M124.187,174.744c0,0.168-0.096,0.265-0.264,0.265h-17.905
			c-0.168,0-0.264-0.097-0.264-0.265v-5.642c0-0.168,0.096-0.238,0.264-0.238h17.905c0.168,0,0.264,0.07,0.264,0.238V174.744z
			 M109.233,183.841v0.864h-1.944v-8.185c-0.023-0.192,0.072-0.313,0.313-0.313h14.929c0.265,0,0.408,0.119,0.408,0.384v8.112
			h-1.944v-0.864L109.233,183.841L109.233,183.841z M111.033,170.736c0.456,0.672,0.912,1.512,1.32,2.52h1.729v-2.64h-6.409
			c-0.072,0-0.097,0.022-0.072,0.072v2.472l0.072,0.096h2.615l-0.911-1.632L111.033,170.736z M109.233,179.209h11.761v-1.08
			c0-0.168-0.096-0.265-0.288-0.265h-11.209c-0.191,0-0.287,0.097-0.264,0.265V179.209z M120.994,180.865h-11.761v1.296h11.761
			V180.865z M117.922,166.128l-2.977-1.465c-0.527,0.337-1.439,0.864-2.76,1.465H117.922z M120.826,171.816l-0.888,1.438h2.304
			l0.097-0.096v-2.472l-0.097-0.072h-6.289v2.64h1.633c0.743-0.96,1.319-1.8,1.655-2.472L120.826,171.816z"/>
		<path fill="#A10200" d="M128.097,182.977c2.424-0.239,4.92-0.769,7.513-1.487l0.384,1.992c-2.712,0.672-5.256,1.199-7.655,1.512
			L128.097,182.977z M148.379,181.056c0,0.192-0.097,0.288-0.288,0.288h-18.073c-0.168,0-0.264-0.096-0.264-0.288v-11.305
			c0-0.192,0.096-0.288,0.264-0.288h18.073c0.191,0,0.288,0.096,0.288,0.288V181.056z M147.635,168.072
			c0,0.19-0.097,0.287-0.288,0.287h-16.97c-0.168,0-0.265-0.097-0.265-0.287v-4.489c0-0.168,0.097-0.264,0.265-0.264h16.969
			c0.191,0,0.288,0.096,0.288,0.264L147.635,168.072L147.635,168.072z M131.793,172.92h14.545v-1.512
			c0-0.072-0.024-0.096-0.097-0.096h-14.377c-0.071,0-0.096,0.022-0.071,0.096V172.92z M146.339,177.864h-14.545v1.513
			c-0.024,0.072,0,0.096,0.071,0.12h14.377l0.097-0.12V177.864z M131.793,176.209h14.545V174.6h-14.545V176.209z M145.595,165.168
			c0-0.072-0.024-0.097-0.096-0.097h-13.273c-0.072,0-0.096,0.023-0.072,0.097v1.319c-0.023,0.071,0,0.097,0.072,0.12h13.273
			l0.096-0.12V165.168z M149.555,184.993c-2.497-0.72-4.92-1.2-7.273-1.416l0.456-1.992c3.192,0.456,5.642,0.984,7.369,1.488
			L149.555,184.993z"/>
	</g>
	<g>
		<path fill="#A10200" d="M10.055,168.472l5.452-3.987h1.792v18.553h-4.544v-12.723h-2.7V168.472z"/>
		<path fill="#A10200" d="M23.887,176.677h4.468v4.14h-4.468V176.677z"/>
	</g>
</g>
<g>
	<g>
		<path fill="#A10200" d="M223.698,172.548c2.185-1.921,3.816-4.2,4.85-6.793l1.968,0.841c-1.488,3.287-3.192,5.713-5.041,7.271
			L223.698,172.548z M242.948,172.019c0.024,0.264,0.049,0.768,0.049,1.512c0,0.864-0.024,2.017-0.072,3.505
			c-0.096,2.928-0.456,4.85-0.96,5.712c-0.864,1.394-2.136,2.04-4.104,2.04c-1.248,0-2.76-0.264-4.487-0.792l0.144-2.328
			c1.8,0.602,3.24,0.912,4.296,0.912c2.017,0,2.664-1.2,2.856-4.128c0.096-1.536,0.12-2.712,0.12-3.505
			c0-0.743-0.024-1.176-0.097-1.296l-0.216-0.072h-5.808c-0.384,1.776-0.912,3.385-1.608,4.729
			c-1.439,2.447-4.056,4.729-7.825,6.721l-1.487-1.729c1.319-0.553,2.567-1.271,3.768-2.137c2.784-1.848,4.488-4.393,5.017-7.585
			h-4.561v-2.136h14.281l0.264,0.048c-1.056-1.392-2.185-3.432-3.36-6.097c-0.048-0.145-0.144-0.216-0.336-0.216h-7.009v-2.04h7.969
			c0.265,0,0.433,0.144,0.576,0.407c1.656,3.889,3.648,6.816,5.929,8.762l-1.921,1.248L242.948,172.019z"/>
		<path fill="#A10200" d="M257.995,164.171v-1.439h2.111v1.439h9.625v1.849h-21.41v-1.849H257.995z M262.459,180.132
			c0.191,0.505,0.288,1.032,0.288,1.514c0,0.672-0.192,1.606-0.937,2.352c-1.056,0.816-2.399,1.226-4.056,1.226
			c-1.536,0-3.336-0.36-5.4-1.104l-0.071-2.184c2.208,0.814,3.769,1.2,5.353,1.2c2.472,0,3.024-1.104,3.024-1.656
			c0-0.385-0.24-0.841-0.648-1.346h-11.689v-1.943h9.025l-0.576-0.313l1.104-1.752l1.056,0.672c2.328-0.672,4.057-1.248,5.113-1.775
			H250.22v-1.849h16.177l1.032,1.584c-1.417,1.248-3.648,2.376-6.649,3.385l0.049,0.048h8.809v1.943L262.459,180.132
			L262.459,180.132z M267.572,171.899c0,0.168-0.096,0.264-0.287,0.264h-16.585c-0.169,0-0.265-0.096-0.265-0.264v-4.416
			c0-0.168,0.096-0.265,0.265-0.265h16.585c0.191,0,0.287,0.097,0.287,0.265V171.899L267.572,171.899z M265.531,169.067
			c0-0.048-0.023-0.072-0.096-0.072h-12.889c-0.072,0-0.096,0.024-0.072,0.072v1.224c-0.023,0.072,0,0.098,0.072,0.12h12.889
			l0.097-0.12L265.531,169.067L265.531,169.067z"/>
		<path fill="#A10200" d="M274.987,172.283c-1.248-1.248-2.328-2.136-3.239-2.712l1.296-1.584c1.008,0.624,2.111,1.56,3.313,2.76
			L274.987,172.283z M274.434,180.684v-4.705c0-0.191-0.096-0.288-0.264-0.288h-2.185v-2.04h3.984c0.336,0,0.504,0.168,0.504,0.504
			v5.905c0.096,0.456,0.36,0.912,0.792,1.392c0.432,0.528,1.224,0.984,2.354,1.368c0.575,0.12,1.775,0.192,3.575,0.192
			c2.473,0,6.098-0.12,10.873-0.36l-0.456,2.305l-11.809,0.048c-3.024-0.119-5.064-0.983-6.097-2.593
			c-0.24,0.792-1.536,2.232-2.809,2.761l-1.08-1.801c1.104-0.526,1.849-1.056,2.208-1.56L274.434,180.684z M275.37,167.219
			c-1.272-1.2-2.328-2.063-3.24-2.593l1.248-1.632c1.008,0.624,2.136,1.512,3.336,2.664L275.37,167.219z M280.555,177.563
			c-0.144,0.912-0.744,2.231-1.776,3.865l-1.703-0.793c1.344-1.896,2.088-3.815,2.208-5.736h-1.896v-1.775h3.24v-1.225h-2.76
			c-0.169,0-0.24-0.096-0.24-0.264v-7.081c0-0.168,0.071-0.24,0.24-0.24h2.783l0.408-1.512l1.824,0.504l-0.24,1.008h3.241
			c0.168,0,0.24,0.072,0.24,0.24v7.081c0,0.168-0.072,0.264-0.24,0.264h-3.409v1.225h4.128v1.775h-5.544l-0.12,0.983h4.945
			c0.432,0.097,0.647,0.145,0.647,0.961l-0.096,2.712c-0.072,1.345-0.624,2.521-2.735,2.521c-0.744,0-1.656-0.12-2.713-0.36v-2.063
			c0.912,0.384,1.681,0.552,2.305,0.552c1.464,0,1.464-0.624,1.464-1.896c0-0.553-0.024-0.744-0.288-0.744h-3.913V177.563z
			 M279.475,167.315h4.8v-1.345l-0.096-0.072h-4.632c-0.072,0-0.096,0.023-0.072,0.072V167.315z M284.275,168.899h-4.8v1.32
			l0.072,0.096h4.632l0.096-0.096V168.899z M286.459,181.308c1.344-1.032,2.521-2.545,3.457-4.488
			c-0.624-1.705-1.057-3.648-1.32-5.809l-0.624,1.535l-1.872-0.433c1.368-2.976,1.992-6.024,1.92-9.12h1.849l-0.097,2.063h4.417
			v1.775h-0.84c0,1.824,0,5.186-1.68,10.178c0.432,1.079,1.296,2.688,2.544,4.729l-1.752,0.648c-0.672-1.152-1.248-2.28-1.729-3.36
			c-0.288,0.792-1.199,1.968-2.712,3.432L286.459,181.308z M289.748,166.835c0.12,2.496,0.359,4.634,0.744,6.36l0.287,1.248
			c0.624-2.353,0.912-4.848,0.912-7.608H289.748z"/>
		<path fill="#A10200" d="M296.034,166.667h7.824v1.944h-7.824V166.667z M298.458,183.757v0.647h-1.944v-8.089
			c0-0.384,0.216-0.601,0.6-0.601h5.882c0.407,0,0.624,0.217,0.624,0.601v6.769c0,0.456-0.217,0.673-0.648,0.673H298.458z
			 M296.802,169.763h6.481v1.942h-6.481V169.763z M296.802,172.859h6.481v1.944h-6.481V172.859z M296.898,163.667h6.192v1.944
			h-6.192V163.667z M301.675,177.876c0-0.216-0.12-0.313-0.336-0.313h-2.568c-0.216,0-0.312,0.097-0.312,0.313v4.032h2.808
			c0.264,0,0.408-0.144,0.408-0.408V177.876z M310.147,170.003v-1.15h-4.439v-1.85h4.439v-1.151h-5.088v-1.849h5.088v-1.177h2.041
			v1.177h5.448v1.849h-5.448v1.151h4.704v1.85h-4.704v1.15h5.904v1.85h-13.609v-1.85H310.147z M307.507,180.803v4.057h-2.04v-11.473
			c0-0.336,0.168-0.48,0.504-0.48h10.897c0.312,0,0.479,0.146,0.479,0.48v9.385c0,1.68-1.271,2.399-3.023,2.399
			c-0.673,0-1.465-0.097-2.353-0.287l-0.096-2.28c0.983,0.288,1.728,0.408,2.256,0.408c1.176,0,1.176-0.984,1.176-1.058v-1.151
			H307.507L307.507,180.803z M307.507,176.027h7.801v-1.128c0-0.096-0.048-0.145-0.168-0.145h-7.489
			c-0.096,0-0.144,0.049-0.144,0.145V176.027L307.507,176.027z M307.507,179.028h7.801v-1.225h-7.801V179.028z"/>
		<path fill="#A10200" d="M324.091,183.18v0.936h-1.849v-9.24l-0.479,0.983l-2.017-0.6c1.584-3.098,2.496-6.266,2.688-9.457h-2.208
			v-1.944h7.344v1.944h-3.216c-0.168,2.017-0.408,3.743-0.792,5.209h3.577c0.408,0,0.624,0.19,0.624,0.6v10.945
			c0,0.432-0.216,0.624-0.648,0.624H324.091z M325.914,173.172c0-0.191-0.119-0.287-0.336-0.287h-1.176
			c-0.216,0-0.312,0.096-0.312,0.287v8.16h1.439c0.265,0,0.384-0.12,0.384-0.358V173.172z M330.691,177.252
			c0.024,0.433,0.024,0.841,0.024,1.248c0,2.305-0.336,4.416-1.009,6.288c-0.672-0.407-1.271-0.646-1.8-0.72
			c0.576-1.488,0.864-3.096,0.864-4.824c0-0.624-0.048-1.271-0.12-1.944L330.691,177.252z M329.179,175.979
			c-0.192,0-0.313-0.12-0.313-0.359v-11.594c0-0.264,0.145-0.407,0.408-0.407h12.265v1.849h-5.111v1.535h4.656v1.85h-4.656v1.606
			h4.729v1.85h-4.729v1.8h5.231c0.288,0,0.408,0.168,0.408,0.479c-0.023,3.889-0.192,6.528-0.479,7.922
			c-0.433,2.472-2.376,2.472-3.408,2.472c-0.672,0-1.464-0.048-2.354-0.168l-0.071-2.064c1.8,0.386,2.256,0.456,2.64,0.456
			c0.312,0,0.528-0.07,0.672-0.19c0.408-0.408,0.672-0.912,0.769-1.536c0.216-1.032,0.216-3.192,0.216-5.4
			c0-0.049-0.097-0.097-0.24-0.097h-10.632V175.979z M334.483,167.003v-1.535h-3.456c-0.144,0-0.216,0.071-0.216,0.216v1.319
			H334.483z M334.483,170.459v-1.606h-3.672v1.606H334.483z M330.811,174.107h3.672v-1.8h-3.672V174.107z M331.578,183.372
			c0.049-2.136-0.096-4.151-0.432-6.023l1.872-0.097c0.264,3.146,0.384,5.208,0.384,6.12H331.578z M334.652,182.268
			c-0.216-1.608-0.576-3.337-1.104-5.138l1.8-0.336c0.576,2.137,0.936,3.912,1.128,5.258L334.652,182.268z M336.115,176.916
			l1.704-0.408c0.408,1.248,0.792,2.616,1.057,4.104l-1.729,0.264L336.115,176.916z"/>
	</g>
	<g>
		<path fill="#A10200" d="M197.714,168.182V164.7h13.354c0.823,0.033,1.514,0.185,2.069,0.454c0.336,0.151,0.631,0.445,0.884,0.883
			c0.234,0.422,0.361,0.934,0.379,1.54v1.868c-0.135,1.127-0.927,2.078-2.373,2.853c-3.669,2.138-7.338,4.282-11.006,6.437v1.035
			h13.252v3.483h-17.922v-3.609c0.051-0.741,0.252-1.431,0.605-2.07c0.336-0.622,0.917-1.22,1.742-1.792
			c0.354-0.219,0.697-0.42,1.034-0.605c3.434-1.919,6.866-3.854,10.3-5.807v-1.187H197.714z"/>
		<path fill="#A10200" d="M215.586,176.891h4.468v4.14h-4.468V176.891z"/>
	</g>
</g>
<g>
	<g>
		<path fill="#A10200" d="M429.818,183.385c1.872-1.248,3.24-2.448,4.129-3.602l-3.457-2.353c-0.239-0.239-0.358-0.527-0.358-0.863
			c0-0.192,0.047-0.408,0.144-0.647c0.624-1.562,1.32-4.08,2.04-7.514h-2.28v-2.04h2.688l0.553-3.456l2.016,0.336l-0.455,3.12h3.937
			c0.336-0.048,0.504,0.216,0.504,0.408c-0.049,5.568-0.937,9.721-2.592,12.36l2.808,1.921l-0.937,1.848l-2.928-1.992
			c-1.32,1.634-2.736,3.05-4.298,4.152L429.818,183.385z M435.051,178.056c1.487-2.809,2.305-6.024,2.399-9.648h-2.977
			c-0.504,2.521-1.226,5.064-2.064,7.633v0.145l0.313,0.265L435.051,178.056z M448.564,165.599h-8.233v-2.04h10.395l1.127,1.607
			l-4.584,4.416c-0.48,0.528-0.552,0.722-0.552,0.912c0,0.24,0.12,0.48,0.359,0.696l0.863,1.464h4.081v2.04h-3.265
			c0.407,1.272,0.624,2.617,0.624,3.984c0,3.527-1.584,5.761-4.225,5.761c-1.201,0-2.593-0.456-4.151-1.368l0.432-2.256
			c0.384,0.24,2.063,1.368,3.528,1.368c0.312,0,0.601-0.048,0.814-0.168c0.457-0.216,1.465-1.152,1.465-3.288
			c0-1.104-0.239-2.448-0.744-4.033h-6.601v-2.04h5.64c-0.336-0.6-0.694-1.224-1.127-1.8c-0.121-0.168-0.336-0.432-0.336-0.72
			c0-0.146,0.097-0.336,0.336-0.528L448.564,165.599z"/>
		<path fill="#A10200" d="M457.706,183.121c2.904-0.672,5.593-1.728,8.041-3.12c-1.969-2.063-3.385-4.68-4.151-7.752h-0.361
			c-1.295,4.225-3.096,8.04-5.328,11.474l-2.016-0.984c3.408-4.656,5.52-9.721,6.288-15.217h-5.856v-2.137h6.072l0.145-2.641
			l2.138,0.119l-0.193,2.521h13.25v2.137h-13.489l-0.504,2.688h10.657l1.535,1.032c-0.84,4.297-2.544,6.289-5.017,8.785
			c2.16,1.44,4.585,2.496,7.226,3.146l-1.344,1.92c-2.978-0.912-5.521-2.186-7.563-3.793c-2.353,1.607-5.208,2.903-8.544,3.864
			L457.706,183.121z M463.683,172.249c0.744,2.809,1.992,4.969,3.695,6.528v0.023c1.057-0.889,3.553-3.023,4.057-6.146v-0.096
			c0-0.192-0.144-0.313-0.432-0.313h-7.32V172.249z"/>
		<path fill="#A10200" d="M477.722,183.433c0.526-2.929,0.768-5.28,0.694-7.058l1.776,0.12c0.072,1.992-0.144,4.394-0.696,7.152
			L477.722,183.433z M480.913,174.913l-2.52,0.408c-0.12-0.528-0.288-1.129-0.528-1.775l1.2-0.192
			c0.601-0.72,1.226-1.608,1.92-2.712c-1.056-1.032-2.11-1.872-3.216-2.521l0.938-1.607l0.454,0.313
			c0.576-1.225,1.104-2.567,1.608-3.983l1.681,0.768c-0.359,1.08-0.983,2.497-1.896,4.272l1.32,1.151
			c0.622-1.344,1.056-2.664,1.296-3.912l1.849,0.408c-0.36,1.992-1.609,4.488-3.673,7.416l2.328-0.432l-0.528-1.752l1.705-0.408
			c0.623,2.208,1.056,3.815,1.224,4.824l-1.704,0.313l-0.239-1.129l-1.368,0.24v10.417h-1.85L480.913,174.913L480.913,174.913z
			 M485.091,176.569l0.624,5.16l-1.656,0.192l-0.6-5.018L485.091,176.569z M485.211,183.937c2.256-2.064,2.735-5.81,2.735-6.146
			h-2.111v-1.848h2.279v-3.696h-2.088v-1.849h2.088v-3.12h-2.473v-1.849h2.473v-2.208h1.872v2.208h2.136v1.849h-2.136v3.12h1.968
			v1.849h-1.991v3.696h2.257v1.848h-2.425c-0.433,3.266-1.367,5.688-2.809,7.272L485.211,183.937z M494.836,165.311
			c-0.168,0-0.265,0.097-0.265,0.265v19.321h-1.849V163.8c0-0.217,0.12-0.336,0.336-0.336h5.616l1.248,0.96l-2.279,7.681v0.576
			c1.871,2.784,2.496,4.513,2.496,6.673c0,1.92-0.77,3.672-2.856,3.672c-0.576,0-1.177-0.192-2.208-0.646l0.265-2.018
			c0.912,0.576,1.438,0.769,1.872,0.769c0.983,0,1.199-0.624,1.199-2.111c0-1.633-0.889-3.553-2.615-6.193
			c-0.145-0.144-0.217-0.288-0.192-0.432l2.017-6.793l0.049-0.288L494.836,165.311L494.836,165.311z"/>
		<path fill="#A10200" d="M517.803,184.681c-5.952-0.168-8.905-1.272-11.041-4.896c-0.815,1.896-1.872,3.696-3.216,5.257
			l-1.705-1.199c3.239-3.89,3.841-6.457,4.319-10.441l2.041,0.216c-0.145,1.297-0.359,2.497-0.625,3.602
			c1.129,2.473,2.665,4.057,4.634,4.775v-10.297h-6.505v-2.04h14.546v2.04h-6v3.961h8.159v2.04h-8.159v4.704
			c0.888,0.096,1.823,0.146,2.782,0.146h7.033l-0.553,2.136h-5.711V184.681z M512.067,164.975v-2.017h2.136v2.017h8.064l1.849,0.937
			c-0.12,1.416-0.552,3.146-1.248,5.16l-1.92-0.696c0.456-1.56,0.721-2.592,0.77-3.048v-0.071c0-0.168-0.098-0.239-0.289-0.239
			h-16.729c-0.121,0-0.192,0.048-0.192,0.168v3.432h-2.039v-5.256c0-0.265,0.144-0.385,0.407-0.385L512.067,164.975L512.067,164.975
			z"/>
	</g>
	<g>
		<path fill="#A10200" d="M401.467,168.182V164.7h13.101c0.724,0.018,1.413,0.143,2.07,0.379c1.127,0.488,1.724,1.305,1.792,2.448
			v3.659c-0.018,0.388-0.084,0.732-0.203,1.036c-0.168,0.421-0.428,0.757-0.781,1.009c-0.354,0.27-0.8,0.505-1.338,0.707
			l0.479,0.253c0.622,0.319,1.102,0.697,1.438,1.136c0.235,0.42,0.37,0.892,0.404,1.414v3.71c-0.018,0.303-0.102,0.647-0.252,1.034
			c-0.136,0.354-0.404,0.683-0.809,0.985c-0.539,0.371-1.229,0.614-2.07,0.732l-0.807,0.05h-13.025v-3.482h12.772v-4.368h-10.526
			V172.5h10.526v-4.317H401.467z"/>
		<path fill="#A10200" d="M420.171,176.891h4.468v4.141h-4.468V176.891z"/>
	</g>
</g>
<g>
	<g>
		<path fill="#A10200" d="M628.77,183.013c0.646-2.184,1.176-4.561,1.536-7.08l1.969,0.479c-0.721,3.601-1.272,6.023-1.608,7.177
			L628.77,183.013z M633.306,174.565l-3.984,0.527c-0.071-0.552-0.239-1.176-0.479-1.896l2.041-0.266l1.968-2.23
			c-1.345-1.226-2.688-2.209-4.009-2.952l0.912-1.729l1.057,0.648c0.721-1.177,1.393-2.474,2.064-3.889l1.68,0.983
			c-0.504,1.031-1.271,2.353-2.328,4.008l1.729,1.394c1.104-1.704,1.92-3.337,2.446-4.97l1.85,0.624
			c-0.575,2.018-2.208,4.608-4.824,7.729l3.816-0.552l-0.77-2.018l1.945-0.576c0.959,2.616,1.606,4.489,1.848,5.546l-1.969,0.432
			l-0.384-1.439l-2.567,0.336v10.682h-2.041L633.306,174.565L633.306,174.565z M638.082,175.933l1.248,5.4l-1.871,0.456l-1.248-5.28
			L638.082,175.933z M644.179,182.149v-15.769h-4.633v-2.041h11.28v2.041h-4.607v15.769h4.969v2.041h-12.289v-2.041H644.179z"/>
		<path fill="#A10200" d="M663.691,178.141c-0.912-1.319-2.016-2.761-3.313-4.319v11.137h-2.04v-10.825
			c-0.983,2.041-2.208,3.938-3.602,5.641l-1.942-0.936c2.206-2.4,3.888-5.017,5.063-7.849h-4.633v-2.041h5.112v-3.265l-4.536,0.313
			l-0.336-2.017c4.561-0.191,8.231-0.647,10.969-1.248l0.408,1.992c-1.104,0.288-4.273,0.744-4.465,0.744v3.479h4.775v2.041h-4.775
			v0.119c1.703,1.849,3.359,3.769,4.873,5.761L663.691,178.141z M671.948,163.068h2.04v19.25c0,0.433-0.072,2.545-3.145,2.545
			c-1.009,0-2.306-0.192-3.864-0.624v-2.112c1.513,0.432,2.712,0.646,3.552,0.646c1.273,0,1.417-0.454,1.417-0.982V163.068
			L671.948,163.068z M666.979,164.004h2.04v15.697h-2.04V164.004z"/>
		<path fill="#A10200" d="M679.795,183.83v1.008h-2.041v-20.546c0-0.456,0.239-0.695,0.696-0.695h19.081
			c0.504,0,0.721,0.239,0.721,0.695v20.546h-2.04v-1.008H679.795z M679.795,181.79h16.417v-15.865c0-0.192-0.097-0.288-0.288-0.288
			h-15.865c-0.216,0-0.288,0.12-0.264,0.288V181.79z M693.859,178.933c0,0.192-0.096,0.288-0.312,0.288h-10.825
			c-0.191,0-0.287-0.096-0.287-0.288v-10.271c0-0.192,0.096-0.288,0.287-0.288h10.825c0.216,0,0.312,0.096,0.312,0.288V178.933z
			 M691.698,170.413h-7.129c-0.071,0-0.096,0.022-0.096,0.096v6.553c0,0.072,0.023,0.12,0.096,0.12h7.129
			c0.072,0,0.121-0.048,0.121-0.12v-6.553L691.698,170.413z"/>
		<path fill="#A10200" d="M708.091,166.908c-0.96-0.624-1.85-1.271-2.664-1.969c-0.434,0.721-1.464,1.752-3.024,3.049l-1.774-1.177
			c1.991-1.319,3.312-2.592,3.862-3.769h1.85l-0.12,0.36c1.008,0.672,2.063,1.319,3.168,1.871L708.091,166.908z M706.866,183.469
			c-2.305,0.696-4.129,1.248-5.425,1.536l-0.696-1.944l1.104-0.216v-13.753c0-0.336,0.192-0.528,0.528-0.528h1.896v-2.111h1.848
			v2.111h1.607c0.36,0,0.553,0.192,0.553,0.528v9.072c0,0.408-0.191,0.601-0.576,0.601h-4.008v3.553l2.473-0.769l-0.479-1.2
			l1.752-0.576c0.695,1.729,1.271,3.288,1.632,4.682l-1.775,0.456L706.866,183.469z M703.698,172.693h2.736v-1.823
			c0-0.313-0.169-0.456-0.457-0.456h-1.848c-0.288,0-0.433,0.144-0.433,0.456L703.698,172.693L703.698,172.693z M706.435,174.541
			h-2.736v2.376h2.424c0.217,0,0.313-0.096,0.313-0.313L706.435,174.541L706.435,174.541z M715.34,169.789v-1.104h-5.018
			c-0.168,0-0.24-0.096-0.24-0.264v-4.177c0-0.168,0.072-0.24,0.24-0.24h5.018v-1.104h1.848v1.104h4.896
			c0.168,0,0.264,0.072,0.264,0.24v4.177c0,0.168-0.096,0.264-0.264,0.264h-4.896v1.104h6.001v1.656h-13.993v-1.656H715.34z
			 M709.41,183.158c2.137-0.24,3.816-0.602,5.064-1.032l0.456,1.92c-1.394,0.479-3.12,0.84-5.186,1.057L709.41,183.158z
			 M722.347,181.693c0,0.17-0.097,0.266-0.265,0.266h-11.761c-0.168,0-0.239-0.096-0.239-0.266v-8.855
			c0-0.168,0.071-0.24,0.239-0.24h11.761c0.169,0,0.265,0.072,0.265,0.24V181.693z M715.34,167.1v-1.512h-3.313
			c-0.072,0-0.096,0.023-0.072,0.071v1.345l0.072,0.096H715.34z M711.954,175.07h8.546v-0.744l-0.097-0.072h-8.377
			c-0.072,0-0.096,0.023-0.072,0.072V175.07L711.954,175.07z M711.954,177.709h8.546v-1.056h-8.546V177.709z M720.5,179.269h-8.546
			v0.912l0.072,0.097h8.377l0.097-0.097V179.269L720.5,179.269z M717.187,165.589v1.512h3.217l0.097-0.096v-1.345l-0.097-0.071
			H717.187z M722.683,185.221c-2.088-0.672-3.769-1.08-5.064-1.199l0.24-1.921c1.513,0.168,3.337,0.602,5.425,1.272L722.683,185.221
			z"/>
	</g>
	<g>
		<path fill="#A10200" d="M598.811,174.644l12.697-9.944h4.518v11.535h2.271v2.727h-2.271v4.291h-4.19v-4.291h-13.024V174.644z
			 M611.835,168.359c-3.264,2.625-6.486,5.26-9.668,7.901h9.668V168.359z"/>
		<path fill="#A10200" d="M618.752,176.891h4.469v4.141h-4.469V176.891z"/>
	</g>
</g>
</svg>
