<?xml version="1.0" encoding="utf-8"?>
<!-- Generator: Adobe Illustrator 16.0.0, SVG Export Plug-In . SVG Version: 6.00 Build 0)  -->
<svg version="1.2" baseProfile="tiny" id="圖層_1"
	 xmlns="http://www.w3.org/2000/svg" xmlns:xlink="http://www.w3.org/1999/xlink" x="0px" y="0px" width="604.05px"
	 height="196.49px" viewBox="0 0 604.05 196.49" xml:space="preserve">
<g>
	<path fill="#A10200" d="M151.953,135.087c0,8.078-6.549,14.626-14.626,14.626H23.974c-8.077,0-14.625-6.548-14.625-14.626V21.734
		c0-8.078,6.548-14.626,14.625-14.626h113.354c8.077,0,14.626,6.548,14.626,14.626V135.087z"/>
	<path fill="#FFFFFF" d="M126.145,76.379l-8.535-5.729c-2.042-1.366-3.05-4.39-2.23-6.711l3.403-9.704
		c0.813-2.32-0.532-4.149-2.99-4.057l-10.273,0.385c-2.462,0.087-5.05-1.764-5.754-4.123l-2.948-9.847
		c-0.706-2.356-2.866-3.04-4.802-1.523l-8.09,6.348c-1.936,1.518-5.119,1.542-7.078,0.05l-8.398-8.037
		c-1.954-1.492-4.107-0.775-4.778,1.592l-2.588,11.687c-0.671,2.369-3.235,4.257-5.694,4.197l-10.281-0.231
		c-2.457-0.064-3.779,1.783-2.933,4.093l3.542,9.652c0.847,2.313-0.118,5.346-2.141,6.745l-8.458,5.85
		c-2.023,1.397-2.006,3.666,0.038,5.038l8.532,5.729c2.046,1.371,3.049,4.39,2.234,6.711l-3.403,9.701
		c-0.814,2.324,0.531,4.146,2.989,4.057l10.273-0.38c2.461-0.095,5.05,1.759,5.753,4.119l2.949,9.846
		c0.706,2.359,2.87,3.043,4.805,1.528l8.089-6.348c1.933-1.521,5.118-1.543,7.076-0.051l8.173,6.232
		c1.96,1.492,4.11,0.778,4.782-1.59l2.81-9.886c0.673-2.367,3.237-4.256,5.693-4.199l10.28,0.236
		c2.461,0.062,3.78-1.785,2.934-4.094l-3.54-9.653c-0.846-2.313,0.115-5.345,2.139-6.745l8.46-5.849
		C128.204,80.017,128.188,77.752,126.145,76.379z"/>
	<g>
		<path fill="#A10200" d="M99.638,56.053L80.818,96.387c-0.678,1.425-1.645,2.513-2.898,3.259c-1.256,0.747-2.697,1.121-4.325,1.121
			c-1.661,0-3.111-0.358-4.35-1.069c-1.238-0.713-2.194-1.817-2.875-3.311L56.223,74.186h11.241l5.265,11.576
			c0.169,0.406,0.46,0.61,0.866,0.61c0.473,0,0.766-0.205,0.864-0.61l13.938-29.708H99.638z"/>
	</g>
</g>
<g>
	<path fill="#A10200" d="M374.693,135.087c0,8.078-6.549,14.626-14.626,14.626H246.715c-8.077,0-14.627-6.548-14.627-14.626V21.734
		c0-8.078,6.55-14.626,14.627-14.626h113.353c8.077,0,14.626,6.548,14.626,14.626V135.087z"/>
	<g>
		<g>
			<path fill="#FFFFFF" d="M293.771,48.125c-0.774,0-1.4,0.334-1.4,0.744v2.242c0,0.409,0.626,0.745,1.4,0.745h21.16
				c0.774,0,1.402-0.336,1.402-0.745v-2.242c0-0.41-0.628-0.744-1.402-0.744H293.771z"/>
			<path fill="#FFFFFF" d="M292.088,43.717l24.751-0.12l6.123-9.532c0.942-1.468-9.428,2.865-11.261,2.865l-6.879-7.549
				l-4.378,7.549l-12.481-5.994c-1.831,0-4.404,1.74-3.331,3.129L292.088,43.717z"/>
			<path fill="#FFFFFF" d="M345.279,106.012c0.076-6.155-0.193-13.79-1.535-20.286c-2.771-13.407-13.789-29.114-31.846-29.114
				H297.38c-18.057,0-37.137,25.131-35.934,45.291c0.054,0.974,0.414,5.745,0.466,6.571c0.015-0.049,0.041-0.098,0.058-0.148
				c0.111,1.151,0.431,2.275,0.931,3.369c2.89,6.321,11.962,11.52,24.018,14.062c5.123,1.079,10.779,1.682,16.73,1.682
				c5.956,0,11.614-0.603,16.742-1.682c13.636-2.878,23.458-9.156,24.822-16.607c0.109-0.589,0.176-1.186,0.176-1.785
				C345.389,106.907,345.341,106.459,345.279,106.012z"/>
		</g>
	</g>
</g>
<g>
	<path fill="#A10200" d="M597.434,135.086c0,8.078-6.548,14.626-14.626,14.626H469.455c-8.078,0-14.626-6.549-14.626-14.626V21.733
		c0-8.078,6.548-14.625,14.626-14.625h113.353c8.078,0,14.626,6.548,14.626,14.625V135.086z"/>
	<g>
		<g>
			<g>
				<path fill="#FFFFFF" d="M492.448,88.843v32.596c0,1.482,1.289,2.68,2.883,2.68h24.758c0-10.723,0-34.246,0-35.276
					C512.241,88.843,493.408,88.843,492.448,88.843z"/>
				<path fill="#FFFFFF" d="M532.167,88.843c0,11.762,0,23.519,0,35.276h24.762c1.591,0,2.879-1.198,2.879-2.68V88.843H532.167z"/>
				<path fill="#FFFFFF" d="M487.206,66.531v15.383c0,1.485,1.292,2.687,2.887,2.687c1.699,0,29.996,0,29.996,0
					c0-6.913,0-13.835,0-20.756h-29.996C488.498,63.845,487.206,65.048,487.206,66.531z"/>
				<path fill="#FFFFFF" d="M562.166,63.845l-29.999,0.006c0,6.915,0,13.837,0,20.75c8.814,0,29.999,0,29.999,0
					c1.595,0,2.891-1.201,2.891-2.687V66.531C565.057,65.048,563.761,63.845,562.166,63.845z"/>
			</g>
			<path fill="#FFFFFF" d="M554.123,39.041c-2.014-3.149-6.594-6.339-11.453-6.339c-2.943,0-5.709,1.146-7.996,3.308
				c-3.807,3.6-7.204,8.487-9.481,12.602c-2.271-4.114-5.671-9.002-9.474-12.597c-2.289-2.167-5.056-3.313-8-3.313
				c-4.854,0-9.438,3.19-11.457,6.339c-1.629,2.547-1.232,5.838,1.127,9.275c1.978,2.878,5.21,5.655,9.097,7.818
				c4.598,2.547,9.755,2.931,12.421,2.931c1.71,0,4.326-0.155,6.286-0.881c1.965,0.726,4.583,0.881,6.29,0.881
				c2.667,0,7.823-0.384,12.418-2.931c3.89-2.163,7.12-4.939,9.101-7.818C555.362,44.878,555.762,41.588,554.123,39.041z
				 M518.906,53.743c-2.082,0-6.074-0.289-9.487-2.188c-3.096-1.716-5.725-3.946-7.212-6.111c-1.065-1.55-1.472-2.993-1.031-3.68
				c0.964-1.505,3.712-3.735,6.543-3.735c1.414,0,2.697,0.557,3.925,1.72c4.085,3.858,7.938,9.872,9.778,13.84
				C520.741,53.68,519.891,53.743,518.906,53.743z M548.184,45.445c-1.487,2.165-4.116,4.395-7.213,6.111
				c-3.418,1.899-7.404,2.188-9.488,2.188c-0.984,0-1.835-0.063-2.516-0.152c1.841-3.969,5.695-9.982,9.779-13.84
				c1.227-1.163,2.512-1.72,3.924-1.72c2.835,0,5.576,2.23,6.542,3.735C549.653,42.452,549.248,43.895,548.184,45.445z"/>
		</g>
	</g>
</g>
<g>
	<path fill="#A10200" d="M22.464,179.156h-4.438c0,7.03-3.911,8.133-7.535,8.805l-1.007-1.991c5.807-0.48,6.502-3.431,6.502-6.813
		h-5.566v-2.039h20.347v2.039h-6.262v5.422c0,0.6,0.337,1.104,1.15,1.176h3c0.192,0,0.768-0.144,0.768-0.624l0.049-2.664
		l2.039,0.288c-0.096,2.544-0.288,3.984-0.528,4.223c-0.48,0.527-0.984,0.815-1.44,0.815h-5.037c-0.864-0.048-2.04-0.863-2.04-2.063
		V179.156z M19.608,168.047v-2.112h2.11v2.112h8.256l1.847,0.936c-0.144,1.32-0.6,2.927-1.272,4.798l-1.895-0.695l0.768-2.688
		c0.023-0.215-0.071-0.312-0.288-0.312H12.41c-0.12,0-0.192,0.049-0.192,0.168v3.432h-2.039v-5.255c0-0.264,0.144-0.383,0.409-0.383
		H19.608z M13.61,172.63h14.157v2.039H13.61V172.63z"/>
	<path fill="#A10200" d="M52.169,169.151h3.023v2.039h-7.414c0.576,3.191,1.201,5.831,1.896,7.846
		c0.72-1.224,1.486-3.407,2.279-6.479l1.991,0.48c-0.743,3.408-1.872,6.191-3.311,8.35c0.889,2.064,2.111,4.247,2.424,4.247
		c0.095,0,0.312,0,0.432-0.672c0.167-1.008,0.237-2.231,0.216-3.694l1.991,0.478c-0.121,3.648-0.672,5.759-1.56,6.311
		c-0.192,0.071-0.385,0.145-0.624,0.145c-0.647,0-1.176-0.336-1.657-0.839c-0.888-1.008-1.749-2.376-2.591-4.2
		c-1.631,1.824-3.574,3.527-5.687,5.11l-1.726-1.487c2.566-1.8,4.751-3.72,6.502-5.735c-1.128-2.879-2.017-6.142-2.64-9.861h-8.108
		c-0.168,0-0.267,0.097-0.267,0.264v2.4h6.264c0.527-0.024,0.744,0.12,0.768,0.335v6.647c0,0.792-0.144,1.512-0.456,2.159
		c-0.743,1.751-1.776,1.847-2.734,1.847c-0.792,0-1.801-0.144-3.023-0.384l-0.097-2.134c1.177,0.36,2.111,0.527,2.759,0.527
		c0.337,0,0.6-0.048,0.768-0.144c0.506-0.335,0.746-1.271,0.746-1.536v-5.038c0-0.145-0.097-0.239-0.29-0.239H37.34v1.198
		c0,4.271-0.669,7.941-1.966,10.917l-1.967-0.72c1.511-3.647,1.847-6.406,1.895-10.844v-6.718c0-0.383,0.191-0.576,0.552-0.576
		h9.574l-0.336-3.215l2.061,0.072c0.074,1.008,0.169,2.064,0.337,3.144h4.32c-1.056-0.72-1.969-1.198-2.688-1.512l0.984-1.799
		c0.911,0.36,1.917,0.96,3.046,1.728L52.169,169.151z"/>
	<path fill="#A10200" d="M67.599,180.668h-9.862v-2.04h9.862v-9.957H58.6v-2.039h20.083v2.039h-8.975v9.957h9.719v2.04h-9.719v7.318
		h-2.109V180.668z M62.343,177.381c-1.248-2.688-2.423-4.751-3.478-6.191l1.774-1.079c1.177,1.631,2.375,3.743,3.528,6.286
		L62.343,177.381z M72.732,176.516c1.68-2.567,2.854-4.727,3.527-6.43l1.847,0.912c-0.768,1.944-1.967,4.126-3.574,6.55
		L72.732,176.516z"/>
	<path fill="#A10200" d="M100.397,173.638l-18.379,1.486l-0.552-2.111l2.255-0.167c1.682-2.086,3.239-4.39,4.703-6.934l1.729,1.08
		c-0.816,1.56-2.04,3.431-3.672,5.662l12.213-0.888c-0.216-0.383-1.248-1.416-3-3.047l1.607-1.416
		c2.759,2.783,4.918,5.159,6.407,7.077l-1.655,1.296L100.397,173.638z M86.025,186.857v1.056h-2.135V177.86
		c0-0.503,0.24-0.743,0.745-0.743h15.93c0.48,0,0.744,0.24,0.744,0.743v10.053h-2.136v-1.056H86.025z M86.025,184.818h13.148v-5.35
		c0-0.217-0.096-0.312-0.312-0.312H86.339c-0.241,0-0.336,0.119-0.313,0.312V184.818z"/>
	<path fill="#A10200" d="M108.221,176.253l-0.96,1.487l-1.942-0.839c2.376-3.432,3.862-7.054,4.391-10.894l2.015,0.337
		c-0.405,2.135-0.91,3.982-1.462,5.589v15.956h-2.041V176.253z M118.299,185.106v-7.438h-6.743v-2.039h6.743v-6.382l-5.376,0.24
		l-0.286-2.039c2.662-0.024,9.813-0.383,13.507-1.224l0.359,2.015c-0.911,0.191-2.95,0.503-6.07,0.864v6.526h6.983v2.039h-6.983
		v7.438h6.598v2.039h-14.923v-2.039H118.299z"/>
	<path fill="#A10200" d="M129.289,182.155c1.679-1.679,2.974-3.694,3.861-5.951h-3.549v-1.943h4.629
		c-1.224-1.199-2.351-2.207-3.335-2.951l1.345-1.368l1.727,1.512c2.089-1.319,2.951-2.615,2.951-2.783
		c0-0.12-0.12-0.191-0.312-0.191h-6.478v-1.847h8.204l1.009,0.839c-0.646,1.679-1.967,3.455-3.984,5.231l0.962,0.959l-0.674,0.599
		h2.761l1.247,0.937c-0.359,1.967-1.032,3.791-2.015,5.374l-1.871-0.673c1.416-1.895,1.75-3.046,1.75-3.454
		c0-0.073,0-0.121-0.022-0.168l-0.218-0.073h-1.654v9.478c0,0.672-0.288,2.328-2.567,2.328c-0.768,0-1.729-0.169-2.904-0.505
		l0.049-2.015c1.127,0.337,1.992,0.504,2.544,0.504c0.791,0,0.91-0.264,0.91-0.816v-5.782c-0.887,1.655-1.797,2.903-2.662,3.791
		L129.289,182.155z M137.277,186.331c5.231-1.704,5.76-5.207,5.903-6.095h-3.503v-1.943h3.6v-1.296h2.038v1.272h5.111l0.384,0.096
		c0.215,0.287,0.24,0.311,0.312,0.527c0,4.438-0.264,7.078-0.673,7.822c-0.646,1.104-1.68,1.439-3.07,1.439
		c-0.838,0-1.823-0.144-2.951-0.408l-0.095-2.303c1.151,0.432,2.109,0.624,2.829,0.624c0.577,0,1.178-0.072,1.607-0.768l0.289-0.864
		c0.121-1.295,0.168-2.303,0.168-2.998c0-0.792,0-1.2-0.36-1.2h-3.623c-0.191,1.319-0.84,2.831-1.871,4.463
		c-1.174,1.343-2.831,2.471-4.894,3.382L137.277,186.331z M139.917,175.389c1.609-0.432,2.977-0.959,4.104-1.488
		c-0.84-0.888-1.608-2.087-2.281-3.551c-0.574,1.008-1.247,1.895-2.015,2.639l-1.512-1.295c2.089-2.04,2.567-3.552,3.072-5.735
		l1.896,0.335l-0.192,0.84h8.519v1.968h-1.633c-0.743,1.967-1.729,3.574-2.902,4.798c1.344,0.84,2.976,1.488,4.847,1.896
		l-1.128,1.728c-1.896-0.48-3.648-1.295-5.206-2.376c-1.319,0.84-2.856,1.513-4.608,1.993L139.917,175.389z M143.229,169.104
		c0.407,1.055,0.958,2.471,2.277,3.671c0.985-1.008,1.802-2.256,2.375-3.671H143.229z"/>
</g>
<g>
	<path fill="#A10200" d="M232.176,179.78c1.657-0.889,3.098-2.184,4.247-3.768c-0.214-1.248-0.502-2.423-0.909-3.479
		c-0.626,0.696-1.224,1.295-1.825,1.775l-1.485-1.199c0.958-0.792,1.797-1.607,2.468-2.447c-0.526-1.056-1.245-2.111-2.134-3.143
		l1.632-1.057c0.624,0.768,1.224,1.607,1.729,2.519c0.454-0.719,0.839-1.462,1.199-2.279l1.654,0.792
		c-0.624,1.319-1.295,2.446-1.918,3.358c0.525,1.176,0.936,2.472,1.224,3.887c0.359,1.992,0.551,3.815,0.551,5.447
		c0,2.951-0.815,7.917-3.646,7.917c-0.648,0-1.512-0.168-2.569-0.527l0.05-2.04c0.96,0.336,1.654,0.504,2.085,0.504
		c0.169,0,0.313-0.024,0.41-0.073c1.103-0.479,1.799-3.455,1.799-5.757c0-0.241-0.072-1.44-0.072-1.705
		c-1.15,1.224-2.231,2.135-3.214,2.688L232.176,179.78z M248.275,177.284v1.104h6v1.583h-13.412c-0.407,0-0.624-0.215-0.624-0.672
		v-5.662l-0.888,0.792l-1.367-1.296c1.225-0.815,2.23-2.159,2.926-4.006l1.729,0.695l-0.359,0.887h4.199
		c0.262-0.646,0.479-1.223,0.598-1.679l1.752,0.648l-0.336,1.031h5.59l-0.169,1.561h-5.638v1.007h5.565v1.488h-5.565v1.056h5.565
		v1.463H248.275z M254.106,188.177c-2.398-0.023-4.845-0.408-7.292-1.151c-2.088,0.696-4.535,1.128-7.366,1.272l-0.408-1.896
		c1.823,0,3.551-0.168,5.205-0.48l-2.782-1.56l0.888-1.416c1.559,0.983,2.999,1.727,4.223,2.231c1.968-0.744,3.48-1.487,4.509-2.231
		c0-0.12-0.166-0.144-0.31-0.12h-10.727v-1.847h13.148l1.224,0.912c0.05,0.024,0.073,0.072,0.073,0.12
		c0,0.049-0.023,0.096-0.073,0.145c-0.934,1.295-2.662,2.59-5.086,3.838c1.079,0.167,2.279,0.264,3.598,0.264
		c0.505,0,1.058-0.024,1.633-0.047L254.106,188.177z M248.997,168.671h-4.608v1.032h-1.871v-1.032h-2.95v-1.848h2.95v-0.887h1.871
		v0.887h4.608v-0.887h1.848v0.887h3.478v1.848h-3.478v1.032h-1.848V168.671z M242.182,173.277h4.152v-1.007h-3.888
		c-0.167,0-0.265,0.096-0.265,0.264V173.277z M242.182,175.821h4.152v-1.056h-4.152V175.821z M246.334,177.284h-4.152v0.84
		c0,0.168,0.098,0.264,0.265,0.264h3.888V177.284z"/>
	<path fill="#A10200" d="M259.267,178.604l-1.464,1.344l-1.631-1.32c2.353-1.919,4.199-4.295,5.399-7.054l1.871,0.888
		c-0.793,1.487-1.512,2.735-2.23,3.791v11.83h-1.945V178.604z M256.196,171.55c1.992-1.511,3.525-3.408,4.558-5.591l1.824,0.912
		c-1.488,2.784-3.118,4.823-4.8,6.046L256.196,171.55z M273.374,181.795H262.53v-1.848h10.844v-1.775h-10.172v-1.752h14.73v1.752
		h-2.519v1.775h2.904v1.848h-2.904v3.935c0,0.313,0,2.423-2.759,2.423c-0.769,0-1.729-0.144-2.878-0.408v-2.111
		c1.078,0.288,1.895,0.431,2.495,0.431c0.935,0,1.102-0.263,1.102-0.887V181.795z M277.238,174.765c0,0.192-0.098,0.289-0.289,0.289
		h-12.477c-0.142,0-0.238-0.096-0.238-0.289v-7.773c0-0.169,0.097-0.264,0.238-0.264h12.477c0.191,0,0.289,0.095,0.289,0.264
		V174.765z M267.232,186.666c-0.312-0.505-1.126-1.608-2.447-3.312l1.583-1.104c0.889,0.959,1.728,2.111,2.498,3.431
		L267.232,186.666z M266.178,170.11h9.115v-1.656l-0.095-0.071h-8.949c-0.071,0-0.095,0.024-0.071,0.071V170.11z M275.293,171.766
		h-9.115v1.511l0.071,0.096h8.949l0.095-0.096V171.766z"/>
	<path fill="#A10200" d="M280.166,186.137c0.649-2.183,1.177-4.559,1.535-7.077l1.969,0.479c-0.719,3.6-1.271,6.022-1.606,7.174
		L280.166,186.137z M284.701,177.692l-3.982,0.528c-0.072-0.552-0.239-1.175-0.479-1.894l2.037-0.265l1.969-2.231
		c-1.346-1.223-2.688-2.207-4.006-2.951l0.911-1.727l1.055,0.647c0.719-1.175,1.391-2.471,2.064-3.887l1.678,0.983
		c-0.503,1.032-1.271,2.352-2.328,4.007l1.729,1.392c1.104-1.703,1.921-3.334,2.447-4.967l1.849,0.624
		c-0.575,2.016-2.209,4.606-4.822,7.726l3.814-0.552l-0.77-2.015l1.944-0.576c0.96,2.614,1.607,4.486,1.848,5.542l-1.969,0.432
		l-0.384-1.439l-2.565,0.336v10.677h-2.04V177.692z M289.476,179.06l1.248,5.398l-1.871,0.457l-1.248-5.279L289.476,179.06z
		 M295.57,185.274v-15.764h-4.632v-2.039h11.278v2.039h-4.606v15.764h4.966v2.039h-12.283v-2.039H295.57z"/>
	<path fill="#A10200" d="M315.079,181.267c-0.914-1.319-2.017-2.759-3.312-4.319v11.134h-2.041V177.26
		c-0.982,2.04-2.205,3.936-3.598,5.639l-1.943-0.936c2.207-2.399,3.888-5.015,5.063-7.845h-4.633v-2.04h5.11v-3.263l-4.533,0.312
		l-0.336-2.015c4.559-0.193,8.229-0.649,10.965-1.248l0.407,1.991c-1.103,0.287-4.271,0.743-4.462,0.743v3.479h4.773v2.04h-4.773
		v0.119c1.702,1.848,3.359,3.768,4.87,5.759L315.079,181.267z M323.33,166.2h2.04v19.242c0,0.432-0.071,2.543-3.143,2.543
		c-1.007,0-2.304-0.192-3.863-0.624v-2.112c1.512,0.432,2.712,0.648,3.552,0.648c1.271,0,1.414-0.456,1.414-0.983V166.2z
		 M318.364,167.135h2.04v15.691h-2.04V167.135z"/>
	<path fill="#A10200" d="M330.988,182.779c0,2.063-0.361,3.887-1.009,5.446c-0.624-0.385-1.2-0.624-1.679-0.744
		c0.502-1.2,0.767-2.519,0.767-3.935c0-0.263,0-0.552-0.023-0.815L330.988,182.779z M333.169,179.756v-1.632h-4.271v-1.847h4.271
		v-1.607h-4.366c-0.166,0-0.24-0.096-0.24-0.265v-7.821c0-0.168,0.074-0.24,0.24-0.24h10.629c0.17,0,0.266,0.072,0.266,0.24v7.821
		c0,0.168-0.096,0.265-0.266,0.265h-4.416v1.607h4.129v1.847h-4.129v1.512l4.44-0.288l0.095,1.944l-10.988,0.647l-0.238-1.919
		L333.169,179.756z M333.169,173.014v-4.99h-2.854l-0.072,0.071v4.822l0.072,0.096H333.169z M331.227,172.198
		c-0.048-1.031-0.215-2.063-0.455-3.046l1.56-0.169c0.144,0.648,0.313,1.704,0.455,3.144L331.227,172.198z M331.778,187.625
		c0.072-0.815,0.099-1.655,0.099-2.519c0-0.769-0.026-1.536-0.074-2.304l1.823,0.072c0.048,0.72,0.048,1.439,0.048,2.111
		c0,0.983-0.024,1.919-0.095,2.807L331.778,187.625z M335.04,187.409c-0.119-1.271-0.404-2.806-0.791-4.582l1.824-0.288
		c0.359,1.679,0.647,3.287,0.793,4.727L335.04,187.409z M335.016,168.024v4.99h2.93c0.072,0,0.095-0.024,0.095-0.096v-4.822
		l-0.095-0.071H335.016z M336.073,168.912l1.512,0.24l-0.431,3.263l-1.537-0.336L336.073,168.912z M337.995,186.306
		c-0.268-1.416-0.604-2.687-1.034-3.719l1.584-0.431c0.48,1.223,0.863,2.518,1.08,3.862L337.995,186.306z M342.337,186.857v0.983
		h-1.871v-11.251c-0.026-0.192,0.071-0.312,0.312-0.312h2.661v-10.173h1.943v3.431h4.728v1.848h-4.728v4.894h4.056
		c0.241,0,0.383,0.12,0.383,0.384v11.18h-1.847v-0.983H342.337z M342.337,185.01h5.637v-6.622c0-0.168-0.095-0.264-0.288-0.264
		h-5.11c-0.167,0-0.265,0.096-0.238,0.264V185.01z"/>
	<path fill="#A10200" d="M364.242,186.713c1.776-1.128,3.312-2.759,4.607-4.847c-1.056-2.567-1.632-4.462-1.729-5.686l-0.264,0.552
		l-1.749-0.456v3.431c0,0.168-0.097,0.264-0.266,0.264h-4.725l-0.697,1.104h6.814v1.656h-2.687
		c-0.936,1.344-1.824,2.327-2.569,2.927l3.119,1.031l-1.197,1.631l-3.983-1.367l-2.209,0.768c-0.909,0.264-2.23,0.432-3.936,0.552
		l-0.525-1.918c0.695,0,2.014-0.144,3.863-0.361l-1.969-0.719l-0.264-1.248l1.535-1.296h-3.166v-1.656h4.796l0.793-1.104h-4.294
		c-0.143,0-0.217-0.096-0.217-0.264v-4.079c0-0.168,0.074-0.239,0.217-0.239h4.702v-0.912H353.9c-0.165,0-0.264-0.096-0.264-0.289
		v-2.71h-1.39v-1.657h1.39v-2.734c0-0.168,0.099-0.265,0.264-0.265h4.344v-0.983h1.944v0.983h4.223c0.169,0,0.262,0.097,0.262,0.265
		v2.734h1.465v1.657h-1.465v2.71c0,0.192-0.093,0.289-0.262,0.289h-4.223v0.912h4.653c0.266,0,0.266,0.12,0.266,0.432
		c1.439-3.119,2.158-6.358,2.135-9.645h1.942l-0.19,2.759h5.471v1.943h-1.247c0,2.087,0,5.878-2.233,11.061
		c1.007,1.871,2.233,3.646,3.622,5.327l-1.823,1.031c-1.656-2.255-2.64-3.743-2.901-4.391c-1.032,1.512-2.399,2.951-4.08,4.222
		L364.242,186.713z M358.244,176.972h-2.998c-0.07,0-0.098,0.024-0.07,0.073v1.248l0.07,0.096h2.998V176.972z M358.244,169.822
		v-1.343h-2.591c-0.071,0-0.095,0.024-0.071,0.073v1.271H358.244z M358.244,172.822v-1.343h-2.662v1.247l0.071,0.096H358.244z
		 M358.844,184.962c0.888-0.552,1.729-1.295,2.497-2.231h-3.288l-1.44,1.319c-0.048,0.024-0.07,0.048-0.07,0.096
		c0,0.025,0.022,0.049,0.095,0.072L358.844,184.962z M360.188,168.479v1.343h2.543v-1.271l-0.097-0.073H360.188z M360.188,171.479
		v1.343h2.446l0.097-0.096v-1.247H360.188z M363.162,176.972h-2.974v1.416h2.974l0.097-0.096v-1.248L363.162,176.972z
		 M368.729,170.878c-0.146,0.648-0.216,1.344-0.216,2.087c0,2.447,0.911,5.518,1.368,6.695c0.983-2.64,1.391-5.423,1.391-8.782
		H368.729z"/>
</g>
<g>
	<path fill="#A10200" d="M468.27,180.812h-3.841c-0.095,0.768-0.238,1.464-0.406,2.015c-0.888,2.448-3.239,4.247-6.934,5.399
		l-1.176-1.896c3.095-0.863,6.069-1.822,6.454-5.518h-3.574c-0.193,0-0.265-0.097-0.265-0.312v-7.582
		c-0.601,0.529-1.176,0.96-1.727,1.32l-1.466-1.512c1.969-1.271,3.601-2.903,4.823-4.918l1.729,1.08
		c-0.888,1.32-1.849,2.495-2.832,3.503h14.995c-0.959-0.839-1.968-2.016-2.975-3.455c-0.049-0.071-0.168-0.121-0.359-0.121h-7.679
		v-2.039h8.446c0.241,0,0.433,0.073,0.553,0.241c1.511,2.303,3.405,4.126,5.637,5.327l-1.536,1.559l-1.534-1.032v7.63
		c0,0.215-0.071,0.312-0.288,0.312h-4.007v3.814c-0.024,0.744,0.047,1.344,1.271,1.344h2.279c0.673,0,1.127-0.215,1.367-0.552
		c0.144-0.241,0.192-1.152,0.192-2.639l2.063,0.288c-0.047,3.239-0.167,3.574-0.527,4.055c-0.672,0.695-0.863,0.888-2.422,0.888
		h-3.841c-1.392,0-2.495-0.864-2.422-3.047V180.812z M472.468,174.429H460.64c-0.071,0-0.071,0.024-0.071,0.096v4.127
		c0,0.072,0,0.121,0.071,0.121h11.828c0.073,0,0.12-0.048,0.12-0.121v-4.127L472.468,174.429z"/>
	<path fill="#A10200" d="M481.995,177.932v-5.614h-2.353v-1.944h2.353v-4.295h1.943v4.295h1.822v1.944h-1.822v4.702l1.249-0.695
		l0.981,1.679c-0.671,0.409-1.416,0.839-2.23,1.248v6.67c0,1.031-0.623,2.303-2.352,2.303c-0.479,0-1.08-0.097-1.751-0.264
		l-0.073-2.016c0.624,0.167,1.129,0.239,1.464,0.239c0.433,0,0.769-0.072,0.769-0.768v-5.302l-1.991,0.744l-0.673-1.92
		L481.995,177.932z M500.948,188.394c-0.768-0.168-2.04-0.671-3.741-1.44c-1.272-0.671-2.641-1.967-4.054-3.815l-0.338,0.529
		c-1.295,1.967-3.72,3.575-7.198,4.727l-0.96-1.872c3.383-0.863,5.687-2.256,6.814-4.174h-6.284v-1.751h1.438v-8.757
		c0-0.408,0.217-0.6,0.623-0.6h5.664c1.177-0.912,2.159-1.801,2.88-2.616h-5.568c-0.839,0.72-1.462,1.272-3.406,2.447l-1.08-1.631
		c2.064-1.079,3.695-2.28,4.776-3.599l1.534,0.816l-0.169,0.215h5.567l1.127,1.008c0,0.121-0.647,1.417-2.662,3.36h4.007
		c0.454,0,0.672,0.192,0.672,0.624v8.733h1.104v1.751h-6.935c0.936,1.249,2.448,3.263,7.055,4.174L500.948,188.394z
		 M494.063,179.971l-0.048,0.625h4.702v-2.183h-3.336c-0.599,0-0.862-0.289-0.862-0.888v-4.535h-1.921v1.343
		c0,2.063-0.911,3.695-2.639,4.871l-1.392-1.367c0.384-0.168,0.72-0.385,1.008-0.625c0.696-0.671,1.103-1.656,1.176-2.878v-1.343
		h-2.016c-0.168,0-0.24,0.097-0.24,0.264v7.342h3.552l0.071-0.625v-1.535h1.944V179.971z M496.366,176.205
		c0,0.289,0.145,0.457,0.432,0.457h1.92v-3.407c0-0.167-0.097-0.264-0.266-0.264h-2.086V176.205z"/>
	<path fill="#A10200" d="M503.278,186.282c0.648-2.183,1.175-4.558,1.535-7.077l1.968,0.48c-0.72,3.598-1.271,6.021-1.606,7.174
		L503.278,186.282z M507.813,177.837l-3.984,0.527c-0.071-0.552-0.238-1.175-0.479-1.895l2.038-0.265l1.969-2.231
		c-1.345-1.222-2.688-2.207-4.007-2.951l0.91-1.727l1.057,0.647c0.72-1.176,1.392-2.471,2.063-3.887l1.68,0.984
		c-0.503,1.032-1.272,2.351-2.329,4.008l1.729,1.39c1.103-1.703,1.919-3.334,2.447-4.966l1.849,0.624
		c-0.578,2.015-2.21,4.606-4.824,7.727l3.815-0.553l-0.769-2.015l1.943-0.576c0.961,2.615,1.608,4.486,1.848,5.542l-1.969,0.433
		l-0.383-1.44l-2.566,0.337v10.677h-2.039V177.837z M512.587,179.205l1.248,5.398l-1.871,0.456l-1.248-5.279L512.587,179.205z
		 M518.682,185.418v-15.763h-4.632v-2.039h11.277v2.039h-4.605v15.763h4.966v2.04h-12.283v-2.04H518.682z"/>
	<path fill="#A10200" d="M538.189,181.412c-0.912-1.319-2.016-2.759-3.311-4.319v11.133h-2.04v-10.821
		c-0.985,2.039-2.207,3.936-3.6,5.639l-1.942-0.937c2.206-2.398,3.887-5.014,5.063-7.845h-4.631v-2.039h5.11v-3.263l-4.535,0.312
		l-0.336-2.016c4.559-0.192,8.23-0.648,10.965-1.249l0.408,1.992c-1.103,0.288-4.271,0.744-4.462,0.744v3.479h4.774v2.039h-4.774
		v0.121c1.703,1.847,3.359,3.767,4.87,5.758L538.189,181.412z M546.442,166.344h2.04v19.242c0,0.432-0.072,2.543-3.143,2.543
		c-1.007,0-2.304-0.191-3.864-0.624v-2.111c1.512,0.432,2.711,0.647,3.552,0.647c1.272,0,1.415-0.456,1.415-0.983V166.344z
		 M541.476,167.279h2.04v15.691h-2.04V167.279z"/>
	<path fill="#A10200" d="M568.446,185.682c0,0.12-0.048,0.215-0.145,0.264c0.576,0.192,1.032,0.263,1.368,0.263
		c0.743,0,0.936-0.719,0.936-1.007v-6.742h-5.782c-0.601,0-0.912-0.289-0.912-0.936v-3.6h-2.807l-0.192,1.176
		c-0.552,1.822-2.278,3.311-5.087,4.438l-1.2-1.729c1.873-0.623,4.343-1.439,4.488-3.886h-4.583c-0.096,0-0.145,0.047-0.145,0.167
		v14.18h-2.039v-15.81c0-0.313,0.167-0.481,0.479-0.481h5.087l-0.982-2.278h-5.111v-1.943h9.716v-1.776h2.016v1.776h9.67v1.943
		h-5.206l-0.48,1.295l-0.408,0.983h5.015c0.359,0,0.505,0.168,0.505,0.481v13.555c0,0.815-0.385,2.303-2.591,2.303
		c-0.625,0-1.393-0.119-2.257-0.311l-0.048-2.04h-10.917c-0.193,0-0.288-0.096-0.288-0.288v-5.686c0-0.192,0.095-0.288,0.288-0.288
		h11.325c0.193,0,0.288,0.096,0.288,0.288V185.682z M566.406,181.652c0-0.073-0.023-0.096-0.095-0.096h-7.654
		c-0.073,0-0.097,0.023-0.073,0.096v2.351c-0.023,0.071,0,0.097,0.073,0.121h7.654l0.095-0.121V181.652z M560.049,171.981h4.896
		l0.934-2.278h-6.74L560.049,171.981z M565.854,176.133c0,0.312,0.168,0.48,0.528,0.48h4.223v-2.52c0-0.12-0.05-0.167-0.168-0.167
		h-4.583V176.133z"/>
	<path fill="#A10200" d="M578.188,186.953v0.817h-2.039v-10.533c-0.024-0.216,0.096-0.337,0.335-0.337h8.567
		c0.313,0,0.456,0.146,0.456,0.408v10.462h-2.04v-0.817H578.188z M595.607,174.79c0,0.215-0.072,0.312-0.287,0.312h-17.491
		c-0.192,0-0.287-0.097-0.287-0.312v-7.631c0-0.191,0.095-0.288,0.287-0.288h17.491c0.215,0,0.287,0.096,0.287,0.288V174.79z
		 M578.188,184.915h5.279v-5.686c0-0.193-0.098-0.289-0.313-0.289h-4.678c-0.24,0-0.313,0.12-0.289,0.289V184.915z M593.472,168.911
		h-13.795c-0.071,0-0.096,0.024-0.096,0.095v3.935c0,0.072,0.024,0.12,0.096,0.12h13.795c0.072,0,0.097-0.048,0.097-0.12v-3.935
		L593.472,168.911z M589.61,186.953v0.817h-2.041v-10.533c-0.024-0.216,0.097-0.337,0.336-0.337h8.59
		c0.289,0,0.432,0.146,0.432,0.408v10.462h-2.039v-0.817H589.61z M589.61,184.915h5.277v-5.686c0-0.193-0.096-0.289-0.313-0.289
		h-4.679c-0.238,0-0.312,0.12-0.286,0.289V184.915z"/>
</g>
<g>
	<circle fill="#686868" cx="190.233" cy="88.398" r="17.5"/>
	<g>
		<path fill="#FFFFFF" d="M184.233,97.831v-4.111l9.233-5.286l-9.233-5.363v-4.106l12.998,7.57v3.856L184.233,97.831z"/>
	</g>
</g>
<g>
	<circle fill="#686868" cx="414.233" cy="88.398" r="17.5"/>
	<g>
		<path fill="#FFFFFF" d="M408.233,97.831v-4.111l9.233-5.286l-9.233-5.363v-4.106l12.998,7.57v3.856L408.233,97.831z"/>
	</g>
</g>
</svg>
